<svg width="554" height="90" viewBox="0 0 554 90" fill="none" xmlns="http://www.w3.org/2000/svg">
<rect width="554" height="90" fill="white"/>
<path d="M165.988 54L164.746 49.9219H158.5L157.258 54H153.344L159.391 36.7969H163.832L169.902 54H165.988ZM163.879 46.875L162.637 42.8906C162.559 42.625 162.453 42.2852 162.32 41.8711C162.195 41.4492 162.066 41.0234 161.934 40.5938C161.809 40.1562 161.707 39.7773 161.629 39.457C161.551 39.7773 161.441 40.1758 161.301 40.6523C161.168 41.1211 161.039 41.5664 160.914 41.9883C160.789 42.4102 160.699 42.7109 160.645 42.8906L159.414 46.875H163.879ZM177.109 54.2344C175.812 54.2344 174.707 54 173.793 53.5312C172.879 53.0547 172.184 52.3203 171.707 51.3281C171.23 50.3359 170.992 49.0664 170.992 47.5195C170.992 45.918 171.262 44.6133 171.801 43.6055C172.348 42.5898 173.102 41.8438 174.062 41.3672C175.031 40.8906 176.152 40.6523 177.426 40.6523C178.332 40.6523 179.113 40.7422 179.77 40.9219C180.434 41.0938 181.012 41.3008 181.504 41.543L180.449 44.3086C179.887 44.082 179.363 43.8984 178.879 43.7578C178.395 43.6094 177.91 43.5352 177.426 43.5352C176.801 43.5352 176.281 43.6836 175.867 43.9805C175.453 44.2695 175.145 44.707 174.941 45.293C174.738 45.8789 174.637 46.6133 174.637 47.4961C174.637 48.3633 174.746 49.082 174.965 49.6523C175.184 50.2227 175.5 50.6484 175.914 50.9297C176.328 51.2031 176.832 51.3398 177.426 51.3398C178.168 51.3398 178.828 51.2422 179.406 51.0469C179.984 50.8438 180.547 50.5625 181.094 50.2031V53.2617C180.547 53.6055 179.973 53.8516 179.371 54C178.777 54.1562 178.023 54.2344 177.109 54.2344ZM189.508 40.6289C191.266 40.6289 192.613 41.0117 193.551 41.7773C194.488 42.543 194.957 43.707 194.957 45.2695V54H192.461L191.77 52.2188H191.676C191.301 52.6875 190.918 53.0703 190.527 53.3672C190.137 53.6641 189.688 53.8828 189.18 54.0234C188.672 54.1641 188.055 54.2344 187.328 54.2344C186.555 54.2344 185.859 54.0859 185.242 53.7891C184.633 53.4922 184.152 53.0391 183.801 52.4297C183.449 51.8125 183.273 51.0312 183.273 50.0859C183.273 48.6953 183.762 47.6719 184.738 47.0156C185.715 46.3516 187.18 45.9844 189.133 45.9141L191.406 45.8438V45.2695C191.406 44.582 191.227 44.0781 190.867 43.7578C190.508 43.4375 190.008 43.2773 189.367 43.2773C188.734 43.2773 188.113 43.3672 187.504 43.5469C186.895 43.7266 186.285 43.9531 185.676 44.2266L184.492 41.8125C185.188 41.4453 185.965 41.1562 186.824 40.9453C187.691 40.7344 188.586 40.6289 189.508 40.6289ZM191.406 47.9297L190.023 47.9766C188.867 48.0078 188.062 48.2148 187.609 48.5977C187.164 48.9805 186.941 49.4844 186.941 50.1094C186.941 50.6562 187.102 51.0469 187.422 51.2812C187.742 51.5078 188.16 51.6211 188.676 51.6211C189.441 51.6211 190.086 51.3945 190.609 50.9414C191.141 50.4883 191.406 49.8438 191.406 49.0078V47.9297ZM202.797 54.2344C201.336 54.2344 200.145 53.6641 199.223 52.5234C198.309 51.375 197.852 49.6914 197.852 47.4727C197.852 45.2305 198.316 43.5352 199.246 42.3867C200.176 41.2305 201.391 40.6523 202.891 40.6523C203.516 40.6523 204.066 40.7383 204.543 40.9102C205.02 41.082 205.43 41.3125 205.773 41.6016C206.125 41.8906 206.422 42.2148 206.664 42.5742H206.781C206.734 42.3242 206.676 41.957 206.605 41.4727C206.543 40.9805 206.512 40.4766 206.512 39.9609V35.7656H210.098V54H207.355L206.664 52.3008H206.512C206.285 52.6602 206 52.9883 205.656 53.2852C205.32 53.5742 204.918 53.8047 204.449 53.9766C203.98 54.1484 203.43 54.2344 202.797 54.2344ZM204.051 51.3867C205.027 51.3867 205.715 51.0977 206.113 50.5195C206.52 49.9336 206.734 49.0547 206.758 47.8828V47.4961C206.758 46.2227 206.562 45.25 206.172 44.5781C205.781 43.8984 205.055 43.5586 203.992 43.5586C203.203 43.5586 202.586 43.8984 202.141 44.5781C201.695 45.2578 201.473 46.2383 201.473 47.5195C201.473 48.8008 201.695 49.7656 202.141 50.4141C202.594 51.0625 203.23 51.3867 204.051 51.3867ZM219.238 40.6523C220.449 40.6523 221.492 40.8867 222.367 41.3555C223.242 41.8164 223.918 42.4883 224.395 43.3711C224.871 44.2539 225.109 45.332 225.109 46.6055V48.3398H216.66C216.699 49.3477 217 50.1406 217.562 50.7188C218.133 51.2891 218.922 51.5742 219.93 51.5742C220.766 51.5742 221.531 51.4883 222.227 51.3164C222.922 51.1445 223.637 50.8867 224.371 50.543V53.3086C223.723 53.6289 223.043 53.8633 222.332 54.0117C221.629 54.1602 220.773 54.2344 219.766 54.2344C218.453 54.2344 217.289 53.9922 216.273 53.5078C215.266 53.0234 214.473 52.2852 213.895 51.293C213.324 50.3008 213.039 49.0508 213.039 47.543C213.039 46.0117 213.297 44.7383 213.812 43.7227C214.336 42.6992 215.062 41.9336 215.992 41.4258C216.922 40.9102 218.004 40.6523 219.238 40.6523ZM219.262 43.1953C218.566 43.1953 217.988 43.418 217.527 43.8633C217.074 44.3086 216.812 45.0078 216.742 45.9609H221.758C221.75 45.4297 221.652 44.957 221.465 44.543C221.285 44.1289 221.012 43.8008 220.645 43.5586C220.285 43.3164 219.824 43.1953 219.262 43.1953ZM243.402 40.6523C244.887 40.6523 246.008 41.0352 246.766 41.8008C247.531 42.5586 247.914 43.7773 247.914 45.457V54H244.328V46.3477C244.328 45.4102 244.168 44.7031 243.848 44.2266C243.527 43.75 243.031 43.5117 242.359 43.5117C241.414 43.5117 240.742 43.8516 240.344 44.5312C239.945 45.2031 239.746 46.168 239.746 47.4258V54H236.172V46.3477C236.172 45.7227 236.102 45.1992 235.961 44.7773C235.82 44.3555 235.605 44.0391 235.316 43.8281C235.027 43.6172 234.656 43.5117 234.203 43.5117C233.539 43.5117 233.016 43.6797 232.633 44.0156C232.258 44.3438 231.988 44.832 231.824 45.4805C231.668 46.1211 231.59 46.9062 231.59 47.8359V54H228.016V40.8984H230.746L231.227 42.5742H231.426C231.691 42.1211 232.023 41.7539 232.422 41.4727C232.828 41.1914 233.273 40.9844 233.758 40.8516C234.242 40.7188 234.734 40.6523 235.234 40.6523C236.195 40.6523 237.008 40.8086 237.672 41.1211C238.344 41.4336 238.859 41.918 239.219 42.5742H239.535C239.926 41.9023 240.477 41.4141 241.188 41.1094C241.906 40.8047 242.645 40.6523 243.402 40.6523ZM255.168 40.8984V54H251.594V40.8984H255.168ZM253.387 35.7656C253.918 35.7656 254.375 35.8906 254.758 36.1406C255.141 36.3828 255.332 36.8398 255.332 37.5117C255.332 38.1758 255.141 38.6367 254.758 38.8945C254.375 39.1445 253.918 39.2695 253.387 39.2695C252.848 39.2695 252.387 39.1445 252.004 38.8945C251.629 38.6367 251.441 38.1758 251.441 37.5117C251.441 36.8398 251.629 36.3828 252.004 36.1406C252.387 35.8906 252.848 35.7656 253.387 35.7656ZM264.25 54.2344C262.953 54.2344 261.848 54 260.934 53.5312C260.02 53.0547 259.324 52.3203 258.848 51.3281C258.371 50.3359 258.133 49.0664 258.133 47.5195C258.133 45.918 258.402 44.6133 258.941 43.6055C259.488 42.5898 260.242 41.8438 261.203 41.3672C262.172 40.8906 263.293 40.6523 264.566 40.6523C265.473 40.6523 266.254 40.7422 266.91 40.9219C267.574 41.0938 268.152 41.3008 268.645 41.543L267.59 44.3086C267.027 44.082 266.504 43.8984 266.02 43.7578C265.535 43.6094 265.051 43.5352 264.566 43.5352C263.941 43.5352 263.422 43.6836 263.008 43.9805C262.594 44.2695 262.285 44.707 262.082 45.293C261.879 45.8789 261.777 46.6133 261.777 47.4961C261.777 48.3633 261.887 49.082 262.105 49.6523C262.324 50.2227 262.641 50.6484 263.055 50.9297C263.469 51.2031 263.973 51.3398 264.566 51.3398C265.309 51.3398 265.969 51.2422 266.547 51.0469C267.125 50.8438 267.688 50.5625 268.234 50.2031V53.2617C267.688 53.6055 267.113 53.8516 266.512 54C265.918 54.1562 265.164 54.2344 264.25 54.2344ZM287.664 54H277.797V36.8672H287.664V39.8438H281.43V43.6055H287.23V46.582H281.43V51H287.664V54ZM293.652 47.3086L289.434 40.8984H293.488L296.031 45.0703L298.598 40.8984H302.652L298.387 47.3086L302.852 54H298.785L296.031 49.5117L293.266 54H289.211L293.652 47.3086ZM310.164 54.2344C308.867 54.2344 307.762 54 306.848 53.5312C305.934 53.0547 305.238 52.3203 304.762 51.3281C304.285 50.3359 304.047 49.0664 304.047 47.5195C304.047 45.918 304.316 44.6133 304.855 43.6055C305.402 42.5898 306.156 41.8438 307.117 41.3672C308.086 40.8906 309.207 40.6523 310.48 40.6523C311.387 40.6523 312.168 40.7422 312.824 40.9219C313.488 41.0938 314.066 41.3008 314.559 41.543L313.504 44.3086C312.941 44.082 312.418 43.8984 311.934 43.7578C311.449 43.6094 310.965 43.5352 310.48 43.5352C309.855 43.5352 309.336 43.6836 308.922 43.9805C308.508 44.2695 308.199 44.707 307.996 45.293C307.793 45.8789 307.691 46.6133 307.691 47.4961C307.691 48.3633 307.801 49.082 308.02 49.6523C308.238 50.2227 308.555 50.6484 308.969 50.9297C309.383 51.2031 309.887 51.3398 310.48 51.3398C311.223 51.3398 311.883 51.2422 312.461 51.0469C313.039 50.8438 313.602 50.5625 314.148 50.2031V53.2617C313.602 53.6055 313.027 53.8516 312.426 54C311.832 54.1562 311.078 54.2344 310.164 54.2344ZM322.598 40.6523C323.809 40.6523 324.852 40.8867 325.727 41.3555C326.602 41.8164 327.277 42.4883 327.754 43.3711C328.23 44.2539 328.469 45.332 328.469 46.6055V48.3398H320.02C320.059 49.3477 320.359 50.1406 320.922 50.7188C321.492 51.2891 322.281 51.5742 323.289 51.5742C324.125 51.5742 324.891 51.4883 325.586 51.3164C326.281 51.1445 326.996 50.8867 327.73 50.543V53.3086C327.082 53.6289 326.402 53.8633 325.691 54.0117C324.988 54.1602 324.133 54.2344 323.125 54.2344C321.812 54.2344 320.648 53.9922 319.633 53.5078C318.625 53.0234 317.832 52.2852 317.254 51.293C316.684 50.3008 316.398 49.0508 316.398 47.543C316.398 46.0117 316.656 44.7383 317.172 43.7227C317.695 42.6992 318.422 41.9336 319.352 41.4258C320.281 40.9102 321.363 40.6523 322.598 40.6523ZM322.621 43.1953C321.926 43.1953 321.348 43.418 320.887 43.8633C320.434 44.3086 320.172 45.0078 320.102 45.9609H325.117C325.109 45.4297 325.012 44.957 324.824 44.543C324.645 44.1289 324.371 43.8008 324.004 43.5586C323.645 43.3164 323.184 43.1953 322.621 43.1953ZM334.949 54H331.375V35.7656H334.949V54ZM342.285 54H338.711V35.7656H342.285V54ZM351.449 40.6523C352.66 40.6523 353.703 40.8867 354.578 41.3555C355.453 41.8164 356.129 42.4883 356.605 43.3711C357.082 44.2539 357.32 45.332 357.32 46.6055V48.3398H348.871C348.91 49.3477 349.211 50.1406 349.773 50.7188C350.344 51.2891 351.133 51.5742 352.141 51.5742C352.977 51.5742 353.742 51.4883 354.438 51.3164C355.133 51.1445 355.848 50.8867 356.582 50.543V53.3086C355.934 53.6289 355.254 53.8633 354.543 54.0117C353.84 54.1602 352.984 54.2344 351.977 54.2344C350.664 54.2344 349.5 53.9922 348.484 53.5078C347.477 53.0234 346.684 52.2852 346.105 51.293C345.535 50.3008 345.25 49.0508 345.25 47.543C345.25 46.0117 345.508 44.7383 346.023 43.7227C346.547 42.6992 347.273 41.9336 348.203 41.4258C349.133 40.9102 350.215 40.6523 351.449 40.6523ZM351.473 43.1953C350.777 43.1953 350.199 43.418 349.738 43.8633C349.285 44.3086 349.023 45.0078 348.953 45.9609H353.969C353.961 45.4297 353.863 44.957 353.676 44.543C353.496 44.1289 353.223 43.8008 352.855 43.5586C352.496 43.3164 352.035 43.1953 351.473 43.1953ZM367.668 40.6523C369.066 40.6523 370.191 41.0352 371.043 41.8008C371.895 42.5586 372.32 43.7773 372.32 45.457V54H368.746V46.3477C368.746 45.4102 368.574 44.7031 368.23 44.2266C367.895 43.75 367.363 43.5117 366.637 43.5117C365.543 43.5117 364.797 43.8828 364.398 44.625C364 45.3672 363.801 46.4375 363.801 47.8359V54H360.227V40.8984H362.957L363.438 42.5742H363.637C363.918 42.1211 364.266 41.7539 364.68 41.4727C365.102 41.1914 365.566 40.9844 366.074 40.8516C366.59 40.7188 367.121 40.6523 367.668 40.6523ZM381.32 54.2344C380.023 54.2344 378.918 54 378.004 53.5312C377.09 53.0547 376.395 52.3203 375.918 51.3281C375.441 50.3359 375.203 49.0664 375.203 47.5195C375.203 45.918 375.473 44.6133 376.012 43.6055C376.559 42.5898 377.312 41.8438 378.273 41.3672C379.242 40.8906 380.363 40.6523 381.637 40.6523C382.543 40.6523 383.324 40.7422 383.98 40.9219C384.645 41.0938 385.223 41.3008 385.715 41.543L384.66 44.3086C384.098 44.082 383.574 43.8984 383.09 43.7578C382.605 43.6094 382.121 43.5352 381.637 43.5352C381.012 43.5352 380.492 43.6836 380.078 43.9805C379.664 44.2695 379.355 44.707 379.152 45.293C378.949 45.8789 378.848 46.6133 378.848 47.4961C378.848 48.3633 378.957 49.082 379.176 49.6523C379.395 50.2227 379.711 50.6484 380.125 50.9297C380.539 51.2031 381.043 51.3398 381.637 51.3398C382.379 51.3398 383.039 51.2422 383.617 51.0469C384.195 50.8438 384.758 50.5625 385.305 50.2031V53.2617C384.758 53.6055 384.184 53.8516 383.582 54C382.988 54.1562 382.234 54.2344 381.32 54.2344ZM393.754 40.6523C394.965 40.6523 396.008 40.8867 396.883 41.3555C397.758 41.8164 398.434 42.4883 398.91 43.3711C399.387 44.2539 399.625 45.332 399.625 46.6055V48.3398H391.176C391.215 49.3477 391.516 50.1406 392.078 50.7188C392.648 51.2891 393.438 51.5742 394.445 51.5742C395.281 51.5742 396.047 51.4883 396.742 51.3164C397.438 51.1445 398.152 50.8867 398.887 50.543V53.3086C398.238 53.6289 397.559 53.8633 396.848 54.0117C396.145 54.1602 395.289 54.2344 394.281 54.2344C392.969 54.2344 391.805 53.9922 390.789 53.5078C389.781 53.0234 388.988 52.2852 388.41 51.293C387.84 50.3008 387.555 49.0508 387.555 47.543C387.555 46.0117 387.812 44.7383 388.328 43.7227C388.852 42.6992 389.578 41.9336 390.508 41.4258C391.438 40.9102 392.52 40.6523 393.754 40.6523ZM393.777 43.1953C393.082 43.1953 392.504 43.418 392.043 43.8633C391.59 44.3086 391.328 45.0078 391.258 45.9609H396.273C396.266 45.4297 396.168 44.957 395.98 44.543C395.801 44.1289 395.527 43.8008 395.16 43.5586C394.801 43.3164 394.34 43.1953 393.777 43.1953Z" fill="#032D6C"/>
<rect width="90" height="90" fill="#E6EDF8"/>
<path d="M51.8735 40.7828C51.736 39.7337 51.3638 38.7579 50.8106 37.9097L55.6018 31.0723C57.4132 28.4872 57.6248 25.2721 56.1677 22.4719C54.7106 19.6717 51.9561 18 48.7995 18H41.2401C41.2319 18 41.2237 18.0013 41.2155 18.0016C41.2091 18.0014 41.2028 18 41.1963 18C38.0396 18 35.2852 19.6717 33.8282 22.4719C32.3712 25.2721 32.5827 28.4872 34.3941 31.0722L39.1853 37.9097C38.6308 38.7597 38.2582 39.7378 38.1214 40.7896C33.1596 43.0979 29.4597 47.8382 28.752 53.6591C27.585 63.2571 35.3262 72 44.998 72C49.6539 72 54.1308 70.0099 57.2621 66.4727C57.9389 65.7081 56.7559 64.6563 56.0771 65.4235C52.8494 69.0695 48.0416 70.8962 43.2138 70.3091C35.1221 69.3253 29.3396 61.9419 30.3234 53.8502C31.3072 45.7586 38.6899 39.976 46.7823 40.9598C54.874 41.9436 60.6565 49.327 59.6727 57.4187C59.4475 59.2709 58.8075 61.2291 57.8707 62.9326C57.3778 63.829 58.7653 64.5902 59.2576 63.6955C60.2896 61.819 60.9951 59.6578 61.2441 57.6098C62.1211 50.3941 58.1376 43.6882 51.8735 40.7828ZM35.2323 23.2025C36.3214 21.1094 38.3064 19.7951 40.6162 19.6064L44.171 31.3434L43.0541 35.0309C41.986 35.3434 41.0243 35.9059 40.2362 36.6514L35.6905 30.164C34.2241 28.0715 34.0528 25.4691 35.2323 23.2025ZM44.9979 28.6132L42.2628 19.5829H47.7329L44.9979 28.6132ZM49.7596 36.6514C48.5162 35.4753 46.8405 34.7518 44.9979 34.7518C44.9285 34.7518 44.8599 34.7551 44.791 34.7571L49.3796 19.6064C51.6894 19.7952 53.6743 21.1094 54.7635 23.2025C55.9429 25.4691 55.7717 28.0715 54.3053 30.164L49.7596 36.6514ZM44.9979 36.3347C47.3918 36.3347 49.4232 37.9142 50.1061 40.0855C49.105 39.757 48.0581 39.5203 46.9732 39.3884C44.5086 39.0889 42.1036 39.3574 39.8887 40.0892C40.5704 37.916 42.6027 36.3347 44.9979 36.3347Z" fill="#032D6C"/>
<path d="M44.9981 44.4175C38.8132 44.4175 33.7812 49.4494 33.7812 55.6344C33.7812 61.8193 38.8132 66.8512 44.9981 66.8512C51.1831 66.8512 56.215 61.8193 56.215 55.6344C56.215 49.4494 51.1831 44.4175 44.9981 44.4175ZM44.9981 65.2683C39.6859 65.2683 35.3641 60.9464 35.3641 55.6343C35.3641 50.3221 39.6859 46.0002 44.9981 46.0002C50.3103 46.0002 54.6322 50.3221 54.6322 55.6343C54.6322 60.9464 50.3103 65.2683 44.9981 65.2683Z" fill="#032D6C"/>
<path d="M50.4164 54.0517L47.9935 52.7266C47.9563 52.7063 47.926 52.676 47.9058 52.6389L46.5806 50.2159C46.2641 49.6374 45.6577 49.2778 44.9982 49.2778C44.3386 49.2778 43.7322 49.6374 43.4157 50.216L42.0904 52.6391C42.0703 52.6761 42.0399 52.7064 42.0028 52.7268L39.5799 54.0519C39.0012 54.3684 38.6416 54.9749 38.6416 55.6344C38.6416 56.2939 39.0011 56.9004 39.5799 57.2168L42.0031 58.5421C42.04 58.5623 42.0703 58.5925 42.0905 58.6297L43.4157 61.0526C43.7322 61.6313 44.3385 61.9908 44.9982 61.9908C45.6578 61.9908 46.2641 61.6313 46.5806 61.0526L47.9059 58.6297C47.926 58.5926 47.9564 58.5624 47.9936 58.542L50.4164 57.2168C50.9951 56.9004 51.3547 56.2939 51.3547 55.6344C51.3547 54.9749 50.9951 54.3683 50.4164 54.0517ZM49.6568 55.828L47.2343 57.153C46.9308 57.3188 46.6827 57.5667 46.517 57.8701L45.1918 60.293C45.1399 60.3879 45.0578 60.4079 44.998 60.4079C44.9383 60.4079 44.8562 60.3879 44.8043 60.2931L43.4792 57.8703C43.3134 57.567 43.0653 57.3189 42.7621 57.1533L40.3393 55.8281C40.2444 55.7762 40.2244 55.6941 40.2244 55.6344C40.2244 55.5747 40.2443 55.4926 40.3393 55.4406L42.762 54.1156C43.0654 53.9498 43.3135 53.7018 43.4791 53.3985L44.8043 50.9757C44.8562 50.8808 44.9383 50.8609 44.998 50.8609C45.0578 50.8609 45.1399 50.8808 45.1918 50.9757L46.5169 53.3985C46.6826 53.7019 46.9307 53.9499 47.234 54.1156L49.6568 55.4407C49.7517 55.4927 49.7717 55.5748 49.7717 55.6345C49.7717 55.6942 49.7518 55.776 49.6568 55.828Z" fill="#032D6C"/>
</svg>
