<svg width="554" height="90" viewBox="0 0 554 90" fill="none" xmlns="http://www.w3.org/2000/svg">
<rect width="554" height="90" fill="white"/>
<path d="M214.195 54V36.8672H217.828V54H214.195ZM229.301 40.6523C230.699 40.6523 231.824 41.0352 232.676 41.8008C233.527 42.5586 233.953 43.7773 233.953 45.457V54H230.379V46.3477C230.379 45.4102 230.207 44.7031 229.863 44.2266C229.527 43.75 228.996 43.5117 228.27 43.5117C227.176 43.5117 226.43 43.8828 226.031 44.625C225.633 45.3672 225.434 46.4375 225.434 47.8359V54H221.859V40.8984H224.59L225.07 42.5742H225.27C225.551 42.1211 225.898 41.7539 226.312 41.4727C226.734 41.1914 227.199 40.9844 227.707 40.8516C228.223 40.7188 228.754 40.6523 229.301 40.6523ZM245.074 40.6523C246.473 40.6523 247.598 41.0352 248.449 41.8008C249.301 42.5586 249.727 43.7773 249.727 45.457V54H246.152V46.3477C246.152 45.4102 245.98 44.7031 245.637 44.2266C245.301 43.75 244.77 43.5117 244.043 43.5117C242.949 43.5117 242.203 43.8828 241.805 44.625C241.406 45.3672 241.207 46.4375 241.207 47.8359V54H237.633V40.8984H240.363L240.844 42.5742H241.043C241.324 42.1211 241.672 41.7539 242.086 41.4727C242.508 41.1914 242.973 40.9844 243.48 40.8516C243.996 40.7188 244.527 40.6523 245.074 40.6523ZM265.312 47.4258C265.312 48.5195 265.164 49.4883 264.867 50.332C264.578 51.1758 264.152 51.8906 263.59 52.4766C263.035 53.0547 262.363 53.4922 261.574 53.7891C260.793 54.0859 259.91 54.2344 258.926 54.2344C258.004 54.2344 257.156 54.0859 256.383 53.7891C255.617 53.4922 254.949 53.0547 254.379 52.4766C253.816 51.8906 253.379 51.1758 253.066 50.332C252.762 49.4883 252.609 48.5195 252.609 47.4258C252.609 45.9727 252.867 44.7422 253.383 43.7344C253.898 42.7266 254.633 41.9609 255.586 41.4375C256.539 40.9141 257.676 40.6523 258.996 40.6523C260.223 40.6523 261.309 40.9141 262.254 41.4375C263.207 41.9609 263.953 42.7266 264.492 43.7344C265.039 44.7422 265.312 45.9727 265.312 47.4258ZM256.254 47.4258C256.254 48.2852 256.348 49.0078 256.535 49.5938C256.723 50.1797 257.016 50.6211 257.414 50.918C257.812 51.2148 258.332 51.3633 258.973 51.3633C259.605 51.3633 260.117 51.2148 260.508 50.918C260.906 50.6211 261.195 50.1797 261.375 49.5938C261.562 49.0078 261.656 48.2852 261.656 47.4258C261.656 46.5586 261.562 45.8398 261.375 45.2695C261.195 44.6914 260.906 44.2578 260.508 43.9688C260.109 43.6797 259.59 43.5352 258.949 43.5352C258.004 43.5352 257.316 43.8594 256.887 44.5078C256.465 45.1562 256.254 46.1289 256.254 47.4258ZM271.383 54L266.391 40.8984H270.129L272.66 48.3633C272.801 48.8008 272.91 49.2617 272.988 49.7461C273.074 50.2305 273.133 50.6641 273.164 51.0469H273.258C273.281 50.6328 273.336 50.1914 273.422 49.7227C273.516 49.2539 273.637 48.8008 273.785 48.3633L276.305 40.8984H280.043L275.051 54H271.383ZM287.297 40.6289C289.055 40.6289 290.402 41.0117 291.34 41.7773C292.277 42.543 292.746 43.707 292.746 45.2695V54H290.25L289.559 52.2188H289.465C289.09 52.6875 288.707 53.0703 288.316 53.3672C287.926 53.6641 287.477 53.8828 286.969 54.0234C286.461 54.1641 285.844 54.2344 285.117 54.2344C284.344 54.2344 283.648 54.0859 283.031 53.7891C282.422 53.4922 281.941 53.0391 281.59 52.4297C281.238 51.8125 281.062 51.0312 281.062 50.0859C281.062 48.6953 281.551 47.6719 282.527 47.0156C283.504 46.3516 284.969 45.9844 286.922 45.9141L289.195 45.8438V45.2695C289.195 44.582 289.016 44.0781 288.656 43.7578C288.297 43.4375 287.797 43.2773 287.156 43.2773C286.523 43.2773 285.902 43.3672 285.293 43.5469C284.684 43.7266 284.074 43.9531 283.465 44.2266L282.281 41.8125C282.977 41.4453 283.754 41.1562 284.613 40.9453C285.48 40.7344 286.375 40.6289 287.297 40.6289ZM289.195 47.9297L287.812 47.9766C286.656 48.0078 285.852 48.2148 285.398 48.5977C284.953 48.9805 284.73 49.4844 284.73 50.1094C284.73 50.6562 284.891 51.0469 285.211 51.2812C285.531 51.5078 285.949 51.6211 286.465 51.6211C287.23 51.6211 287.875 51.3945 288.398 50.9414C288.93 50.4883 289.195 49.8438 289.195 49.0078V47.9297ZM301.957 51.3867C302.348 51.3867 302.727 51.3477 303.094 51.2695C303.469 51.1914 303.84 51.0938 304.207 50.9766V53.6367C303.824 53.8086 303.348 53.9492 302.777 54.0586C302.215 54.1758 301.598 54.2344 300.926 54.2344C300.145 54.2344 299.441 54.1094 298.816 53.8594C298.199 53.6016 297.711 53.1602 297.352 52.5352C297 51.9023 296.824 51.0234 296.824 49.8984V43.582H295.113V42.0703L297.082 40.875L298.113 38.1094H300.398V40.8984H304.066V43.582H300.398V49.8984C300.398 50.3984 300.539 50.7734 300.82 51.0234C301.109 51.2656 301.488 51.3867 301.957 51.3867ZM310.441 40.8984V54H306.867V40.8984H310.441ZM308.66 35.7656C309.191 35.7656 309.648 35.8906 310.031 36.1406C310.414 36.3828 310.605 36.8398 310.605 37.5117C310.605 38.1758 310.414 38.6367 310.031 38.8945C309.648 39.1445 309.191 39.2695 308.66 39.2695C308.121 39.2695 307.66 39.1445 307.277 38.8945C306.902 38.6367 306.715 38.1758 306.715 37.5117C306.715 36.8398 306.902 36.3828 307.277 36.1406C307.66 35.8906 308.121 35.7656 308.66 35.7656ZM326.109 47.4258C326.109 48.5195 325.961 49.4883 325.664 50.332C325.375 51.1758 324.949 51.8906 324.387 52.4766C323.832 53.0547 323.16 53.4922 322.371 53.7891C321.59 54.0859 320.707 54.2344 319.723 54.2344C318.801 54.2344 317.953 54.0859 317.18 53.7891C316.414 53.4922 315.746 53.0547 315.176 52.4766C314.613 51.8906 314.176 51.1758 313.863 50.332C313.559 49.4883 313.406 48.5195 313.406 47.4258C313.406 45.9727 313.664 44.7422 314.18 43.7344C314.695 42.7266 315.43 41.9609 316.383 41.4375C317.336 40.9141 318.473 40.6523 319.793 40.6523C321.02 40.6523 322.105 40.9141 323.051 41.4375C324.004 41.9609 324.75 42.7266 325.289 43.7344C325.836 44.7422 326.109 45.9727 326.109 47.4258ZM317.051 47.4258C317.051 48.2852 317.145 49.0078 317.332 49.5938C317.52 50.1797 317.812 50.6211 318.211 50.918C318.609 51.2148 319.129 51.3633 319.77 51.3633C320.402 51.3633 320.914 51.2148 321.305 50.918C321.703 50.6211 321.992 50.1797 322.172 49.5938C322.359 49.0078 322.453 48.2852 322.453 47.4258C322.453 46.5586 322.359 45.8398 322.172 45.2695C321.992 44.6914 321.703 44.2578 321.305 43.9688C320.906 43.6797 320.387 43.5352 319.746 43.5352C318.801 43.5352 318.113 43.8594 317.684 44.5078C317.262 45.1562 317.051 46.1289 317.051 47.4258ZM336.504 40.6523C337.902 40.6523 339.027 41.0352 339.879 41.8008C340.73 42.5586 341.156 43.7773 341.156 45.457V54H337.582V46.3477C337.582 45.4102 337.41 44.7031 337.066 44.2266C336.73 43.75 336.199 43.5117 335.473 43.5117C334.379 43.5117 333.633 43.8828 333.234 44.625C332.836 45.3672 332.637 46.4375 332.637 47.8359V54H329.062V40.8984H331.793L332.273 42.5742H332.473C332.754 42.1211 333.102 41.7539 333.516 41.4727C333.938 41.1914 334.402 40.9844 334.91 40.8516C335.426 40.7188 335.957 40.6523 336.504 40.6523Z" fill="#032D6C"/>
<rect width="90" height="90" fill="#E6EDF8"/>
<g clip-path="url(#clip0_385_1331)">
<path d="M46.8329 49.8169C45.5979 48.6402 43.8329 48.2652 42.2264 48.8392C40.2516 49.5445 38.9248 51.4272 38.9248 53.5241V55.1981C38.9248 57.455 40.761 59.2912 43.0179 59.2912C44.5125 59.2912 45.8875 58.4772 46.6065 57.1668L47.6715 55.2254C48.6492 53.4434 48.3044 51.2193 46.8329 49.8169ZM45.8221 54.2109L44.7571 56.1524C44.4087 56.7874 43.7423 57.182 43.0179 57.182C41.9241 57.182 41.0342 56.292 41.0342 55.1982V53.5242C41.0342 52.3164 41.7984 51.2321 42.9358 50.8257C43.1997 50.7314 43.4717 50.6855 43.7408 50.6855C44.3402 50.6855 44.9259 50.9135 45.3776 51.344C46.1576 52.0873 46.3405 53.2662 45.8221 54.2109Z" fill="#032D6C"/>
<path d="M62.0348 67.2374L59.0892 70.1831C58.6773 70.5949 58.6772 71.2628 59.0892 71.6747C59.2952 71.8806 59.5651 71.9836 59.835 71.9836C60.1049 71.9836 60.3749 71.8806 60.5807 71.6747L63.5264 68.7291C63.9382 68.3172 63.9383 67.6494 63.5264 67.2374C63.1145 66.8258 62.4467 66.8258 62.0348 67.2374Z" fill="#032D6C"/>
<path d="M70.7152 44.2618C69.8985 43.5749 68.8274 43.2855 67.7758 43.4687C66.0444 43.7698 64.7878 45.2639 64.7878 47.0214V49.0948C63.5308 46.378 61.7151 43.9245 59.433 41.9061L61.305 39.5304C62.1694 39.9858 63.1526 40.2451 64.1955 40.2451C67.2705 40.2451 69.8867 37.9608 70.3453 34.965C71.3868 34.0188 71.9965 32.6598 71.9965 31.2429C71.9965 28.474 69.7438 26.2214 66.9749 26.2214C65.558 26.2214 64.199 26.8311 63.2529 27.8726C60.2571 28.3312 57.9728 30.9474 57.9728 34.0224C57.9728 35.6516 58.603 37.1358 59.6313 38.2462L57.7871 40.5866C54.3667 38.107 50.2927 36.6726 46.0546 36.4679V33.541C47.0011 34.0877 48.0843 34.3838 49.2201 34.3838C52.7153 34.3838 55.5588 31.5402 55.5588 28.045C55.5588 25.3171 53.8296 22.9265 51.2913 22.0529C50.1747 19.616 47.7114 18.0134 44.9999 18.0134C42.2885 18.0134 39.8252 19.6159 38.7086 22.0529C36.1703 22.9264 34.4411 25.317 34.4411 28.045C34.4411 31.5402 37.2846 34.3838 40.7798 34.3838C41.9156 34.3838 42.9988 34.0877 43.9452 33.541V36.4678C39.7075 36.6725 35.6332 38.1068 32.2128 40.5864L30.3687 38.2461C31.397 37.1357 32.0272 35.6515 32.0272 34.0223C32.0272 30.9474 29.7429 28.3311 26.7471 27.8725C25.801 26.831 24.442 26.2213 23.0251 26.2213C20.2562 26.2213 18.0035 28.4739 18.0035 31.2428C18.0035 32.6597 18.6132 34.0187 19.6547 34.9648C20.1133 37.9606 22.7295 40.245 25.8044 40.245C26.8474 40.245 27.8306 39.9857 28.695 39.5303L30.567 41.906C28.2851 43.9242 26.4692 46.3777 25.2122 49.0945V47.0213C25.2122 45.264 23.9556 43.7698 22.2241 43.4685C21.1727 43.2859 20.1015 43.5748 19.2848 44.2617C18.4683 44.9485 18 45.9544 18 47.0214V53.0182C18 57.6854 19.8175 62.0731 23.1176 65.3733L29.4191 71.6748C29.6251 71.8806 29.895 71.9837 30.1649 71.9837C30.4348 71.9837 30.7048 71.8806 30.9107 71.6748C31.3225 71.2629 31.3225 70.5951 30.9107 70.1831L24.6091 63.8816C21.7075 60.9799 20.1094 57.1218 20.1094 53.0182V47.0214C20.1094 46.5787 20.3038 46.1611 20.6428 45.8761C20.9816 45.5909 21.4262 45.4712 21.8627 45.5468C22.5813 45.6719 23.1029 46.292 23.1029 47.0214V53.7175C23.1029 55.8699 23.9412 57.8937 25.4633 59.4158L31.1837 65.1363L31.6089 65.5614C32.0208 65.9732 32.6886 65.9733 33.1005 65.5614C33.5124 65.1496 33.5124 64.4817 33.1005 64.0698L27.1163 58.0855C26.4145 57.3838 26.4145 56.242 27.1163 55.5402C27.818 54.8384 28.9599 54.8384 29.6616 55.5402L34.4572 60.3358C34.6549 60.5336 34.9233 60.6447 35.203 60.6447C37.2464 60.6447 39.1676 61.4405 40.6125 62.8854C42.7618 65.0347 43.9455 67.8923 43.9455 70.9318C43.9455 71.5142 44.4176 71.9865 45.0002 71.9865C45.5827 71.9865 46.0549 71.5142 46.0549 70.9318C46.0549 67.8923 47.2385 65.0347 49.3878 62.8854C50.8326 61.4405 52.7538 60.6447 54.7972 60.6447C55.077 60.6447 55.3453 60.5336 55.543 60.3358L60.3385 55.5402C61.0403 54.8384 62.1821 54.8386 62.8839 55.5402C63.5857 56.2419 63.5857 57.3837 62.8839 58.0855L56.8997 64.0698C56.4878 64.4816 56.4878 65.1495 56.8997 65.5614C57.1057 65.7673 57.3756 65.8703 57.6455 65.8703C57.9154 65.8703 58.1854 65.7673 58.3912 65.5614L58.8164 65.1363L64.5369 59.4158C66.0589 57.8936 66.8972 55.8699 66.8972 53.7175V47.0214C66.8972 46.292 67.4187 45.6718 68.1373 45.5469C68.5734 45.4709 69.0184 45.5908 69.3572 45.8761C69.6962 46.1611 69.8906 46.5787 69.8906 47.0214V53.0182C69.8906 55.5593 69.2522 58.0842 68.0444 60.3202C67.7675 60.8327 67.9586 61.4727 68.4711 61.7495C68.9832 62.026 69.6233 61.8353 69.9003 61.3228C71.2739 58.7798 72 55.9081 72 53.0182V47.0214C72 45.9544 71.5317 44.9485 70.7152 44.2618ZM63.8755 29.9229C64.1789 29.8996 64.4575 29.7463 64.6397 29.5025C65.1958 28.7577 66.047 28.3308 66.9748 28.3308C68.5807 28.3308 69.887 29.6373 69.887 31.2429C69.887 32.1707 69.46 33.0218 68.7152 33.5781C68.4714 33.7604 68.3182 34.0389 68.2948 34.3424C68.1316 36.4695 66.3308 38.1357 64.1954 38.1357C61.9273 38.1357 60.0821 36.2905 60.0821 34.0224C60.0822 31.8869 61.7483 30.0862 63.8755 29.9229ZM36.5504 28.045C36.5504 26.1014 37.8653 24.4146 39.7481 23.9428C40.0874 23.8578 40.3625 23.6101 40.4825 23.2814C41.1723 21.3922 42.9877 20.1228 44.9999 20.1228C47.0122 20.1228 48.8277 21.3922 49.5174 23.2814C49.6375 23.61 49.9125 23.8578 50.2518 23.9428C52.1346 24.4146 53.4494 26.1014 53.4494 28.045C53.4494 30.377 51.5522 32.2744 49.2201 32.2744C48.0933 32.2744 47.0436 31.8379 46.2574 31.0616L48.1669 29.1521C48.5787 28.7402 48.5787 28.0724 48.1669 27.6604C47.755 27.2487 47.0872 27.2487 46.6752 27.6604L46.0545 28.2811V24.7332C46.0545 24.1508 45.5824 23.6785 44.9998 23.6785C44.4173 23.6785 43.9451 24.1508 43.9451 24.7332V29.345L42.2651 27.665C41.8533 27.2532 41.1854 27.2532 40.7735 27.665C40.3616 28.0768 40.3616 28.7447 40.7735 29.1566L43.1594 31.5426C42.4681 32.0152 41.6469 32.2743 40.7796 32.2743C38.4477 32.2743 36.5504 30.377 36.5504 28.045ZM21.705 34.3424C21.6817 34.0389 21.5285 33.7603 21.2846 33.5781C20.5399 33.0219 20.1129 32.1707 20.1129 31.2429C20.1129 29.6371 21.4193 28.3308 23.0251 28.3308C23.9529 28.3308 24.8041 28.7578 25.3602 29.5025C25.5424 29.7464 25.821 29.8997 26.1244 29.9229C28.2516 30.0862 29.9178 31.8868 29.9178 34.0223C29.9178 36.2904 28.0726 38.1356 25.8044 38.1356C23.6691 38.1357 21.8684 36.4695 21.705 34.3424ZM25.7982 53.8862C26.4201 51.136 27.6196 48.6142 29.2547 46.4443H32.2994C33.7347 46.4443 34.9025 47.6119 34.9025 49.0474C34.9025 49.8686 34.5086 50.6505 33.8486 51.1392C32.7317 51.9665 31.9357 53.146 31.5651 54.4608L31.153 54.0488C29.6853 52.581 27.3316 52.5274 25.7982 53.8862ZM54.3503 58.5454C51.9112 58.6545 49.6337 59.6563 47.8961 61.3939C46.6437 62.6463 45.6685 64.102 45.0001 65.6862C44.3316 64.102 43.3564 62.6462 42.1041 61.3939C40.3664 59.6563 38.0889 58.6545 35.6498 58.5454L33.4395 56.335V56.1386C33.4395 54.8415 34.0618 53.6062 35.1041 52.8342C36.2988 51.9495 37.0119 50.5338 37.0119 49.0473C37.0119 46.4488 34.8979 44.3348 32.2994 44.3348H31.0903C34.6831 40.7507 39.6316 38.551 45.0001 38.551C48.6724 38.551 52.1476 39.5795 55.1269 41.376C52.0887 42.2899 49.8685 45.1119 49.8685 48.444C49.8685 50.9636 51.1329 53.2826 53.2508 54.6476L55.4443 56.061C55.7232 56.2407 55.9684 56.4651 56.1726 56.7227L54.3503 58.5454ZM58.8469 54.0488L57.6699 55.2258C57.3558 54.8659 56.9924 54.5494 56.5871 54.2882L54.3935 52.8748C52.881 51.8999 51.9779 50.2436 51.9779 48.4442C51.9779 45.5378 54.3424 43.1732 57.2488 43.1732H57.6416C60.8697 45.8809 63.2346 49.6072 64.202 53.8863C62.6686 52.5274 60.3148 52.5809 58.8469 54.0488Z" fill="#032D6C"/>
<path d="M66.1372 63.5732C65.8588 63.5732 65.5867 63.6851 65.3905 63.8812C65.1943 64.0774 65.0825 64.3495 65.0825 64.6279C65.0825 64.9053 65.1943 65.1764 65.3905 65.3736C65.5877 65.5698 65.8588 65.6826 66.1372 65.6826C66.4146 65.6826 66.6856 65.5699 66.8829 65.3736C67.079 65.1764 67.1919 64.9053 67.1919 64.6279C67.1919 64.3495 67.079 64.0784 66.8829 63.8812C66.6856 63.6851 66.4147 63.5732 66.1372 63.5732Z" fill="#032D6C"/>
</g>
<defs>
<clipPath id="clip0_385_1331">
<rect width="54" height="54" fill="white" transform="translate(18 18)"/>
</clipPath>
</defs>
</svg>
