<svg width="554" height="90" viewBox="0 0 554 90" fill="none" xmlns="http://www.w3.org/2000/svg">
<rect width="554" height="90" fill="white"/>
<path d="M224.785 39.6445C224.09 39.6445 223.473 39.7812 222.934 40.0547C222.402 40.3203 221.953 40.707 221.586 41.2148C221.227 41.7227 220.953 42.3359 220.766 43.0547C220.578 43.7734 220.484 44.582 220.484 45.4805C220.484 46.6914 220.633 47.7266 220.93 48.5859C221.234 49.4375 221.703 50.0898 222.336 50.543C222.969 50.9883 223.785 51.2109 224.785 51.2109C225.48 51.2109 226.176 51.1328 226.871 50.9766C227.574 50.8203 228.336 50.5977 229.156 50.3086V53.3555C228.398 53.668 227.652 53.8906 226.918 54.0234C226.184 54.1641 225.359 54.2344 224.445 54.2344C222.68 54.2344 221.227 53.8711 220.086 53.1445C218.953 52.4102 218.113 51.3867 217.566 50.0742C217.02 48.7539 216.746 47.2148 216.746 45.457C216.746 44.1602 216.922 42.9727 217.273 41.8945C217.625 40.8164 218.141 39.8828 218.82 39.0938C219.5 38.3047 220.34 37.6953 221.34 37.2656C222.34 36.8359 223.488 36.6211 224.785 36.6211C225.637 36.6211 226.488 36.7305 227.34 36.9492C228.199 37.1602 229.02 37.4531 229.801 37.8281L228.629 40.7812C227.988 40.4766 227.344 40.2109 226.695 39.9844C226.047 39.7578 225.41 39.6445 224.785 39.6445ZM244.438 47.4258C244.438 48.5195 244.289 49.4883 243.992 50.332C243.703 51.1758 243.277 51.8906 242.715 52.4766C242.16 53.0547 241.488 53.4922 240.699 53.7891C239.918 54.0859 239.035 54.2344 238.051 54.2344C237.129 54.2344 236.281 54.0859 235.508 53.7891C234.742 53.4922 234.074 53.0547 233.504 52.4766C232.941 51.8906 232.504 51.1758 232.191 50.332C231.887 49.4883 231.734 48.5195 231.734 47.4258C231.734 45.9727 231.992 44.7422 232.508 43.7344C233.023 42.7266 233.758 41.9609 234.711 41.4375C235.664 40.9141 236.801 40.6523 238.121 40.6523C239.348 40.6523 240.434 40.9141 241.379 41.4375C242.332 41.9609 243.078 42.7266 243.617 43.7344C244.164 44.7422 244.438 45.9727 244.438 47.4258ZM235.379 47.4258C235.379 48.2852 235.473 49.0078 235.66 49.5938C235.848 50.1797 236.141 50.6211 236.539 50.918C236.938 51.2148 237.457 51.3633 238.098 51.3633C238.73 51.3633 239.242 51.2148 239.633 50.918C240.031 50.6211 240.32 50.1797 240.5 49.5938C240.688 49.0078 240.781 48.2852 240.781 47.4258C240.781 46.5586 240.688 45.8398 240.5 45.2695C240.32 44.6914 240.031 44.2578 239.633 43.9688C239.234 43.6797 238.715 43.5352 238.074 43.5352C237.129 43.5352 236.441 43.8594 236.012 44.5078C235.59 45.1562 235.379 46.1289 235.379 47.4258ZM262.777 40.6523C264.262 40.6523 265.383 41.0352 266.141 41.8008C266.906 42.5586 267.289 43.7773 267.289 45.457V54H263.703V46.3477C263.703 45.4102 263.543 44.7031 263.223 44.2266C262.902 43.75 262.406 43.5117 261.734 43.5117C260.789 43.5117 260.117 43.8516 259.719 44.5312C259.32 45.2031 259.121 46.168 259.121 47.4258V54H255.547V46.3477C255.547 45.7227 255.477 45.1992 255.336 44.7773C255.195 44.3555 254.98 44.0391 254.691 43.8281C254.402 43.6172 254.031 43.5117 253.578 43.5117C252.914 43.5117 252.391 43.6797 252.008 44.0156C251.633 44.3438 251.363 44.832 251.199 45.4805C251.043 46.1211 250.965 46.9062 250.965 47.8359V54H247.391V40.8984H250.121L250.602 42.5742H250.801C251.066 42.1211 251.398 41.7539 251.797 41.4727C252.203 41.1914 252.648 40.9844 253.133 40.8516C253.617 40.7188 254.109 40.6523 254.609 40.6523C255.57 40.6523 256.383 40.8086 257.047 41.1211C257.719 41.4336 258.234 41.918 258.594 42.5742H258.91C259.301 41.9023 259.852 41.4141 260.562 41.1094C261.281 40.8047 262.02 40.6523 262.777 40.6523ZM286.355 40.6523C287.84 40.6523 288.961 41.0352 289.719 41.8008C290.484 42.5586 290.867 43.7773 290.867 45.457V54H287.281V46.3477C287.281 45.4102 287.121 44.7031 286.801 44.2266C286.48 43.75 285.984 43.5117 285.312 43.5117C284.367 43.5117 283.695 43.8516 283.297 44.5312C282.898 45.2031 282.699 46.168 282.699 47.4258V54H279.125V46.3477C279.125 45.7227 279.055 45.1992 278.914 44.7773C278.773 44.3555 278.559 44.0391 278.27 43.8281C277.98 43.6172 277.609 43.5117 277.156 43.5117C276.492 43.5117 275.969 43.6797 275.586 44.0156C275.211 44.3438 274.941 44.832 274.777 45.4805C274.621 46.1211 274.543 46.9062 274.543 47.8359V54H270.969V40.8984H273.699L274.18 42.5742H274.379C274.645 42.1211 274.977 41.7539 275.375 41.4727C275.781 41.1914 276.227 40.9844 276.711 40.8516C277.195 40.7188 277.688 40.6523 278.188 40.6523C279.148 40.6523 279.961 40.8086 280.625 41.1211C281.297 41.4336 281.812 41.918 282.172 42.5742H282.488C282.879 41.9023 283.43 41.4141 284.141 41.1094C284.859 40.8047 285.598 40.6523 286.355 40.6523ZM306.57 40.8984V54H303.828L303.348 52.3242H303.16C302.879 52.7695 302.527 53.1328 302.105 53.4141C301.684 53.6953 301.219 53.9023 300.711 54.0352C300.203 54.168 299.676 54.2344 299.129 54.2344C298.191 54.2344 297.375 54.0703 296.68 53.7422C295.984 53.4062 295.441 52.8867 295.051 52.1836C294.668 51.4805 294.477 50.5664 294.477 49.4414V40.8984H298.051V48.5508C298.051 49.4883 298.219 50.1953 298.555 50.6719C298.891 51.1484 299.426 51.3867 300.16 51.3867C300.887 51.3867 301.457 51.2227 301.871 50.8945C302.285 50.5586 302.574 50.0703 302.738 49.4297C302.91 48.7812 302.996 47.9922 302.996 47.0625V40.8984H306.57ZM317.762 40.6523C319.16 40.6523 320.285 41.0352 321.137 41.8008C321.988 42.5586 322.414 43.7773 322.414 45.457V54H318.84V46.3477C318.84 45.4102 318.668 44.7031 318.324 44.2266C317.988 43.75 317.457 43.5117 316.73 43.5117C315.637 43.5117 314.891 43.8828 314.492 44.625C314.094 45.3672 313.895 46.4375 313.895 47.8359V54H310.32V40.8984H313.051L313.531 42.5742H313.73C314.012 42.1211 314.359 41.7539 314.773 41.4727C315.195 41.1914 315.66 40.9844 316.168 40.8516C316.684 40.7188 317.215 40.6523 317.762 40.6523ZM329.668 40.8984V54H326.094V40.8984H329.668ZM327.887 35.7656C328.418 35.7656 328.875 35.8906 329.258 36.1406C329.641 36.3828 329.832 36.8398 329.832 37.5117C329.832 38.1758 329.641 38.6367 329.258 38.8945C328.875 39.1445 328.418 39.2695 327.887 39.2695C327.348 39.2695 326.887 39.1445 326.504 38.8945C326.129 38.6367 325.941 38.1758 325.941 37.5117C325.941 36.8398 326.129 36.3828 326.504 36.1406C326.887 35.8906 327.348 35.7656 327.887 35.7656ZM338.949 51.3867C339.34 51.3867 339.719 51.3477 340.086 51.2695C340.461 51.1914 340.832 51.0938 341.199 50.9766V53.6367C340.816 53.8086 340.34 53.9492 339.77 54.0586C339.207 54.1758 338.59 54.2344 337.918 54.2344C337.137 54.2344 336.434 54.1094 335.809 53.8594C335.191 53.6016 334.703 53.1602 334.344 52.5352C333.992 51.9023 333.816 51.0234 333.816 49.8984V43.582H332.105V42.0703L334.074 40.875L335.105 38.1094H337.391V40.8984H341.059V43.582H337.391V49.8984C337.391 50.3984 337.531 50.7734 337.812 51.0234C338.102 51.2656 338.48 51.3867 338.949 51.3867ZM341.984 40.8984H345.898L348.371 48.2695C348.449 48.5039 348.516 48.7422 348.57 48.9844C348.625 49.2266 348.672 49.4766 348.711 49.7344C348.75 49.9922 348.781 50.2617 348.805 50.543H348.875C348.922 50.1211 348.984 49.7266 349.062 49.3594C349.148 48.9922 349.254 48.6289 349.379 48.2695L351.805 40.8984H355.637L350.094 55.6758C349.758 56.582 349.32 57.3359 348.781 57.9375C348.242 58.5469 347.621 59.0039 346.918 59.3086C346.223 59.6133 345.457 59.7656 344.621 59.7656C344.215 59.7656 343.863 59.7422 343.566 59.6953C343.27 59.6562 343.016 59.6133 342.805 59.5664V56.7305C342.969 56.7695 343.176 56.8047 343.426 56.8359C343.676 56.8672 343.938 56.8828 344.211 56.8828C344.711 56.8828 345.141 56.7773 345.5 56.5664C345.859 56.3555 346.16 56.0703 346.402 55.7109C346.645 55.3594 346.836 54.9727 346.977 54.5508L347.188 53.9062L341.984 40.8984Z" fill="#032D6C"/>
<rect width="90" height="90" fill="#E6EDF8"/>
<g clip-path="url(#clip0_385_1333)">
<path d="M66.9328 29.2519C67.466 28.5205 67.7818 27.6209 67.7818 26.6484C67.7818 24.2059 65.7946 22.2188 63.3521 22.2188C62.3797 22.2188 61.48 22.5345 60.7486 23.0678C56.1429 19.7501 50.7168 18 45 18C39.3919 18 34.0142 19.7035 29.4479 22.9263C28.972 23.2623 28.8585 23.9203 29.1945 24.3963C29.5304 24.8721 30.1885 24.9856 30.6644 24.6497C33.7145 22.4969 37.1584 21.0803 40.7913 20.4632C40.3684 21.0005 39.9436 21.6471 39.5244 22.4259C38.2448 24.8031 37.1889 28.0767 36.4528 31.9347C34.5164 32.074 32.9212 33.4624 32.4713 35.2969H22.0718C22.6848 33.8499 23.437 32.457 24.3249 31.1358C24.6497 30.6523 24.521 29.9971 24.0376 29.6722C23.5541 29.3473 22.8988 29.4759 22.574 29.9594C19.5816 34.4127 18 39.6137 18 45C18 50.7148 19.7503 56.1422 23.0675 60.7485C22.5344 61.4798 22.2188 62.3794 22.2188 63.3516C22.2188 65.7941 24.2059 67.7812 26.6484 67.7812C27.6208 67.7812 28.5203 67.4656 29.2516 66.9324C33.8576 70.2499 39.2846 72 45 72C52.212 72 58.9922 69.1915 64.092 64.0919C69.1915 58.9923 72 52.212 72 45C72 39.2838 70.2501 33.8578 66.9328 29.2519ZM68.7045 52.5938H57.4577C57.0964 51.1209 55.997 49.9358 54.5754 49.4534C54.6586 47.9882 54.7031 46.4953 54.7031 45C54.7031 42.3922 54.5768 39.8405 54.3332 37.4064H68.7176C69.4925 39.8316 69.8906 42.3828 69.8906 45C69.8906 47.6473 69.4736 50.1987 68.7045 52.5938ZM45 69.8906C43.2329 69.8906 41.3208 67.3194 39.8852 63.0126C39.0806 60.5985 38.4581 57.7785 38.038 54.7032H48.8539C49.1916 56.08 50.174 57.206 51.4621 57.741C49.8576 66.1242 47.0909 69.8906 45 69.8906ZM26.6484 58.9219C25.9432 58.9219 25.2763 59.0884 24.6839 59.3829C23.6351 57.9064 22.7602 56.3398 22.0658 54.7031H35.9113C36.3497 58.0219 37.0149 61.0721 37.884 63.6796C38.7198 66.187 39.693 68.1484 40.7771 69.5364C37.1238 68.9167 33.6766 67.4895 30.6171 65.3162C30.9116 64.7237 31.0781 64.0568 31.0781 63.3516C31.0781 60.909 29.091 58.9219 26.6484 58.9219ZM37.4062 45C37.4062 43.5609 37.4484 42.1249 37.5275 40.7156C39.2651 40.416 40.659 39.1017 41.0748 37.4062H52.2137C52.4638 39.8312 52.5938 42.3843 52.5938 45C52.5938 46.4344 52.5518 47.866 52.4731 49.2715C50.7021 49.5467 49.2755 50.8749 48.8539 52.5938H37.7861C37.5363 50.1689 37.4062 47.6158 37.4062 45ZM53.1558 55.9688C51.8764 55.9688 50.8355 54.9279 50.8355 53.6484C50.8355 52.369 51.8764 51.3281 53.1558 51.3281C54.4352 51.3281 55.4761 52.369 55.4761 53.6484C55.4761 54.9279 54.4352 55.9688 53.1558 55.9688ZM52.116 26.3204C51.2801 23.8129 50.3069 21.8514 49.2227 20.4634C52.8766 21.0831 56.3239 22.5101 59.3834 24.6838C59.0889 25.2763 58.9224 25.9432 58.9224 26.6484C58.9224 29.091 60.9095 31.0781 63.3521 31.0781C64.0574 31.0781 64.7241 30.9116 65.3167 30.6172C66.3655 32.0936 67.2401 33.6604 67.9344 35.297H54.0887C53.6503 31.9781 52.985 28.9279 52.116 26.3204ZM65.6724 26.6484C65.6724 27.9279 64.6315 28.9688 63.3521 28.9688C62.0726 28.9688 61.0318 27.9279 61.0318 26.6484C61.0318 25.369 62.0726 24.3281 63.3521 24.3281C64.6315 24.3281 65.6724 25.369 65.6724 26.6484ZM45 20.1094C46.7671 20.1094 48.6792 22.6806 50.1148 26.9874C50.9194 29.4015 51.5419 32.2216 51.962 35.2969H41.0749C40.743 33.9436 39.7882 32.8329 38.5326 32.2872C40.1357 23.8847 42.905 20.1094 45 20.1094ZM36.773 34.0314C38.0525 34.0314 39.0933 35.0722 39.0933 36.3517C39.0933 37.6311 38.0525 38.672 36.773 38.672C35.4936 38.672 34.4527 37.6311 34.4527 36.3517C34.4527 35.0722 35.4936 34.0314 36.773 34.0314ZM32.4713 37.4064C32.8384 38.9033 33.9678 40.1035 35.4232 40.5703C35.341 42.0277 35.2969 43.5125 35.2969 45C35.2969 47.6079 35.4232 50.1596 35.6668 52.5938H21.2829C20.5078 50.1681 20.1094 47.6168 20.1094 45C20.1094 42.3966 20.5107 39.8407 21.2893 37.4064H32.4713ZM24.3281 63.3516C24.3281 62.0721 25.369 61.0312 26.6484 61.0312C27.9279 61.0312 28.9688 62.0721 28.9688 63.3516C28.9688 64.631 27.9279 65.6719 26.6484 65.6719C25.369 65.6719 24.3281 64.631 24.3281 63.3516ZM49.2121 69.5325C49.6312 68.9993 50.0524 68.3588 50.468 67.5885C51.7515 65.2094 52.8108 61.9282 53.5485 58.0598C55.4523 57.8917 57.0134 56.5148 57.4577 54.7031H67.9211C64.6605 62.3762 57.6551 68.0872 49.2121 69.5325Z" fill="#032D6C"/>
<path d="M26.4438 27.9204C26.7224 27.9204 26.9933 27.8086 27.1906 27.6114C27.3867 27.4152 27.4985 27.1431 27.4985 26.8657C27.4985 26.5883 27.3867 26.3173 27.1906 26.1201C26.9933 25.9239 26.7224 25.811 26.4438 25.811C26.1665 25.811 25.8944 25.9239 25.6983 26.1201C25.5021 26.3173 25.3892 26.5883 25.3892 26.8657C25.3892 27.1431 25.502 27.4152 25.6983 27.6114C25.8944 27.8086 26.1665 27.9204 26.4438 27.9204Z" fill="#032D6C"/>
</g>
<defs>
<clipPath id="clip0_385_1333">
<rect width="54" height="54" fill="white" transform="translate(18 18)"/>
</clipPath>
</defs>
</svg>
