<svg width="554" height="90" viewBox="0 0 554 90" fill="none" xmlns="http://www.w3.org/2000/svg">
<rect width="554" height="90" fill="white"/>
<path d="M193.289 49.2422C193.289 50.2578 193.043 51.1406 192.551 51.8906C192.059 52.6406 191.34 53.2188 190.395 53.625C189.457 54.0312 188.316 54.2344 186.973 54.2344C186.379 54.2344 185.797 54.1953 185.227 54.1172C184.664 54.0391 184.121 53.9258 183.598 53.7773C183.082 53.6211 182.59 53.4297 182.121 53.2031V49.8281C182.934 50.1875 183.777 50.5117 184.652 50.8008C185.527 51.0898 186.395 51.2344 187.254 51.2344C187.848 51.2344 188.324 51.1562 188.684 51C189.051 50.8438 189.316 50.6289 189.48 50.3555C189.645 50.082 189.727 49.7695 189.727 49.418C189.727 48.9883 189.582 48.6211 189.293 48.3164C189.004 48.0117 188.605 47.7266 188.098 47.4609C187.598 47.1953 187.031 46.9102 186.398 46.6055C186 46.418 185.566 46.1914 185.098 45.9258C184.629 45.6523 184.184 45.3203 183.762 44.9297C183.34 44.5391 182.992 44.0664 182.719 43.5117C182.453 42.9492 182.32 42.2773 182.32 41.4961C182.32 40.4727 182.555 39.5977 183.023 38.8711C183.492 38.1445 184.16 37.5898 185.027 37.207C185.902 36.8164 186.934 36.6211 188.121 36.6211C189.012 36.6211 189.859 36.7266 190.664 36.9375C191.477 37.1406 192.324 37.4375 193.207 37.8281L192.035 40.6523C191.246 40.332 190.539 40.0859 189.914 39.9141C189.289 39.7344 188.652 39.6445 188.004 39.6445C187.551 39.6445 187.164 39.7188 186.844 39.8672C186.523 40.0078 186.281 40.2109 186.117 40.4766C185.953 40.7344 185.871 41.0352 185.871 41.3789C185.871 41.7852 185.988 42.1289 186.223 42.4102C186.465 42.6836 186.824 42.9492 187.301 43.207C187.785 43.4648 188.387 43.7656 189.105 44.1094C189.98 44.5234 190.727 44.957 191.344 45.4102C191.969 45.8555 192.449 46.3828 192.785 46.9922C193.121 47.5938 193.289 48.3438 193.289 49.2422ZM201.633 51.3867C202.023 51.3867 202.402 51.3477 202.77 51.2695C203.145 51.1914 203.516 51.0938 203.883 50.9766V53.6367C203.5 53.8086 203.023 53.9492 202.453 54.0586C201.891 54.1758 201.273 54.2344 200.602 54.2344C199.82 54.2344 199.117 54.1094 198.492 53.8594C197.875 53.6016 197.387 53.1602 197.027 52.5352C196.676 51.9023 196.5 51.0234 196.5 49.8984V43.582H194.789V42.0703L196.758 40.875L197.789 38.1094H200.074V40.8984H203.742V43.582H200.074V49.8984C200.074 50.3984 200.215 50.7734 200.496 51.0234C200.785 51.2656 201.164 51.3867 201.633 51.3867ZM218.566 40.8984V54H215.824L215.344 52.3242H215.156C214.875 52.7695 214.523 53.1328 214.102 53.4141C213.68 53.6953 213.215 53.9023 212.707 54.0352C212.199 54.168 211.672 54.2344 211.125 54.2344C210.188 54.2344 209.371 54.0703 208.676 53.7422C207.98 53.4062 207.438 52.8867 207.047 52.1836C206.664 51.4805 206.473 50.5664 206.473 49.4414V40.8984H210.047V48.5508C210.047 49.4883 210.215 50.1953 210.551 50.6719C210.887 51.1484 211.422 51.3867 212.156 51.3867C212.883 51.3867 213.453 51.2227 213.867 50.8945C214.281 50.5586 214.57 50.0703 214.734 49.4297C214.906 48.7812 214.992 47.9922 214.992 47.0625V40.8984H218.566ZM226.465 54.2344C225.004 54.2344 223.812 53.6641 222.891 52.5234C221.977 51.375 221.52 49.6914 221.52 47.4727C221.52 45.2305 221.984 43.5352 222.914 42.3867C223.844 41.2305 225.059 40.6523 226.559 40.6523C227.184 40.6523 227.734 40.7383 228.211 40.9102C228.688 41.082 229.098 41.3125 229.441 41.6016C229.793 41.8906 230.09 42.2148 230.332 42.5742H230.449C230.402 42.3242 230.344 41.957 230.273 41.4727C230.211 40.9805 230.18 40.4766 230.18 39.9609V35.7656H233.766V54H231.023L230.332 52.3008H230.18C229.953 52.6602 229.668 52.9883 229.324 53.2852C228.988 53.5742 228.586 53.8047 228.117 53.9766C227.648 54.1484 227.098 54.2344 226.465 54.2344ZM227.719 51.3867C228.695 51.3867 229.383 51.0977 229.781 50.5195C230.188 49.9336 230.402 49.0547 230.426 47.8828V47.4961C230.426 46.2227 230.23 45.25 229.84 44.5781C229.449 43.8984 228.723 43.5586 227.66 43.5586C226.871 43.5586 226.254 43.8984 225.809 44.5781C225.363 45.2578 225.141 46.2383 225.141 47.5195C225.141 48.8008 225.363 49.7656 225.809 50.4141C226.262 51.0625 226.898 51.3867 227.719 51.3867ZM242.906 40.6523C244.117 40.6523 245.16 40.8867 246.035 41.3555C246.91 41.8164 247.586 42.4883 248.062 43.3711C248.539 44.2539 248.777 45.332 248.777 46.6055V48.3398H240.328C240.367 49.3477 240.668 50.1406 241.23 50.7188C241.801 51.2891 242.59 51.5742 243.598 51.5742C244.434 51.5742 245.199 51.4883 245.895 51.3164C246.59 51.1445 247.305 50.8867 248.039 50.543V53.3086C247.391 53.6289 246.711 53.8633 246 54.0117C245.297 54.1602 244.441 54.2344 243.434 54.2344C242.121 54.2344 240.957 53.9922 239.941 53.5078C238.934 53.0234 238.141 52.2852 237.562 51.293C236.992 50.3008 236.707 49.0508 236.707 47.543C236.707 46.0117 236.965 44.7383 237.48 43.7227C238.004 42.6992 238.73 41.9336 239.66 41.4258C240.59 40.9102 241.672 40.6523 242.906 40.6523ZM242.93 43.1953C242.234 43.1953 241.656 43.418 241.195 43.8633C240.742 44.3086 240.48 45.0078 240.41 45.9609H245.426C245.418 45.4297 245.32 44.957 245.133 44.543C244.953 44.1289 244.68 43.8008 244.312 43.5586C243.953 43.3164 243.492 43.1953 242.93 43.1953ZM259.125 40.6523C260.523 40.6523 261.648 41.0352 262.5 41.8008C263.352 42.5586 263.777 43.7773 263.777 45.457V54H260.203V46.3477C260.203 45.4102 260.031 44.7031 259.688 44.2266C259.352 43.75 258.82 43.5117 258.094 43.5117C257 43.5117 256.254 43.8828 255.855 44.625C255.457 45.3672 255.258 46.4375 255.258 47.8359V54H251.684V40.8984H254.414L254.895 42.5742H255.094C255.375 42.1211 255.723 41.7539 256.137 41.4727C256.559 41.1914 257.023 40.9844 257.531 40.8516C258.047 40.7188 258.578 40.6523 259.125 40.6523ZM272.977 51.3867C273.367 51.3867 273.746 51.3477 274.113 51.2695C274.488 51.1914 274.859 51.0938 275.227 50.9766V53.6367C274.844 53.8086 274.367 53.9492 273.797 54.0586C273.234 54.1758 272.617 54.2344 271.945 54.2344C271.164 54.2344 270.461 54.1094 269.836 53.8594C269.219 53.6016 268.73 53.1602 268.371 52.5352C268.02 51.9023 267.844 51.0234 267.844 49.8984V43.582H266.133V42.0703L268.102 40.875L269.133 38.1094H271.418V40.8984H275.086V43.582H271.418V49.8984C271.418 50.3984 271.559 50.7734 271.84 51.0234C272.129 51.2656 272.508 51.3867 272.977 51.3867ZM294.516 49.2422C294.516 50.2578 294.27 51.1406 293.777 51.8906C293.285 52.6406 292.566 53.2188 291.621 53.625C290.684 54.0312 289.543 54.2344 288.199 54.2344C287.605 54.2344 287.023 54.1953 286.453 54.1172C285.891 54.0391 285.348 53.9258 284.824 53.7773C284.309 53.6211 283.816 53.4297 283.348 53.2031V49.8281C284.16 50.1875 285.004 50.5117 285.879 50.8008C286.754 51.0898 287.621 51.2344 288.48 51.2344C289.074 51.2344 289.551 51.1562 289.91 51C290.277 50.8438 290.543 50.6289 290.707 50.3555C290.871 50.082 290.953 49.7695 290.953 49.418C290.953 48.9883 290.809 48.6211 290.52 48.3164C290.23 48.0117 289.832 47.7266 289.324 47.4609C288.824 47.1953 288.258 46.9102 287.625 46.6055C287.227 46.418 286.793 46.1914 286.324 45.9258C285.855 45.6523 285.41 45.3203 284.988 44.9297C284.566 44.5391 284.219 44.0664 283.945 43.5117C283.68 42.9492 283.547 42.2773 283.547 41.4961C283.547 40.4727 283.781 39.5977 284.25 38.8711C284.719 38.1445 285.387 37.5898 286.254 37.207C287.129 36.8164 288.16 36.6211 289.348 36.6211C290.238 36.6211 291.086 36.7266 291.891 36.9375C292.703 37.1406 293.551 37.4375 294.434 37.8281L293.262 40.6523C292.473 40.332 291.766 40.0859 291.141 39.9141C290.516 39.7344 289.879 39.6445 289.23 39.6445C288.777 39.6445 288.391 39.7188 288.07 39.8672C287.75 40.0078 287.508 40.2109 287.344 40.4766C287.18 40.7344 287.098 41.0352 287.098 41.3789C287.098 41.7852 287.215 42.1289 287.449 42.4102C287.691 42.6836 288.051 42.9492 288.527 43.207C289.012 43.4648 289.613 43.7656 290.332 44.1094C291.207 44.5234 291.953 44.957 292.57 45.4102C293.195 45.8555 293.676 46.3828 294.012 46.9922C294.348 47.5938 294.516 48.3438 294.516 49.2422ZM309.363 40.8984V54H306.621L306.141 52.3242H305.953C305.672 52.7695 305.32 53.1328 304.898 53.4141C304.477 53.6953 304.012 53.9023 303.504 54.0352C302.996 54.168 302.469 54.2344 301.922 54.2344C300.984 54.2344 300.168 54.0703 299.473 53.7422C298.777 53.4062 298.234 52.8867 297.844 52.1836C297.461 51.4805 297.27 50.5664 297.27 49.4414V40.8984H300.844V48.5508C300.844 49.4883 301.012 50.1953 301.348 50.6719C301.684 51.1484 302.219 51.3867 302.953 51.3867C303.68 51.3867 304.25 51.2227 304.664 50.8945C305.078 50.5586 305.367 50.0703 305.531 49.4297C305.703 48.7812 305.789 47.9922 305.789 47.0625V40.8984H309.363ZM318.434 54.2344C317.137 54.2344 316.031 54 315.117 53.5312C314.203 53.0547 313.508 52.3203 313.031 51.3281C312.555 50.3359 312.316 49.0664 312.316 47.5195C312.316 45.918 312.586 44.6133 313.125 43.6055C313.672 42.5898 314.426 41.8438 315.387 41.3672C316.355 40.8906 317.477 40.6523 318.75 40.6523C319.656 40.6523 320.438 40.7422 321.094 40.9219C321.758 41.0938 322.336 41.3008 322.828 41.543L321.773 44.3086C321.211 44.082 320.688 43.8984 320.203 43.7578C319.719 43.6094 319.234 43.5352 318.75 43.5352C318.125 43.5352 317.605 43.6836 317.191 43.9805C316.777 44.2695 316.469 44.707 316.266 45.293C316.062 45.8789 315.961 46.6133 315.961 47.4961C315.961 48.3633 316.07 49.082 316.289 49.6523C316.508 50.2227 316.824 50.6484 317.238 50.9297C317.652 51.2031 318.156 51.3398 318.75 51.3398C319.492 51.3398 320.152 51.2422 320.73 51.0469C321.309 50.8438 321.871 50.5625 322.418 50.2031V53.2617C321.871 53.6055 321.297 53.8516 320.695 54C320.102 54.1562 319.348 54.2344 318.434 54.2344ZM330.785 54.2344C329.488 54.2344 328.383 54 327.469 53.5312C326.555 53.0547 325.859 52.3203 325.383 51.3281C324.906 50.3359 324.668 49.0664 324.668 47.5195C324.668 45.918 324.938 44.6133 325.477 43.6055C326.023 42.5898 326.777 41.8438 327.738 41.3672C328.707 40.8906 329.828 40.6523 331.102 40.6523C332.008 40.6523 332.789 40.7422 333.445 40.9219C334.109 41.0938 334.688 41.3008 335.18 41.543L334.125 44.3086C333.562 44.082 333.039 43.8984 332.555 43.7578C332.07 43.6094 331.586 43.5352 331.102 43.5352C330.477 43.5352 329.957 43.6836 329.543 43.9805C329.129 44.2695 328.82 44.707 328.617 45.293C328.414 45.8789 328.312 46.6133 328.312 47.4961C328.312 48.3633 328.422 49.082 328.641 49.6523C328.859 50.2227 329.176 50.6484 329.59 50.9297C330.004 51.2031 330.508 51.3398 331.102 51.3398C331.844 51.3398 332.504 51.2422 333.082 51.0469C333.66 50.8438 334.223 50.5625 334.77 50.2031V53.2617C334.223 53.6055 333.648 53.8516 333.047 54C332.453 54.1562 331.699 54.2344 330.785 54.2344ZM343.219 40.6523C344.43 40.6523 345.473 40.8867 346.348 41.3555C347.223 41.8164 347.898 42.4883 348.375 43.3711C348.852 44.2539 349.09 45.332 349.09 46.6055V48.3398H340.641C340.68 49.3477 340.98 50.1406 341.543 50.7188C342.113 51.2891 342.902 51.5742 343.91 51.5742C344.746 51.5742 345.512 51.4883 346.207 51.3164C346.902 51.1445 347.617 50.8867 348.352 50.543V53.3086C347.703 53.6289 347.023 53.8633 346.312 54.0117C345.609 54.1602 344.754 54.2344 343.746 54.2344C342.434 54.2344 341.27 53.9922 340.254 53.5078C339.246 53.0234 338.453 52.2852 337.875 51.293C337.305 50.3008 337.02 49.0508 337.02 47.543C337.02 46.0117 337.277 44.7383 337.793 43.7227C338.316 42.6992 339.043 41.9336 339.973 41.4258C340.902 40.9102 341.984 40.6523 343.219 40.6523ZM343.242 43.1953C342.547 43.1953 341.969 43.418 341.508 43.8633C341.055 44.3086 340.793 45.0078 340.723 45.9609H345.738C345.73 45.4297 345.633 44.957 345.445 44.543C345.266 44.1289 344.992 43.8008 344.625 43.5586C344.266 43.3164 343.805 43.1953 343.242 43.1953ZM361.137 50.1094C361.137 51 360.926 51.7539 360.504 52.3711C360.09 52.9805 359.469 53.4453 358.641 53.7656C357.812 54.0781 356.781 54.2344 355.547 54.2344C354.633 54.2344 353.848 54.1758 353.191 54.0586C352.543 53.9414 351.887 53.7461 351.223 53.4727V50.5195C351.934 50.8398 352.695 51.1055 353.508 51.3164C354.328 51.5195 355.047 51.6211 355.664 51.6211C356.359 51.6211 356.855 51.5195 357.152 51.3164C357.457 51.1055 357.609 50.832 357.609 50.4961C357.609 50.2773 357.547 50.082 357.422 49.9102C357.305 49.7305 357.047 49.5312 356.648 49.3125C356.25 49.0859 355.625 48.793 354.773 48.4336C353.953 48.0898 353.277 47.7422 352.746 47.3906C352.223 47.0391 351.832 46.625 351.574 46.1484C351.324 45.6641 351.199 45.0508 351.199 44.3086C351.199 43.0977 351.668 42.1875 352.605 41.5781C353.551 40.9609 354.812 40.6523 356.391 40.6523C357.203 40.6523 357.977 40.7344 358.711 40.8984C359.453 41.0625 360.215 41.3242 360.996 41.6836L359.918 44.2617C359.27 43.9805 358.656 43.75 358.078 43.5703C357.508 43.3906 356.926 43.3008 356.332 43.3008C355.809 43.3008 355.414 43.3711 355.148 43.5117C354.883 43.6523 354.75 43.8672 354.75 44.1562C354.75 44.3672 354.816 44.5547 354.949 44.7188C355.09 44.8828 355.355 45.0664 355.746 45.2695C356.145 45.4648 356.727 45.7188 357.492 46.0312C358.234 46.3359 358.879 46.6562 359.426 46.9922C359.973 47.3203 360.395 47.7305 360.691 48.2227C360.988 48.707 361.137 49.3359 361.137 50.1094ZM373.066 50.1094C373.066 51 372.855 51.7539 372.434 52.3711C372.02 52.9805 371.398 53.4453 370.57 53.7656C369.742 54.0781 368.711 54.2344 367.477 54.2344C366.562 54.2344 365.777 54.1758 365.121 54.0586C364.473 53.9414 363.816 53.7461 363.152 53.4727V50.5195C363.863 50.8398 364.625 51.1055 365.438 51.3164C366.258 51.5195 366.977 51.6211 367.594 51.6211C368.289 51.6211 368.785 51.5195 369.082 51.3164C369.387 51.1055 369.539 50.832 369.539 50.4961C369.539 50.2773 369.477 50.082 369.352 49.9102C369.234 49.7305 368.977 49.5312 368.578 49.3125C368.18 49.0859 367.555 48.793 366.703 48.4336C365.883 48.0898 365.207 47.7422 364.676 47.3906C364.152 47.0391 363.762 46.625 363.504 46.1484C363.254 45.6641 363.129 45.0508 363.129 44.3086C363.129 43.0977 363.598 42.1875 364.535 41.5781C365.48 40.9609 366.742 40.6523 368.32 40.6523C369.133 40.6523 369.906 40.7344 370.641 40.8984C371.383 41.0625 372.145 41.3242 372.926 41.6836L371.848 44.2617C371.199 43.9805 370.586 43.75 370.008 43.5703C369.438 43.3906 368.855 43.3008 368.262 43.3008C367.738 43.3008 367.344 43.3711 367.078 43.5117C366.812 43.6523 366.68 43.8672 366.68 44.1562C366.68 44.3672 366.746 44.5547 366.879 44.7188C367.02 44.8828 367.285 45.0664 367.676 45.2695C368.074 45.4648 368.656 45.7188 369.422 46.0312C370.164 46.3359 370.809 46.6562 371.355 46.9922C371.902 47.3203 372.324 47.7305 372.621 48.2227C372.918 48.707 373.066 49.3359 373.066 50.1094Z" fill="#032D6C"/>
<rect width="90" height="90" fill="#E6EDF8"/>
<path d="M63.2525 66.1912H61.156V46.3295C61.156 45.8927 60.8018 45.5385 60.365 45.5385C59.928 45.5385 59.5739 45.8927 59.5739 46.3295V66.1912H54.2556V35.0627H59.5739V42.6626C59.5739 43.0995 59.9281 43.4536 60.365 43.4536C60.8019 43.4536 61.156 43.0995 61.156 42.6626V34.6275C61.156 33.9952 60.6416 33.4807 60.0093 33.4807H53.8202C53.1879 33.4807 52.6735 33.9952 52.6735 34.6275V66.1913H48.0444V41.7427C48.0444 41.1104 47.53 40.596 46.8978 40.596H40.7086C40.0764 40.596 39.562 41.1104 39.562 41.7427V66.1912H34.9329V50.0187C34.9329 49.3865 34.4184 48.872 33.7861 48.872H27.597C26.9647 48.872 26.4502 49.3865 26.4502 50.0187V66.1912H24.3537C22.889 66.1912 21.6973 67.3829 21.6973 68.8477V70.1008C21.6973 71.148 22.5492 72.0001 23.5965 72.0001H35.044C35.4809 72.0001 35.835 71.646 35.835 71.2091C35.835 70.7722 35.4809 70.4181 35.044 70.4181H23.5965C23.4217 70.4181 23.2794 70.2758 23.2794 70.1009V68.8477C23.2794 68.2552 23.7614 67.7732 24.3538 67.7732H63.2526C63.845 67.7732 64.327 68.2552 64.327 68.8477V70.1008C64.327 70.2757 64.1847 70.418 64.0098 70.418H38.7005C38.2637 70.418 37.9095 70.7721 37.9095 71.209C37.9095 71.6458 38.2637 72 38.7005 72H64.0098C65.057 72 65.909 71.148 65.909 70.1007V68.8477C65.9089 67.3829 64.7172 66.1912 63.2525 66.1912ZM28.0324 66.1912V50.4541H33.3507V66.1912H28.0324ZM41.1439 66.1912V42.1781H46.4623V66.1912H41.1439Z" fill="#032D6C"/>
<path d="M52.6348 26.6298L52.1032 29.729C52.0128 30.2572 52.2258 30.7809 52.6594 31.0959C53.093 31.4109 53.657 31.4516 54.1313 31.2024L56.9144 29.7392L59.6976 31.2024C59.9039 31.3108 60.1272 31.3644 60.3494 31.3644C60.6379 31.3644 60.9247 31.2739 61.1697 31.0959C61.6031 30.7809 61.8163 30.2572 61.7256 29.729L61.1941 26.6298L63.4458 24.4349C63.8296 24.0608 63.965 23.5117 63.7994 23.0021C63.6338 22.4924 63.2015 22.128 62.6711 22.0509L59.5593 21.5988L58.1678 18.7791C57.9307 18.2986 57.4505 18 56.9146 18H56.9145C56.3786 18 55.8983 18.2985 55.6611 18.7791L54.2696 21.5988L51.1576 22.0509C50.6274 22.1279 50.1951 22.4924 50.0294 23.0021C49.8638 23.5118 49.9993 24.0608 50.3831 24.4349L52.6348 26.6298ZM54.5932 23.1505C55.0485 23.0842 55.4418 22.7984 55.6454 22.3859L56.9144 19.8144L58.1835 22.3859C58.3872 22.7984 58.7805 23.0842 59.236 23.1505L62.0739 23.5628L60.0204 25.5645C59.6909 25.8858 59.5406 26.3483 59.6184 26.8017L60.1032 29.6281L57.5647 28.2936C57.1575 28.0796 56.6712 28.0796 56.2641 28.2936L53.7258 29.6281L54.2105 26.8018C54.2883 26.3484 54.1381 25.8858 53.8086 25.5645L51.755 23.5628L54.5932 23.1505Z" fill="#032D6C"/>
<path d="M46.3174 25.4731H47.6426C48.0796 25.4731 48.4336 25.119 48.4336 24.6821C48.4336 24.2453 48.0794 23.8911 47.6426 23.8911H46.3174C45.8804 23.8911 45.5264 24.2453 45.5264 24.6821C45.5264 25.119 45.8805 25.4731 46.3174 25.4731Z" fill="#032D6C"/>
<path d="M48.3569 27.5389L47.2091 28.2015C46.8308 28.4199 46.7011 28.9037 46.9196 29.282C47.0661 29.5358 47.332 29.6777 47.6054 29.6777C47.7395 29.6777 47.8756 29.6435 48.0002 29.5716L49.1479 28.9091C49.5262 28.6906 49.6559 28.2068 49.4374 27.8285C49.2191 27.4501 48.7354 27.3206 48.3569 27.5389Z" fill="#032D6C"/>
<path d="M47.2091 21.0426L48.3569 21.7052C48.4815 21.7771 48.6175 21.8113 48.7516 21.8113C49.025 21.8113 49.2909 21.6693 49.4374 21.4156C49.6558 21.0372 49.5262 20.5534 49.1479 20.3351L48.0002 19.6726C47.6216 19.454 47.1379 19.5838 46.9196 19.9621C46.7011 20.3404 46.8308 20.8242 47.2091 21.0426Z" fill="#032D6C"/>
<path d="M67.5118 23.8911H66.1865C65.7496 23.8911 65.3955 24.2453 65.3955 24.6821C65.3955 25.119 65.7497 25.4731 66.1865 25.4731H67.5118C67.9488 25.4731 68.3029 25.119 68.3029 24.6821C68.3029 24.2453 67.9487 23.8911 67.5118 23.8911Z" fill="#032D6C"/>
<path d="M66.6205 28.2018L65.4728 27.5392C65.0942 27.3208 64.6106 27.4504 64.3922 27.8287C64.1738 28.2071 64.3034 28.6909 64.6817 28.9092L65.8295 29.5718C65.9541 29.6437 66.0901 29.6779 66.2242 29.6779C66.4976 29.6779 66.7635 29.5359 66.91 29.2822C67.1284 28.904 66.9988 28.4202 66.6205 28.2018Z" fill="#032D6C"/>
<path d="M65.0776 21.8113C65.2117 21.8113 65.3478 21.7771 65.4723 21.7052L66.62 21.0426C66.9983 20.8242 67.1281 20.3404 66.9095 19.9621C66.6912 19.5837 66.2075 19.4541 65.829 19.6726L64.6813 20.3351C64.303 20.5536 64.1733 21.0373 64.3918 21.4157C64.5383 21.6694 64.8042 21.8113 65.0776 21.8113Z" fill="#032D6C"/>
</svg>
