<svg width="554" height="90" viewBox="0 0 554 90" fill="none" xmlns="http://www.w3.org/2000/svg">
<rect width="554" height="90" fill="white"/>
<path d="M245.598 36.8672C247.152 36.8672 248.434 37.0547 249.441 37.4297C250.457 37.8047 251.211 38.3711 251.703 39.1289C252.195 39.8867 252.441 40.8438 252.441 42C252.441 42.7812 252.293 43.4648 251.996 44.0508C251.699 44.6367 251.309 45.1328 250.824 45.5391C250.34 45.9453 249.816 46.2773 249.254 46.5352L254.293 54H250.262L246.172 47.4258H244.238V54H240.605V36.8672H245.598ZM245.34 39.8438H244.238V44.4727H245.41C246.613 44.4727 247.473 44.2734 247.988 43.875C248.512 43.4688 248.773 42.875 248.773 42.0938C248.773 41.2812 248.492 40.7031 247.93 40.3594C247.375 40.0156 246.512 39.8438 245.34 39.8438ZM261.57 40.6523C262.781 40.6523 263.824 40.8867 264.699 41.3555C265.574 41.8164 266.25 42.4883 266.727 43.3711C267.203 44.2539 267.441 45.332 267.441 46.6055V48.3398H258.992C259.031 49.3477 259.332 50.1406 259.895 50.7188C260.465 51.2891 261.254 51.5742 262.262 51.5742C263.098 51.5742 263.863 51.4883 264.559 51.3164C265.254 51.1445 265.969 50.8867 266.703 50.543V53.3086C266.055 53.6289 265.375 53.8633 264.664 54.0117C263.961 54.1602 263.105 54.2344 262.098 54.2344C260.785 54.2344 259.621 53.9922 258.605 53.5078C257.598 53.0234 256.805 52.2852 256.227 51.293C255.656 50.3008 255.371 49.0508 255.371 47.543C255.371 46.0117 255.629 44.7383 256.145 43.7227C256.668 42.6992 257.395 41.9336 258.324 41.4258C259.254 40.9102 260.336 40.6523 261.57 40.6523ZM261.594 43.1953C260.898 43.1953 260.32 43.418 259.859 43.8633C259.406 44.3086 259.145 45.0078 259.074 45.9609H264.09C264.082 45.4297 263.984 44.957 263.797 44.543C263.617 44.1289 263.344 43.8008 262.977 43.5586C262.617 43.3164 262.156 43.1953 261.594 43.1953ZM279.488 50.1094C279.488 51 279.277 51.7539 278.855 52.3711C278.441 52.9805 277.82 53.4453 276.992 53.7656C276.164 54.0781 275.133 54.2344 273.898 54.2344C272.984 54.2344 272.199 54.1758 271.543 54.0586C270.895 53.9414 270.238 53.7461 269.574 53.4727V50.5195C270.285 50.8398 271.047 51.1055 271.859 51.3164C272.68 51.5195 273.398 51.6211 274.016 51.6211C274.711 51.6211 275.207 51.5195 275.504 51.3164C275.809 51.1055 275.961 50.832 275.961 50.4961C275.961 50.2773 275.898 50.082 275.773 49.9102C275.656 49.7305 275.398 49.5312 275 49.3125C274.602 49.0859 273.977 48.793 273.125 48.4336C272.305 48.0898 271.629 47.7422 271.098 47.3906C270.574 47.0391 270.184 46.625 269.926 46.1484C269.676 45.6641 269.551 45.0508 269.551 44.3086C269.551 43.0977 270.02 42.1875 270.957 41.5781C271.902 40.9609 273.164 40.6523 274.742 40.6523C275.555 40.6523 276.328 40.7344 277.062 40.8984C277.805 41.0625 278.566 41.3242 279.348 41.6836L278.27 44.2617C277.621 43.9805 277.008 43.75 276.43 43.5703C275.859 43.3906 275.277 43.3008 274.684 43.3008C274.16 43.3008 273.766 43.3711 273.5 43.5117C273.234 43.6523 273.102 43.8672 273.102 44.1562C273.102 44.3672 273.168 44.5547 273.301 44.7188C273.441 44.8828 273.707 45.0664 274.098 45.2695C274.496 45.4648 275.078 45.7188 275.844 46.0312C276.586 46.3359 277.23 46.6562 277.777 46.9922C278.324 47.3203 278.746 47.7305 279.043 48.2227C279.34 48.707 279.488 49.3359 279.488 50.1094ZM289.566 40.6523C291.043 40.6523 292.234 41.2266 293.141 42.375C294.055 43.5234 294.512 45.207 294.512 47.4258C294.512 48.9102 294.297 50.1602 293.867 51.1758C293.438 52.1836 292.844 52.9453 292.086 53.4609C291.328 53.9766 290.457 54.2344 289.473 54.2344C288.84 54.2344 288.297 54.1562 287.844 54C287.391 53.8359 287.004 53.6289 286.684 53.3789C286.363 53.1211 286.086 52.8477 285.852 52.5586H285.664C285.727 52.8711 285.773 53.1914 285.805 53.5195C285.836 53.8477 285.852 54.168 285.852 54.4805V59.7656H282.277V40.8984H285.184L285.688 42.5977H285.852C286.086 42.2461 286.371 41.9219 286.707 41.625C287.043 41.3281 287.445 41.0938 287.914 40.9219C288.391 40.7422 288.941 40.6523 289.566 40.6523ZM288.418 43.5117C287.793 43.5117 287.297 43.6406 286.93 43.8984C286.562 44.1562 286.293 44.543 286.121 45.0586C285.957 45.5742 285.867 46.2266 285.852 47.0156V47.4023C285.852 48.2461 285.93 48.9609 286.086 49.5469C286.25 50.1328 286.52 50.5781 286.895 50.8828C287.277 51.1875 287.801 51.3398 288.465 51.3398C289.012 51.3398 289.461 51.1875 289.812 50.8828C290.164 50.5781 290.426 50.1328 290.598 49.5469C290.777 48.9531 290.867 48.2305 290.867 47.3789C290.867 46.0977 290.668 45.1328 290.27 44.4844C289.871 43.8359 289.254 43.5117 288.418 43.5117ZM302.867 40.6523C304.078 40.6523 305.121 40.8867 305.996 41.3555C306.871 41.8164 307.547 42.4883 308.023 43.3711C308.5 44.2539 308.738 45.332 308.738 46.6055V48.3398H300.289C300.328 49.3477 300.629 50.1406 301.191 50.7188C301.762 51.2891 302.551 51.5742 303.559 51.5742C304.395 51.5742 305.16 51.4883 305.855 51.3164C306.551 51.1445 307.266 50.8867 308 50.543V53.3086C307.352 53.6289 306.672 53.8633 305.961 54.0117C305.258 54.1602 304.402 54.2344 303.395 54.2344C302.082 54.2344 300.918 53.9922 299.902 53.5078C298.895 53.0234 298.102 52.2852 297.523 51.293C296.953 50.3008 296.668 49.0508 296.668 47.543C296.668 46.0117 296.926 44.7383 297.441 43.7227C297.965 42.6992 298.691 41.9336 299.621 41.4258C300.551 40.9102 301.633 40.6523 302.867 40.6523ZM302.891 43.1953C302.195 43.1953 301.617 43.418 301.156 43.8633C300.703 44.3086 300.441 45.0078 300.371 45.9609H305.387C305.379 45.4297 305.281 44.957 305.094 44.543C304.914 44.1289 304.641 43.8008 304.273 43.5586C303.914 43.3164 303.453 43.1953 302.891 43.1953ZM316.965 54.2344C315.668 54.2344 314.562 54 313.648 53.5312C312.734 53.0547 312.039 52.3203 311.562 51.3281C311.086 50.3359 310.848 49.0664 310.848 47.5195C310.848 45.918 311.117 44.6133 311.656 43.6055C312.203 42.5898 312.957 41.8438 313.918 41.3672C314.887 40.8906 316.008 40.6523 317.281 40.6523C318.188 40.6523 318.969 40.7422 319.625 40.9219C320.289 41.0938 320.867 41.3008 321.359 41.543L320.305 44.3086C319.742 44.082 319.219 43.8984 318.734 43.7578C318.25 43.6094 317.766 43.5352 317.281 43.5352C316.656 43.5352 316.137 43.6836 315.723 43.9805C315.309 44.2695 315 44.707 314.797 45.293C314.594 45.8789 314.492 46.6133 314.492 47.4961C314.492 48.3633 314.602 49.082 314.82 49.6523C315.039 50.2227 315.355 50.6484 315.77 50.9297C316.184 51.2031 316.688 51.3398 317.281 51.3398C318.023 51.3398 318.684 51.2422 319.262 51.0469C319.84 50.8438 320.402 50.5625 320.949 50.2031V53.2617C320.402 53.6055 319.828 53.8516 319.227 54C318.633 54.1562 317.879 54.2344 316.965 54.2344ZM329.516 51.3867C329.906 51.3867 330.285 51.3477 330.652 51.2695C331.027 51.1914 331.398 51.0938 331.766 50.9766V53.6367C331.383 53.8086 330.906 53.9492 330.336 54.0586C329.773 54.1758 329.156 54.2344 328.484 54.2344C327.703 54.2344 327 54.1094 326.375 53.8594C325.758 53.6016 325.27 53.1602 324.91 52.5352C324.559 51.9023 324.383 51.0234 324.383 49.8984V43.582H322.672V42.0703L324.641 40.875L325.672 38.1094H327.957V40.8984H331.625V43.582H327.957V49.8984C327.957 50.3984 328.098 50.7734 328.379 51.0234C328.668 51.2656 329.047 51.3867 329.516 51.3867Z" fill="#032D6C"/>
<rect width="90" height="90" fill="#E6EDF8"/>
<g clip-path="url(#clip0_385_1334)">
<path d="M72 31.8813C72 30.9614 71.5296 30.1493 70.8167 29.673C71.1111 29.2548 71.2883 28.7492 71.2984 28.2053C71.3116 27.5014 71.0419 26.8317 70.5392 26.3194C70.0285 25.799 69.3201 25.5005 68.5958 25.5005H67.4093V20.2574C67.4093 19.8205 67.0551 19.4664 66.6182 19.4664C66.1814 19.4664 65.8272 19.8205 65.8272 20.2574V25.5005H56.2626V20.2574C56.2626 19.8205 55.9084 19.4664 55.4716 19.4664C55.0347 19.4664 54.6806 19.8205 54.6806 20.2574V21.3985L50.8898 22.1535C49.9642 22.3378 49.1895 22.9658 48.8178 23.8333L48.1032 25.5005H44.7113C44.2745 25.5005 43.9203 25.8546 43.9203 26.2915C43.9203 26.7285 44.2745 27.0825 44.7113 27.0825H48.6248C48.9412 27.0825 49.2271 26.894 49.3519 26.6032L50.272 24.4565C50.4383 24.0685 50.7849 23.7875 51.1989 23.705L54.6807 23.0116V25.5005H53.5723C53.1354 25.5005 52.7813 25.8546 52.7813 26.2915C52.7813 26.7285 53.1354 27.0825 53.5723 27.0825H68.5959C68.8983 27.0825 69.1951 27.2082 69.4101 27.4275C69.613 27.6342 69.7219 27.8999 69.7167 28.1756C69.7058 28.7554 69.2249 29.2271 68.6446 29.2271C68.5905 29.2271 57.892 29.227 57.892 29.227C57.4551 29.227 57.101 29.5811 57.101 30.0181C57.101 30.455 57.4551 30.8091 57.892 30.8091L69.3457 30.8092C69.9368 30.8092 70.4179 31.2902 70.4179 31.8814C70.4179 32.4725 69.9368 32.9536 69.3457 32.9536L57.892 32.9535C57.4551 32.9535 57.101 33.3075 57.101 33.7445C57.101 34.1814 57.4551 34.5355 57.892 34.5355C57.892 34.5355 67.8893 34.5356 67.9436 34.5356C68.5238 34.5356 69.0047 35.0073 69.0156 35.587C69.0207 35.8627 68.9119 36.1284 68.709 36.3351C68.4938 36.5543 68.197 36.6801 67.8947 36.6801H57.892C57.4551 36.6801 57.101 37.0341 57.101 37.4711C57.101 37.9081 57.4551 38.2621 57.892 38.2621H65.8404C66.4206 38.2621 66.9015 38.7338 66.9124 39.3135C66.9176 39.5892 66.8087 39.8549 66.6058 40.0617C66.3906 40.2809 66.094 40.4066 65.7916 40.4066H51.4238C50.7564 40.4066 50.0996 40.1798 49.5745 39.7677L47.6281 38.2406C46.3186 37.2133 44.681 36.6476 43.0166 36.6476H35.3195V27.0825H41.232C41.6689 27.0825 42.023 26.7285 42.023 26.2915C42.023 25.8546 41.6689 25.5005 41.232 25.5005H35.3195V24.314C35.3195 23.5896 35.0211 22.8813 34.5008 22.3706C33.9885 21.8677 33.3181 21.5995 32.6149 21.6113C32.071 21.6216 31.5654 21.7988 31.1472 22.093C30.6708 21.3802 29.8588 20.9098 28.9389 20.9098C27.8059 20.9098 26.8363 21.6235 26.4562 22.6248C26.0985 22.4328 25.6927 22.3204 25.2629 22.3124C24.5588 22.3024 23.8895 22.5689 23.3771 23.0715C22.9434 23.497 22.6639 24.0598 22.5827 24.6549C22.2623 24.5076 21.9084 24.4225 21.5364 24.4154C20.8315 24.4023 20.163 24.6719 19.6506 25.1747C19.1302 25.6854 18.8317 26.3938 18.8317 27.1182V34.6413C18.8317 35.0782 19.1859 35.4323 19.6227 35.4323C20.0596 35.4323 20.4138 35.0782 20.4138 34.6413V27.1182C20.4138 26.8158 20.5395 26.5189 20.7587 26.3038C20.9655 26.1009 21.2334 25.9889 21.5067 25.9973C22.0866 26.0082 22.5583 26.4891 22.5583 27.0693V35.0177C22.5583 35.4546 22.9124 35.8087 23.3493 35.8087C23.7861 35.8087 24.1403 35.4546 24.1403 35.0177V25.0151C24.1403 24.7128 24.266 24.4159 24.4853 24.2007C24.692 23.9979 24.9567 23.8913 25.2334 23.8943C25.8131 23.9052 26.2848 24.386 26.2848 24.9662V35.0179C26.2848 35.4549 26.6389 35.8089 27.0758 35.8089C27.5126 35.8089 27.8668 35.4549 27.8668 35.0179V23.5641C27.8668 22.973 28.3479 22.4919 28.9391 22.4919C29.5303 22.4919 30.0113 22.973 30.0113 23.5641V35.0179C30.0113 35.4549 30.3655 35.8089 30.8023 35.8089C31.2392 35.8089 31.5933 35.4549 31.5933 35.0179C31.5933 35.0179 31.5933 24.3195 31.5933 24.2653C31.5933 23.685 32.065 23.204 32.6448 23.1933C32.9215 23.1878 33.1862 23.2968 33.3928 23.4998C33.612 23.7149 33.7377 24.0117 33.7377 24.3141V40.0246C33.7377 40.4616 34.0919 40.8156 34.5287 40.8156C34.9656 40.8156 35.3198 40.4616 35.3198 40.0246V38.2294H37.8086L37.1152 41.7112C37.0327 42.1253 36.7517 42.4718 36.3637 42.6381L34.2171 43.5582C33.9262 43.6829 33.7377 43.9689 33.7377 44.2853V48.0119C33.7377 48.0119 24.0257 48.0167 23.935 48.0261C23.6775 47.0309 23.2157 46.0923 22.58 45.282L21.0529 43.3356C20.6409 42.8105 20.414 42.1538 20.414 41.4864V38.1212C20.414 37.6843 20.0598 37.3302 19.623 37.3302C19.1861 37.3302 18.8319 37.6843 18.8319 38.1212V41.4864C18.8319 42.5063 19.1786 43.5098 19.8082 44.3122L21.3352 46.2587C21.8855 46.9599 22.2687 47.7836 22.4566 48.6541C22.3902 48.7098 22.3262 48.7685 22.2653 48.8306C21.7624 49.3429 21.4928 50.0126 21.506 50.7165C21.513 51.0884 21.598 51.4424 21.7452 51.7628C21.1502 51.844 20.5876 52.1235 20.162 52.557C19.6591 53.0693 19.3896 53.739 19.4027 54.4429C19.4108 54.8723 19.5229 55.2777 19.7145 55.6353C19.367 55.7666 19.0481 55.9715 18.7775 56.2422C18.2761 56.7433 18 57.4098 18 58.1188C18 59.0387 18.4704 59.8508 19.1833 60.3271C18.889 60.7453 18.7117 61.2508 18.7016 61.7947C18.6884 62.4986 18.9581 63.1683 19.4608 63.6807C19.9715 64.2011 20.6799 64.4995 21.4041 64.4995H22.5906V69.7425C22.5906 70.1795 22.9448 70.5336 23.3816 70.5336C23.8185 70.5336 24.1727 70.1795 24.1727 69.7425V64.4995H33.7373V69.7425C33.7373 70.1795 34.0915 70.5336 34.5283 70.5336C34.9652 70.5336 35.3193 70.1795 35.3193 69.7425V68.6015L39.11 67.8465C40.0357 67.6622 40.8104 67.0342 41.1821 66.1667L41.8967 64.4995H54.6805V65.686C54.6805 66.4104 54.9789 67.1187 55.4992 67.6294C56.0115 68.1322 56.6835 68.4031 57.3851 68.3886C57.929 68.3784 58.4346 68.2012 58.8528 67.907C59.3292 68.6198 60.1412 69.0902 61.0611 69.0902C62.1941 69.0902 63.1637 68.3765 63.5438 67.3752C63.9015 67.5671 64.3073 67.6796 64.7371 67.6876C65.4411 67.7 66.1105 67.4312 66.6229 66.9285C67.0566 66.503 67.3361 65.9402 67.4173 65.3451C67.7377 65.4924 68.0916 65.5775 68.4636 65.5845C69.1684 65.5971 69.8372 65.328 70.3494 64.8253C70.8698 64.3146 71.1683 63.6062 71.1683 62.8818V48.5138C71.1683 47.4939 70.8216 46.4904 70.1921 45.688L68.665 43.7415C68.1147 43.0403 67.7315 42.2166 67.5436 41.3462C67.61 41.2906 67.6739 41.2318 67.735 41.1697C68.2378 40.6573 68.5074 39.9876 68.4942 39.2837C68.4873 38.9118 68.4023 38.5578 68.255 38.2374C68.85 38.1562 69.4126 37.8767 69.8382 37.4432C70.3411 36.9309 70.6107 36.2612 70.5975 35.5573C70.5895 35.1275 70.477 34.7216 70.2851 34.364C71.2864 33.9839 72 33.0143 72 31.8813ZM35.3194 44.8067L36.9866 44.0921C37.8541 43.7204 38.482 42.9458 38.6665 42.0201L39.4214 38.2294H43.0166C44.3285 38.2294 45.6194 38.6755 46.6515 39.485L48.598 41.0121C49.4004 41.6418 50.404 41.9884 51.4238 41.9884H54.6806V45.1933L53.0134 45.908C52.1459 46.2796 51.518 47.0543 51.3335 47.98L50.5786 51.7707H46.9834C45.6716 51.7707 44.3807 51.3246 43.3485 50.515L41.402 48.9879C40.5996 48.3582 39.596 48.0115 38.5762 48.0115H35.3194V44.8067ZM67.4203 44.7182L68.9474 46.6646C69.3594 47.1897 69.5863 47.8464 69.5863 48.5138V62.8817C69.5863 63.1841 69.4606 63.481 69.2414 63.6961C69.0346 63.8989 68.7681 64.0068 68.4934 64.0026C67.9135 63.9916 67.4419 63.5108 67.4419 62.9306C67.4419 62.8764 67.4419 54.9822 67.4419 54.9822C67.4419 54.5452 67.0877 54.1912 66.6508 54.1912C66.214 54.1912 65.8598 54.5452 65.8598 54.9822V64.985C65.8598 65.2873 65.7341 65.5842 65.5148 65.7994C65.3082 66.0022 65.0426 66.1143 64.7667 66.1058C64.187 66.0949 63.7153 65.6141 63.7153 65.0339C63.7153 64.9797 63.7153 54.9822 63.7153 54.9822C63.7153 54.5452 63.3612 54.1912 62.9243 54.1912C62.4875 54.1912 62.1333 54.5452 62.1333 54.9822V66.436C62.1333 67.0271 61.6523 67.5082 61.061 67.5082C60.4698 67.5082 59.9888 67.0271 59.9888 66.436V54.9822C59.9888 54.5452 59.6346 54.1912 59.1978 54.1912C58.7609 54.1912 58.4068 54.5452 58.4068 54.9822V65.7348C58.4068 66.3151 57.9351 66.7961 57.3553 66.8068C57.08 66.8116 56.814 66.7031 56.6073 66.5003C56.3881 66.2852 56.2624 65.9884 56.2624 65.686V58.6087C56.2624 58.1718 55.9082 57.8177 55.4714 57.8177C55.0345 57.8177 54.6803 58.1718 54.6803 58.6087V62.9174H41.3752C41.0588 62.9174 40.7729 63.106 40.6481 63.3968L39.728 65.5435C39.5617 65.9315 39.2151 66.2125 38.801 66.295L35.3192 66.9884V64.4995H36.2597C36.6966 64.4995 37.0507 64.1454 37.0507 63.7085C37.0507 63.2715 36.6966 62.9174 36.2597 62.9174H21.4041C21.1017 62.9174 20.805 62.7918 20.5899 62.5726C20.387 62.3657 20.2781 62.1002 20.2833 61.8244C20.2942 61.2446 20.7751 60.7729 21.3553 60.7729H32.1079C32.5448 60.7729 32.8989 60.4189 32.8989 59.9819C32.8989 59.545 32.5448 59.1909 32.1079 59.1909H20.6542C20.0631 59.1909 19.582 58.7099 19.582 58.1187C19.582 57.8323 19.6936 57.563 19.8961 57.3605C20.0986 57.1581 20.3678 57.0465 20.6542 57.0465H32.108C32.5449 57.0465 32.899 56.6925 32.899 56.2555C32.899 55.8186 32.5449 55.4645 32.108 55.4645C32.108 55.4645 22.1106 55.4645 22.0564 55.4645C21.4762 55.4645 20.9953 54.9927 20.9844 54.413C20.9793 54.1373 21.0881 53.8716 21.291 53.6649C21.5062 53.4457 21.803 53.3199 22.1053 53.3199H32.108C32.5449 53.3199 32.899 52.9658 32.899 52.5289C32.899 52.0919 32.5449 51.7379 32.108 51.7379C32.108 51.7379 24.2138 51.7379 24.1596 51.7379C23.5794 51.7379 23.0985 51.2662 23.0876 50.6864C23.0824 50.4107 23.1913 50.1451 23.3942 49.9384C23.6094 49.7191 23.9061 49.5934 24.2084 49.5934H38.5763C39.2437 49.5934 39.9005 49.8202 40.4256 50.2323L42.372 51.7594C43.6815 52.7868 45.3193 53.3525 46.9836 53.3525H54.6807V55.129C54.6807 55.566 55.0348 55.92 55.4717 55.92C55.9085 55.92 56.2627 55.566 56.2627 55.129V49.9753C56.2627 49.5383 55.9085 49.1843 55.4717 49.1843C55.0348 49.1843 54.6807 49.5383 54.6807 49.9753V51.7705H52.1918L52.8853 48.2887C52.9677 47.8745 53.2487 47.5281 53.6368 47.3618L55.7834 46.4415C56.0742 46.3168 56.2628 46.0308 56.2628 45.7144V41.988C56.2628 41.988 65.9748 41.9832 66.0655 41.9738C66.3228 42.9693 66.7847 43.9079 67.4203 44.7182Z" fill="#032D6C"/>
</g>
<defs>
<clipPath id="clip0_385_1334">
<rect width="54" height="54" fill="white" transform="translate(18 18)"/>
</clipPath>
</defs>
</svg>
