<svg width="554" height="90" viewBox="0 0 554 90" fill="none" xmlns="http://www.w3.org/2000/svg">
<rect width="554" height="90" fill="white"/>
<path d="M227.543 54V36.8672H231.176V54H227.543ZM242.648 40.6523C244.047 40.6523 245.172 41.0352 246.023 41.8008C246.875 42.5586 247.301 43.7773 247.301 45.457V54H243.727V46.3477C243.727 45.4102 243.555 44.7031 243.211 44.2266C242.875 43.75 242.344 43.5117 241.617 43.5117C240.523 43.5117 239.777 43.8828 239.379 44.625C238.98 45.3672 238.781 46.4375 238.781 47.8359V54H235.207V40.8984H237.938L238.418 42.5742H238.617C238.898 42.1211 239.246 41.7539 239.66 41.4727C240.082 41.1914 240.547 40.9844 241.055 40.8516C241.57 40.7188 242.102 40.6523 242.648 40.6523ZM256.5 51.3867C256.891 51.3867 257.27 51.3477 257.637 51.2695C258.012 51.1914 258.383 51.0938 258.75 50.9766V53.6367C258.367 53.8086 257.891 53.9492 257.32 54.0586C256.758 54.1758 256.141 54.2344 255.469 54.2344C254.688 54.2344 253.984 54.1094 253.359 53.8594C252.742 53.6016 252.254 53.1602 251.895 52.5352C251.543 51.9023 251.367 51.0234 251.367 49.8984V43.582H249.656V42.0703L251.625 40.875L252.656 38.1094H254.941V40.8984H258.609V43.582H254.941V49.8984C254.941 50.3984 255.082 50.7734 255.363 51.0234C255.652 51.2656 256.031 51.3867 256.5 51.3867ZM266.812 40.6523C268.023 40.6523 269.066 40.8867 269.941 41.3555C270.816 41.8164 271.492 42.4883 271.969 43.3711C272.445 44.2539 272.684 45.332 272.684 46.6055V48.3398H264.234C264.273 49.3477 264.574 50.1406 265.137 50.7188C265.707 51.2891 266.496 51.5742 267.504 51.5742C268.34 51.5742 269.105 51.4883 269.801 51.3164C270.496 51.1445 271.211 50.8867 271.945 50.543V53.3086C271.297 53.6289 270.617 53.8633 269.906 54.0117C269.203 54.1602 268.348 54.2344 267.34 54.2344C266.027 54.2344 264.863 53.9922 263.848 53.5078C262.84 53.0234 262.047 52.2852 261.469 51.293C260.898 50.3008 260.613 49.0508 260.613 47.543C260.613 46.0117 260.871 44.7383 261.387 43.7227C261.91 42.6992 262.637 41.9336 263.566 41.4258C264.496 40.9102 265.578 40.6523 266.812 40.6523ZM266.836 43.1953C266.141 43.1953 265.562 43.418 265.102 43.8633C264.648 44.3086 264.387 45.0078 264.316 45.9609H269.332C269.324 45.4297 269.227 44.957 269.039 44.543C268.859 44.1289 268.586 43.8008 268.219 43.5586C267.859 43.3164 267.398 43.1953 266.836 43.1953ZM279.422 59.7656C277.594 59.7656 276.195 59.4453 275.227 58.8047C274.266 58.1719 273.785 57.2812 273.785 56.1328C273.785 55.3438 274.031 54.6836 274.523 54.1523C275.016 53.6211 275.738 53.2422 276.691 53.0156C276.324 52.8594 276.004 52.6055 275.73 52.2539C275.457 51.8945 275.32 51.5156 275.32 51.1172C275.32 50.6172 275.465 50.2031 275.754 49.875C276.043 49.5391 276.461 49.2109 277.008 48.8906C276.32 48.5938 275.773 48.1172 275.367 47.4609C274.969 46.8047 274.77 46.0312 274.77 45.1406C274.77 44.1875 274.977 43.3789 275.391 42.7148C275.812 42.043 276.422 41.5312 277.219 41.1797C278.023 40.8281 279 40.6523 280.148 40.6523C280.391 40.6523 280.672 40.668 280.992 40.6992C281.312 40.7305 281.605 40.7656 281.871 40.8047C282.145 40.8438 282.328 40.875 282.422 40.8984H286.992V42.7148L284.941 43.2422C285.129 43.5312 285.27 43.8398 285.363 44.168C285.457 44.4961 285.504 44.8438 285.504 45.2109C285.504 46.6172 285.012 47.7148 284.027 48.5039C283.051 49.2852 281.691 49.6758 279.949 49.6758C279.535 49.6523 279.145 49.6211 278.777 49.582C278.598 49.7227 278.461 49.8711 278.367 50.0273C278.273 50.1836 278.227 50.3477 278.227 50.5195C278.227 50.6914 278.297 50.8359 278.438 50.9531C278.586 51.0625 278.805 51.1484 279.094 51.2109C279.391 51.2656 279.758 51.293 280.195 51.293H282.422C283.859 51.293 284.953 51.6016 285.703 52.2188C286.461 52.8359 286.84 53.7422 286.84 54.9375C286.84 56.4688 286.199 57.6562 284.918 58.5C283.645 59.3438 281.812 59.7656 279.422 59.7656ZM279.574 57.4336C280.426 57.4336 281.156 57.3516 281.766 57.1875C282.383 57.0312 282.855 56.8047 283.184 56.5078C283.512 56.2188 283.676 55.8711 283.676 55.4648C283.676 55.1367 283.578 54.875 283.383 54.6797C283.195 54.4922 282.906 54.3594 282.516 54.2812C282.133 54.2031 281.641 54.1641 281.039 54.1641H279.188C278.75 54.1641 278.355 54.2344 278.004 54.375C277.66 54.5156 277.387 54.7109 277.184 54.9609C276.98 55.2188 276.879 55.5156 276.879 55.8516C276.879 56.3438 277.113 56.7305 277.582 57.0117C278.059 57.293 278.723 57.4336 279.574 57.4336ZM280.148 47.4961C280.82 47.4961 281.312 47.2891 281.625 46.875C281.938 46.4609 282.094 45.8984 282.094 45.1875C282.094 44.3984 281.93 43.8086 281.602 43.418C281.281 43.0195 280.797 42.8203 280.148 42.8203C279.492 42.8203 279 43.0195 278.672 43.418C278.344 43.8086 278.18 44.3984 278.18 45.1875C278.18 45.8984 278.34 46.4609 278.66 46.875C278.988 47.2891 279.484 47.4961 280.148 47.4961ZM296.473 40.6523C296.652 40.6523 296.859 40.6641 297.094 40.6875C297.336 40.7031 297.531 40.7266 297.68 40.7578L297.41 44.1094C297.293 44.0703 297.125 44.043 296.906 44.0273C296.695 44.0039 296.512 43.9922 296.355 43.9922C295.895 43.9922 295.445 44.0508 295.008 44.168C294.578 44.2852 294.191 44.4766 293.848 44.7422C293.504 45 293.23 45.3438 293.027 45.7734C292.832 46.1953 292.734 46.7148 292.734 47.332V54H289.16V40.8984H291.867L292.395 43.1016H292.57C292.828 42.6562 293.148 42.25 293.531 41.8828C293.922 41.5078 294.363 41.2109 294.855 40.9922C295.355 40.7656 295.895 40.6523 296.473 40.6523ZM303.633 40.8984V54H300.059V40.8984H303.633ZM301.852 35.7656C302.383 35.7656 302.84 35.8906 303.223 36.1406C303.605 36.3828 303.797 36.8398 303.797 37.5117C303.797 38.1758 303.605 38.6367 303.223 38.8945C302.84 39.1445 302.383 39.2695 301.852 39.2695C301.312 39.2695 300.852 39.1445 300.469 38.8945C300.094 38.6367 299.906 38.1758 299.906 37.5117C299.906 36.8398 300.094 36.3828 300.469 36.1406C300.852 35.8906 301.312 35.7656 301.852 35.7656ZM312.914 51.3867C313.305 51.3867 313.684 51.3477 314.051 51.2695C314.426 51.1914 314.797 51.0938 315.164 50.9766V53.6367C314.781 53.8086 314.305 53.9492 313.734 54.0586C313.172 54.1758 312.555 54.2344 311.883 54.2344C311.102 54.2344 310.398 54.1094 309.773 53.8594C309.156 53.6016 308.668 53.1602 308.309 52.5352C307.957 51.9023 307.781 51.0234 307.781 49.8984V43.582H306.07V42.0703L308.039 40.875L309.07 38.1094H311.355V40.8984H315.023V43.582H311.355V49.8984C311.355 50.3984 311.496 50.7734 311.777 51.0234C312.066 51.2656 312.445 51.3867 312.914 51.3867ZM315.949 40.8984H319.863L322.336 48.2695C322.414 48.5039 322.48 48.7422 322.535 48.9844C322.59 49.2266 322.637 49.4766 322.676 49.7344C322.715 49.9922 322.746 50.2617 322.77 50.543H322.84C322.887 50.1211 322.949 49.7266 323.027 49.3594C323.113 48.9922 323.219 48.6289 323.344 48.2695L325.77 40.8984H329.602L324.059 55.6758C323.723 56.582 323.285 57.3359 322.746 57.9375C322.207 58.5469 321.586 59.0039 320.883 59.3086C320.188 59.6133 319.422 59.7656 318.586 59.7656C318.18 59.7656 317.828 59.7422 317.531 59.6953C317.234 59.6562 316.98 59.6133 316.77 59.5664V56.7305C316.934 56.7695 317.141 56.8047 317.391 56.8359C317.641 56.8672 317.902 56.8828 318.176 56.8828C318.676 56.8828 319.105 56.7773 319.465 56.5664C319.824 56.3555 320.125 56.0703 320.367 55.7109C320.609 55.3594 320.801 54.9727 320.941 54.5508L321.152 53.9062L315.949 40.8984Z" fill="#032D6C"/>
<rect width="90" height="90" fill="#E6EDF8"/>
<path d="M44.4698 65.5226C44.8128 65.5226 45.1646 65.4456 45.5251 65.2916C45.8856 65.1376 46.177 64.9495 46.3992 64.7273L66.8637 44.2601C67.5235 43.6004 68.0327 42.9266 68.3915 42.2389C68.7485 41.5476 68.9269 40.7899 68.9269 39.9656C68.9269 39.1309 68.7485 38.3206 68.3915 37.5349C68.0327 36.7474 67.5235 36.0299 66.8637 35.3824L57.02 25.5386C56.3707 24.8789 55.7031 24.395 55.0171 24.087C54.3328 23.779 53.5733 23.625 52.7386 23.625C51.9143 23.625 51.1487 23.779 50.4417 24.087C49.7347 24.395 49.0688 24.878 48.4441 25.536L46.1551 27.825L51.0113 32.6944C51.5328 33.2071 51.9222 33.7899 52.1795 34.4426C52.435 35.0954 52.5627 35.7578 52.5627 36.4298C52.5627 37.7965 52.1156 38.927 51.2213 39.8213C50.3271 40.7155 49.1975 41.1618 47.8324 41.16C47.1587 41.16 46.5016 41.0576 45.8611 40.8529C45.2206 40.6481 44.6439 40.2894 44.1312 39.7766L39.1096 34.7734L27.7748 46.1055C27.5106 46.3715 27.312 46.6734 27.179 47.0111C27.0459 47.3489 26.9795 47.6901 26.9795 48.0349C26.9795 48.6544 27.1781 49.1645 27.5753 49.5653C27.9708 49.9678 28.4783 50.169 29.0978 50.169C29.4408 50.169 29.7926 50.092 30.1531 49.938C30.5136 49.7823 30.805 49.5932 31.0272 49.371L39.3458 41.0524L41.2043 42.9109L32.8988 51.2321C32.6328 51.4964 32.4333 51.7974 32.3003 52.1351C32.1691 52.4746 32.1035 52.8159 32.1035 53.1589C32.1035 53.7451 32.31 54.2448 32.723 54.6578C33.136 55.0708 33.6356 55.2781 34.2218 55.2799C34.5648 55.2799 34.9166 55.202 35.2771 55.0462C35.6376 54.8905 35.929 54.7024 36.1512 54.4819L45.0762 45.5726L46.9347 47.4285L38.0228 56.3535C37.7901 56.5757 37.5993 56.8671 37.4506 57.2276C37.3001 57.5881 37.2248 57.9399 37.2248 58.2829C37.2248 58.8674 37.4322 59.3661 37.847 59.7791C38.26 60.1956 38.7596 60.4039 39.3458 60.4039C39.6888 60.4039 40.0301 60.3374 40.3696 60.2044C40.7091 60.0714 41.0101 59.8719 41.2726 59.6059L50.1976 50.694L52.0561 52.5525L43.1311 61.4775C42.8668 61.7435 42.6682 62.0629 42.5352 62.4356C42.4022 62.8084 42.3357 63.1488 42.3357 63.4567C42.3357 64.0762 42.5536 64.5759 42.9893 64.9556C43.4251 65.3354 43.9186 65.5253 44.4698 65.5253M44.4541 68.1503C43.1048 68.1503 41.9498 67.6567 40.9891 66.6697C40.0283 65.681 39.6066 64.4613 39.7238 63.0105C38.2363 63.028 36.9982 62.5844 36.0095 61.6796C35.0207 60.7731 34.5508 59.5096 34.5998 57.8891C32.9793 57.9066 31.7018 57.4429 30.7673 56.4979C29.8328 55.5529 29.4076 54.3086 29.4916 52.7651C28.0321 52.7826 26.8106 52.3714 25.8271 51.5314C24.8453 50.6949 24.3545 49.5294 24.3545 48.0349C24.3545 47.3611 24.4848 46.6874 24.7456 46.0136C25.0063 45.3381 25.3913 44.7449 25.9006 44.2339L39.1096 31.0406L45.8873 37.8184C46.1096 38.0511 46.3843 38.2428 46.7116 38.3933C47.0388 38.5438 47.4072 38.6181 47.8167 38.6164C48.3785 38.6164 48.8746 38.4204 49.3051 38.0284C49.7356 37.6364 49.9517 37.1254 49.9535 36.4954C49.9535 36.0859 49.8782 35.7184 49.7277 35.3929C49.5772 35.0656 49.3865 34.7909 49.1555 34.5686L40.1255 25.5386C39.4745 24.8789 38.7981 24.395 38.0963 24.087C37.3946 23.779 36.6263 23.625 35.7916 23.625C34.9673 23.625 34.2183 23.779 33.5446 24.087C32.8726 24.395 32.2067 24.8789 31.547 25.5386L23.5565 33.5449C22.993 34.1049 22.538 34.7742 22.1915 35.553C21.845 36.33 21.6612 37.1324 21.6402 37.9601C21.6227 38.5534 21.6735 39.123 21.7925 39.669C21.9115 40.215 22.104 40.7295 22.37 41.2125L20.3802 43.2023C19.9392 42.4988 19.5945 41.6885 19.346 40.7715C19.0975 39.8545 18.9828 38.9182 19.0021 37.9627C19.0231 36.7692 19.262 35.6274 19.7187 34.5371C20.1755 33.4469 20.83 32.4747 21.6822 31.6208L29.6228 23.6801C30.5381 22.7736 31.5067 22.0999 32.5287 21.6589C33.5507 21.2196 34.6558 21 35.8441 21C37.0323 21 38.1278 21.2205 39.1306 21.6615C40.1351 22.1008 41.0906 22.7736 41.9971 23.6801L44.2808 25.9665L46.5698 23.6801C47.4851 22.7736 48.445 22.0999 49.4494 21.6589C50.454 21.2196 51.5503 21 52.7386 21C53.9268 21 55.0319 21.2205 56.054 21.6615C57.0742 22.1008 58.0367 22.7736 58.9415 23.6801L68.7222 33.4583C69.627 34.363 70.3252 35.3789 70.817 36.5059C71.3087 37.6329 71.5537 38.7905 71.5519 39.9788C71.5519 41.1688 71.307 42.2651 70.817 43.2679C70.327 44.2706 69.6287 45.2261 68.7222 46.1344L48.2551 66.5831C47.7108 67.1291 47.1176 67.5264 46.4753 67.7749C45.8348 68.0234 45.1611 68.1476 44.4541 68.1476" fill="#032D6C"/>
</svg>
