<svg width="261" height="260" viewBox="0 0 261 260" fill="none" xmlns="http://www.w3.org/2000/svg">
<rect width="261" height="260" fill="#E6EDF8"/>
<path d="M72.6797 194.242C72.6797 195.258 72.4336 196.141 71.9414 196.891C71.4492 197.641 70.7305 198.219 69.7852 198.625C68.8477 199.031 67.707 199.234 66.3633 199.234C65.7695 199.234 65.1875 199.195 64.6172 199.117C64.0547 199.039 63.5117 198.926 62.9883 198.777C62.4727 198.621 61.9805 198.43 61.5117 198.203V194.828C62.3242 195.188 63.168 195.512 64.043 195.801C64.918 196.09 65.7852 196.234 66.6445 196.234C67.2383 196.234 67.7148 196.156 68.0742 196C68.4414 195.844 68.707 195.629 68.8711 195.355C69.0352 195.082 69.1172 194.77 69.1172 194.418C69.1172 193.988 68.9727 193.621 68.6836 193.316C68.3945 193.012 67.9961 192.727 67.4883 192.461C66.9883 192.195 66.4219 191.91 65.7891 191.605C65.3906 191.418 64.957 191.191 64.4883 190.926C64.0195 190.652 63.5742 190.32 63.1523 189.93C62.7305 189.539 62.3828 189.066 62.1094 188.512C61.8438 187.949 61.7109 187.277 61.7109 186.496C61.7109 185.473 61.9453 184.598 62.4141 183.871C62.8828 183.145 63.5508 182.59 64.418 182.207C65.293 181.816 66.3242 181.621 67.5117 181.621C68.4023 181.621 69.25 181.727 70.0547 181.938C70.8672 182.141 71.7148 182.438 72.5977 182.828L71.4258 185.652C70.6367 185.332 69.9297 185.086 69.3047 184.914C68.6797 184.734 68.043 184.645 67.3945 184.645C66.9414 184.645 66.5547 184.719 66.2344 184.867C65.9141 185.008 65.6719 185.211 65.5078 185.477C65.3438 185.734 65.2617 186.035 65.2617 186.379C65.2617 186.785 65.3789 187.129 65.6133 187.41C65.8555 187.684 66.2148 187.949 66.6914 188.207C67.1758 188.465 67.7773 188.766 68.4961 189.109C69.3711 189.523 70.1172 189.957 70.7344 190.41C71.3594 190.855 71.8398 191.383 72.1758 191.992C72.5117 192.594 72.6797 193.344 72.6797 194.242ZM87.5273 185.898V199H84.7852L84.3047 197.324H84.1172C83.8359 197.77 83.4844 198.133 83.0625 198.414C82.6406 198.695 82.1758 198.902 81.668 199.035C81.1602 199.168 80.6328 199.234 80.0859 199.234C79.1484 199.234 78.332 199.07 77.6367 198.742C76.9414 198.406 76.3984 197.887 76.0078 197.184C75.625 196.48 75.4336 195.566 75.4336 194.441V185.898H79.0078V193.551C79.0078 194.488 79.1758 195.195 79.5117 195.672C79.8477 196.148 80.3828 196.387 81.1172 196.387C81.8438 196.387 82.4141 196.223 82.8281 195.895C83.2422 195.559 83.5312 195.07 83.6953 194.43C83.8672 193.781 83.9531 192.992 83.9531 192.062V185.898H87.5273ZM100.418 195.109C100.418 196 100.207 196.754 99.7852 197.371C99.3711 197.98 98.75 198.445 97.9219 198.766C97.0938 199.078 96.0625 199.234 94.8281 199.234C93.9141 199.234 93.1289 199.176 92.4727 199.059C91.8242 198.941 91.168 198.746 90.5039 198.473V195.52C91.2148 195.84 91.9766 196.105 92.7891 196.316C93.6094 196.52 94.3281 196.621 94.9453 196.621C95.6406 196.621 96.1367 196.52 96.4336 196.316C96.7383 196.105 96.8906 195.832 96.8906 195.496C96.8906 195.277 96.8281 195.082 96.7031 194.91C96.5859 194.73 96.3281 194.531 95.9297 194.312C95.5312 194.086 94.9062 193.793 94.0547 193.434C93.2344 193.09 92.5586 192.742 92.0273 192.391C91.5039 192.039 91.1133 191.625 90.8555 191.148C90.6055 190.664 90.4805 190.051 90.4805 189.309C90.4805 188.098 90.9492 187.188 91.8867 186.578C92.832 185.961 94.0938 185.652 95.6719 185.652C96.4844 185.652 97.2578 185.734 97.9922 185.898C98.7344 186.062 99.4961 186.324 100.277 186.684L99.1992 189.262C98.5508 188.98 97.9375 188.75 97.3594 188.57C96.7891 188.391 96.207 188.301 95.6133 188.301C95.0898 188.301 94.6953 188.371 94.4297 188.512C94.1641 188.652 94.0312 188.867 94.0312 189.156C94.0312 189.367 94.0977 189.555 94.2305 189.719C94.3711 189.883 94.6367 190.066 95.0273 190.27C95.4258 190.465 96.0078 190.719 96.7734 191.031C97.5156 191.336 98.1602 191.656 98.707 191.992C99.2539 192.32 99.6758 192.73 99.9727 193.223C100.27 193.707 100.418 194.336 100.418 195.109ZM108.727 196.387C109.117 196.387 109.496 196.348 109.863 196.27C110.238 196.191 110.609 196.094 110.977 195.977V198.637C110.594 198.809 110.117 198.949 109.547 199.059C108.984 199.176 108.367 199.234 107.695 199.234C106.914 199.234 106.211 199.109 105.586 198.859C104.969 198.602 104.48 198.16 104.121 197.535C103.77 196.902 103.594 196.023 103.594 194.898V188.582H101.883V187.07L103.852 185.875L104.883 183.109H107.168V185.898H110.836V188.582H107.168V194.898C107.168 195.398 107.309 195.773 107.59 196.023C107.879 196.266 108.258 196.387 108.727 196.387ZM119.004 185.629C120.762 185.629 122.109 186.012 123.047 186.777C123.984 187.543 124.453 188.707 124.453 190.27V199H121.957L121.266 197.219H121.172C120.797 197.688 120.414 198.07 120.023 198.367C119.633 198.664 119.184 198.883 118.676 199.023C118.168 199.164 117.551 199.234 116.824 199.234C116.051 199.234 115.355 199.086 114.738 198.789C114.129 198.492 113.648 198.039 113.297 197.43C112.945 196.812 112.77 196.031 112.77 195.086C112.77 193.695 113.258 192.672 114.234 192.016C115.211 191.352 116.676 190.984 118.629 190.914L120.902 190.844V190.27C120.902 189.582 120.723 189.078 120.363 188.758C120.004 188.438 119.504 188.277 118.863 188.277C118.23 188.277 117.609 188.367 117 188.547C116.391 188.727 115.781 188.953 115.172 189.227L113.988 186.812C114.684 186.445 115.461 186.156 116.32 185.945C117.188 185.734 118.082 185.629 119.004 185.629ZM120.902 192.93L119.52 192.977C118.363 193.008 117.559 193.215 117.105 193.598C116.66 193.98 116.438 194.484 116.438 195.109C116.438 195.656 116.598 196.047 116.918 196.281C117.238 196.508 117.656 196.621 118.172 196.621C118.938 196.621 119.582 196.395 120.105 195.941C120.637 195.488 120.902 194.844 120.902 194.008V192.93ZM131.719 185.898V199H128.145V185.898H131.719ZM129.938 180.766C130.469 180.766 130.926 180.891 131.309 181.141C131.691 181.383 131.883 181.84 131.883 182.512C131.883 183.176 131.691 183.637 131.309 183.895C130.926 184.145 130.469 184.27 129.938 184.27C129.398 184.27 128.938 184.145 128.555 183.895C128.18 183.637 127.992 183.176 127.992 182.512C127.992 181.84 128.18 181.383 128.555 181.141C128.938 180.891 129.398 180.766 129.938 180.766ZM142.922 185.652C144.32 185.652 145.445 186.035 146.297 186.801C147.148 187.559 147.574 188.777 147.574 190.457V199H144V191.348C144 190.41 143.828 189.703 143.484 189.227C143.148 188.75 142.617 188.512 141.891 188.512C140.797 188.512 140.051 188.883 139.652 189.625C139.254 190.367 139.055 191.438 139.055 192.836V199H135.48V185.898H138.211L138.691 187.574H138.891C139.172 187.121 139.52 186.754 139.934 186.473C140.355 186.191 140.82 185.984 141.328 185.852C141.844 185.719 142.375 185.652 142.922 185.652ZM156.621 185.629C158.379 185.629 159.727 186.012 160.664 186.777C161.602 187.543 162.07 188.707 162.07 190.27V199H159.574L158.883 197.219H158.789C158.414 197.688 158.031 198.07 157.641 198.367C157.25 198.664 156.801 198.883 156.293 199.023C155.785 199.164 155.168 199.234 154.441 199.234C153.668 199.234 152.973 199.086 152.355 198.789C151.746 198.492 151.266 198.039 150.914 197.43C150.562 196.812 150.387 196.031 150.387 195.086C150.387 193.695 150.875 192.672 151.852 192.016C152.828 191.352 154.293 190.984 156.246 190.914L158.52 190.844V190.27C158.52 189.582 158.34 189.078 157.98 188.758C157.621 188.438 157.121 188.277 156.48 188.277C155.848 188.277 155.227 188.367 154.617 188.547C154.008 188.727 153.398 188.953 152.789 189.227L151.605 186.812C152.301 186.445 153.078 186.156 153.938 185.945C154.805 185.734 155.699 185.629 156.621 185.629ZM158.52 192.93L157.137 192.977C155.98 193.008 155.176 193.215 154.723 193.598C154.277 193.98 154.055 194.484 154.055 195.109C154.055 195.656 154.215 196.047 154.535 196.281C154.855 196.508 155.273 196.621 155.789 196.621C156.555 196.621 157.199 196.395 157.723 195.941C158.254 195.488 158.52 194.844 158.52 194.008V192.93ZM169.336 180.766V185.008C169.336 185.5 169.32 185.988 169.289 186.473C169.266 186.957 169.234 187.332 169.195 187.598H169.336C169.68 187.059 170.148 186.602 170.742 186.227C171.336 185.844 172.105 185.652 173.051 185.652C174.52 185.652 175.711 186.227 176.625 187.375C177.539 188.523 177.996 190.207 177.996 192.426C177.996 193.918 177.785 195.172 177.363 196.188C176.941 197.195 176.352 197.957 175.594 198.473C174.836 198.98 173.957 199.234 172.957 199.234C171.996 199.234 171.238 199.062 170.684 198.719C170.129 198.375 169.68 197.988 169.336 197.559H169.09L168.492 199H165.762V180.766H169.336ZM171.902 188.512C171.277 188.512 170.781 188.641 170.414 188.898C170.047 189.156 169.777 189.543 169.605 190.059C169.441 190.574 169.352 191.227 169.336 192.016V192.402C169.336 193.676 169.523 194.652 169.898 195.332C170.273 196.004 170.957 196.34 171.949 196.34C172.684 196.34 173.266 196 173.695 195.32C174.133 194.641 174.352 193.66 174.352 192.379C174.352 191.098 174.133 190.133 173.695 189.484C173.258 188.836 172.66 188.512 171.902 188.512ZM184.523 199H180.949V180.766H184.523V199ZM193.688 185.652C194.898 185.652 195.941 185.887 196.816 186.355C197.691 186.816 198.367 187.488 198.844 188.371C199.32 189.254 199.559 190.332 199.559 191.605V193.34H191.109C191.148 194.348 191.449 195.141 192.012 195.719C192.582 196.289 193.371 196.574 194.379 196.574C195.215 196.574 195.98 196.488 196.676 196.316C197.371 196.145 198.086 195.887 198.82 195.543V198.309C198.172 198.629 197.492 198.863 196.781 199.012C196.078 199.16 195.223 199.234 194.215 199.234C192.902 199.234 191.738 198.992 190.723 198.508C189.715 198.023 188.922 197.285 188.344 196.293C187.773 195.301 187.488 194.051 187.488 192.543C187.488 191.012 187.746 189.738 188.262 188.723C188.785 187.699 189.512 186.934 190.441 186.426C191.371 185.91 192.453 185.652 193.688 185.652ZM193.711 188.195C193.016 188.195 192.438 188.418 191.977 188.863C191.523 189.309 191.262 190.008 191.191 190.961H196.207C196.199 190.43 196.102 189.957 195.914 189.543C195.734 189.129 195.461 188.801 195.094 188.559C194.734 188.316 194.273 188.195 193.711 188.195ZM96.1172 231H92.543V213.867H102.363V216.844H96.1172V221.262H101.93V224.227H96.1172V231ZM117.457 217.898V231H114.715L114.234 229.324H114.047C113.766 229.77 113.414 230.133 112.992 230.414C112.57 230.695 112.105 230.902 111.598 231.035C111.09 231.168 110.562 231.234 110.016 231.234C109.078 231.234 108.262 231.07 107.566 230.742C106.871 230.406 106.328 229.887 105.938 229.184C105.555 228.48 105.363 227.566 105.363 226.441V217.898H108.938V225.551C108.938 226.488 109.105 227.195 109.441 227.672C109.777 228.148 110.312 228.387 111.047 228.387C111.773 228.387 112.344 228.223 112.758 227.895C113.172 227.559 113.461 227.07 113.625 226.43C113.797 225.781 113.883 224.992 113.883 224.062V217.898H117.457ZM126.727 228.387C127.117 228.387 127.496 228.348 127.863 228.27C128.238 228.191 128.609 228.094 128.977 227.977V230.637C128.594 230.809 128.117 230.949 127.547 231.059C126.984 231.176 126.367 231.234 125.695 231.234C124.914 231.234 124.211 231.109 123.586 230.859C122.969 230.602 122.48 230.16 122.121 229.535C121.77 228.902 121.594 228.023 121.594 226.898V220.582H119.883V219.07L121.852 217.875L122.883 215.109H125.168V217.898H128.836V220.582H125.168V226.898C125.168 227.398 125.309 227.773 125.59 228.023C125.879 228.266 126.258 228.387 126.727 228.387ZM143.66 217.898V231H140.918L140.438 229.324H140.25C139.969 229.77 139.617 230.133 139.195 230.414C138.773 230.695 138.309 230.902 137.801 231.035C137.293 231.168 136.766 231.234 136.219 231.234C135.281 231.234 134.465 231.07 133.77 230.742C133.074 230.406 132.531 229.887 132.141 229.184C131.758 228.48 131.566 227.566 131.566 226.441V217.898H135.141V225.551C135.141 226.488 135.309 227.195 135.645 227.672C135.98 228.148 136.516 228.387 137.25 228.387C137.977 228.387 138.547 228.223 138.961 227.895C139.375 227.559 139.664 227.07 139.828 226.43C140 225.781 140.086 224.992 140.086 224.062V217.898H143.66ZM154.723 217.652C154.902 217.652 155.109 217.664 155.344 217.688C155.586 217.703 155.781 217.727 155.93 217.758L155.66 221.109C155.543 221.07 155.375 221.043 155.156 221.027C154.945 221.004 154.762 220.992 154.605 220.992C154.145 220.992 153.695 221.051 153.258 221.168C152.828 221.285 152.441 221.477 152.098 221.742C151.754 222 151.48 222.344 151.277 222.773C151.082 223.195 150.984 223.715 150.984 224.332V231H147.41V217.898H150.117L150.645 220.102H150.82C151.078 219.656 151.398 219.25 151.781 218.883C152.172 218.508 152.613 218.211 153.105 217.992C153.605 217.766 154.145 217.652 154.723 217.652ZM163.711 217.652C164.922 217.652 165.965 217.887 166.84 218.355C167.715 218.816 168.391 219.488 168.867 220.371C169.344 221.254 169.582 222.332 169.582 223.605V225.34H161.133C161.172 226.348 161.473 227.141 162.035 227.719C162.605 228.289 163.395 228.574 164.402 228.574C165.238 228.574 166.004 228.488 166.699 228.316C167.395 228.145 168.109 227.887 168.844 227.543V230.309C168.195 230.629 167.516 230.863 166.805 231.012C166.102 231.16 165.246 231.234 164.238 231.234C162.926 231.234 161.762 230.992 160.746 230.508C159.738 230.023 158.945 229.285 158.367 228.293C157.797 227.301 157.512 226.051 157.512 224.543C157.512 223.012 157.77 221.738 158.285 220.723C158.809 219.699 159.535 218.934 160.465 218.426C161.395 217.91 162.477 217.652 163.711 217.652ZM163.734 220.195C163.039 220.195 162.461 220.418 162 220.863C161.547 221.309 161.285 222.008 161.215 222.961H166.23C166.223 222.43 166.125 221.957 165.938 221.543C165.758 221.129 165.484 220.801 165.117 220.559C164.758 220.316 164.297 220.195 163.734 220.195Z" fill="#032D6C"/>
<path d="M135.344 100.386C132.417 97.5966 128.233 96.7079 124.425 98.0684C119.744 99.7401 116.599 104.203 116.599 109.173V113.141C116.599 118.491 120.952 122.844 126.301 122.844C129.844 122.844 133.103 120.914 134.808 117.808L137.332 113.206C139.65 108.982 138.832 103.71 135.344 100.386ZM132.948 110.801L130.424 115.403C129.598 116.909 128.018 117.844 126.301 117.844C123.709 117.844 121.599 115.734 121.599 113.142V109.174C121.599 106.311 123.411 103.74 126.107 102.777C126.732 102.554 127.377 102.445 128.015 102.445C129.436 102.445 130.824 102.985 131.895 104.006C133.744 105.768 134.177 108.562 132.948 110.801Z" fill="#032D6C"/>
<path d="M171.379 141.679L164.397 148.661C163.421 149.638 163.42 151.221 164.397 152.197C164.885 152.685 165.525 152.929 166.165 152.929C166.804 152.929 167.444 152.685 167.932 152.197L174.915 145.215C175.891 144.239 175.891 142.656 174.915 141.679C173.938 140.703 172.355 140.703 171.379 141.679Z" fill="#032D6C"/>
<path d="M191.954 87.2184C190.019 85.5901 187.48 84.9041 184.987 85.3383C180.883 86.0521 177.904 89.5936 177.904 93.7597V98.6745C174.925 92.2346 170.621 86.4188 165.211 81.6346L169.649 76.0033C171.698 77.0828 174.028 77.6973 176.501 77.6973C183.789 77.6973 189.991 72.2827 191.078 65.1814C193.546 62.9386 194.992 59.7173 194.992 56.3588C194.992 49.7955 189.652 44.4559 183.089 44.4559C179.73 44.4559 176.509 45.9012 174.266 48.37C167.165 49.457 161.75 55.6583 161.75 62.9471C161.75 66.8089 163.244 70.3272 165.682 72.9592L161.31 78.5068C153.203 72.6292 143.546 69.2292 133.5 68.7439V61.8061C135.743 63.1019 138.311 63.8039 141.003 63.8039C149.288 63.8039 156.028 57.0636 156.028 48.7785C156.028 42.3124 151.929 36.6459 145.913 34.5751C143.266 28.7988 137.427 25 131 25C124.573 25 118.734 28.7985 116.087 34.5751C110.07 36.6456 105.971 42.3122 105.971 48.7785C105.971 57.0636 112.712 63.8039 120.997 63.8039C123.689 63.8039 126.256 63.1019 128.5 61.8061V68.7437C118.455 69.2289 108.797 72.6287 100.69 78.5063L96.3183 72.959C98.7558 70.3269 100.25 66.8087 100.25 62.9469C100.25 55.6583 94.835 49.4567 87.734 48.3697C85.4912 45.901 82.2699 44.4557 78.9114 44.4557C72.3481 44.4557 67.0083 49.7952 67.0083 56.3586C67.0083 59.7171 68.4535 62.9384 70.9223 65.1811C72.0093 72.2822 78.2106 77.697 85.4994 77.697C87.9717 77.697 90.3022 77.0825 92.351 76.003L96.7885 81.6343C91.3795 86.4181 87.0752 92.2339 84.0957 98.6737V93.7594C84.0957 89.5939 81.1169 86.0521 77.0126 85.3378C74.5206 84.9051 71.9813 85.5898 70.0455 87.2181C68.11 88.8461 67 91.2304 67 93.7597V107.974C67 119.037 71.308 129.438 79.1306 137.26L94.0675 152.197C94.5558 152.685 95.1955 152.929 95.8353 152.929C96.475 152.929 97.115 152.685 97.6031 152.197C98.5793 151.221 98.5793 149.638 97.6031 148.661L82.6659 133.725C75.7881 126.846 72 117.701 72 107.974V93.7597C72 92.7102 72.4608 91.7204 73.2643 91.0449C74.0676 90.3689 75.1213 90.0851 76.1561 90.2644C77.8594 90.5609 79.0959 92.0306 79.0959 93.7597V109.632C79.0959 114.734 81.0829 119.531 84.6907 123.139L98.2503 136.699L99.2581 137.706C100.235 138.682 101.817 138.683 102.794 137.706C103.77 136.73 103.77 135.147 102.794 134.171L88.609 119.986C86.9454 118.322 86.9454 115.616 88.609 113.952C90.2722 112.289 92.979 112.289 94.6423 113.952L106.01 125.32C106.478 125.788 107.114 126.052 107.777 126.052C112.621 126.052 117.175 127.938 120.6 131.363C125.695 136.458 128.5 143.231 128.5 150.436C128.5 151.817 129.62 152.936 131 152.936C132.381 152.936 133.5 151.817 133.5 150.436C133.5 143.231 136.306 136.458 141.401 131.363C144.826 127.938 149.379 126.052 154.223 126.052C154.886 126.052 155.522 125.788 155.991 125.32L167.358 113.952C169.021 112.289 171.728 112.289 173.392 113.952C175.055 115.616 175.055 118.322 173.392 119.986L159.207 134.171C158.23 135.147 158.23 136.73 159.207 137.706C159.695 138.194 160.335 138.439 160.974 138.439C161.614 138.439 162.254 138.194 162.742 137.706L163.75 136.699L177.31 123.139C180.917 119.531 182.904 114.734 182.904 109.632V93.7597C182.904 92.0306 184.141 90.5606 185.844 90.2646C186.878 90.0844 187.932 90.3686 188.736 91.0449C189.539 91.7204 190 92.7102 190 93.7597V107.974C190 113.998 188.487 119.983 185.624 125.283C184.967 126.497 185.42 128.015 186.635 128.671C187.849 129.326 189.366 128.874 190.023 127.659C193.279 121.631 195 114.824 195 107.974V93.7597C195 91.2304 193.89 88.8461 191.954 87.2184ZM175.742 53.2298C176.461 53.1745 177.122 52.8113 177.553 52.2333C178.872 50.468 180.889 49.456 183.088 49.456C186.895 49.456 189.991 52.5528 189.991 56.3588C189.991 58.5581 188.979 60.5753 187.214 61.8941C186.636 62.3261 186.273 62.9864 186.217 63.7056C185.83 68.7477 181.562 72.6972 176.5 72.6972C171.124 72.6972 166.75 68.3234 166.75 62.9471C166.75 57.8853 170.7 53.617 175.742 53.2298ZM110.971 48.7785C110.971 44.1714 114.088 40.1731 118.551 39.0549C119.355 38.8534 120.008 38.2661 120.292 37.4871C121.927 33.0088 126.23 30 131 30C135.77 30 140.073 33.0088 141.708 37.4871C141.992 38.2659 142.644 38.8534 143.449 39.0549C147.912 40.1731 151.028 44.1714 151.028 48.7785C151.028 54.3063 146.531 58.8038 141.003 58.8038C138.332 58.8038 135.844 57.7691 133.98 55.9291L138.507 51.4028C139.483 50.4265 139.483 48.8435 138.507 47.867C137.53 46.891 135.947 46.891 134.971 47.867L133.5 49.3382V40.9284C133.5 39.5479 132.38 38.4284 131 38.4284C129.619 38.4284 128.5 39.5479 128.5 40.9284V51.86L124.517 47.8777C123.541 46.9017 121.958 46.9017 120.982 47.8777C120.005 48.854 120.005 50.437 120.982 51.4135L126.637 57.0691C124.999 58.1893 123.052 58.8036 120.996 58.8036C115.469 58.8036 110.971 54.3063 110.971 48.7785ZM75.7823 63.7056C75.7271 62.9864 75.3638 62.3259 74.7858 61.8941C73.0206 60.5756 72.0083 58.5581 72.0083 56.3588C72.0083 52.5525 75.1051 49.456 78.9114 49.456C81.1106 49.456 83.1282 50.4682 84.4464 52.2333C84.8782 52.8115 85.5387 53.1748 86.2579 53.2298C91.3 53.617 95.2495 57.8851 95.2495 62.9469C95.2495 68.3232 90.8757 72.697 85.4994 72.697C80.4379 72.6972 76.1696 68.7477 75.7823 63.7056ZM85.4847 110.032C86.9587 103.513 89.802 97.5352 93.6778 92.3917H100.895C104.297 92.3917 107.065 95.1594 107.065 98.562C107.065 100.508 106.131 102.362 104.567 103.52C101.92 105.481 100.033 108.277 99.1543 111.394L98.1776 110.417C94.6985 106.938 89.1195 106.811 85.4847 110.032ZM153.164 121.076C147.382 121.334 141.983 123.709 137.865 127.828C134.896 130.797 132.585 134.247 131 138.002C129.416 134.247 127.104 130.796 124.136 127.828C120.017 123.709 114.618 121.334 108.837 121.076L103.597 115.836V115.371C103.597 112.296 105.072 109.368 107.543 107.538C110.375 105.441 112.065 102.085 112.065 98.5617C112.065 92.4024 107.054 87.3914 100.895 87.3914H98.0288C106.545 78.8958 118.275 73.6817 131 73.6817C139.705 73.6817 147.943 76.1195 155.005 80.378C147.803 82.5443 142.54 89.2334 142.54 97.1317C142.54 103.104 145.537 108.601 150.558 111.837L155.757 115.187C156.418 115.613 156.999 116.145 157.483 116.755L153.164 121.076ZM163.822 110.417L161.032 113.207C160.288 112.354 159.426 111.604 158.466 110.985L153.266 107.634C149.681 105.324 147.54 101.397 147.54 97.1322C147.54 90.2429 153.145 84.6381 160.034 84.6381H160.965C168.617 91.0561 174.223 99.889 176.516 110.032C172.881 106.811 167.302 106.938 163.822 110.417Z" fill="#032D6C"/>
<path d="M181.103 132.994C180.443 132.994 179.798 133.259 179.333 133.724C178.868 134.189 178.603 134.834 178.603 135.494C178.603 136.151 178.868 136.794 179.333 137.261C179.801 137.726 180.443 137.994 181.103 137.994C181.761 137.994 182.403 137.726 182.871 137.261C183.336 136.794 183.603 136.151 183.603 135.494C183.603 134.834 183.336 134.191 182.871 133.724C182.403 133.259 181.761 132.994 181.103 132.994Z" fill="#032D6C"/>
</svg>
