<svg width="261" height="260" viewBox="0 0 261 260" fill="none" xmlns="http://www.w3.org/2000/svg">
<rect width="261" height="260" fill="#E6EDF8"/>
<path d="M80.1562 198H76.582V180.867H86.4023V183.844H80.1562V188.262H85.9688V191.227H80.1562V198ZM101.379 191.426C101.379 192.52 101.23 193.488 100.934 194.332C100.645 195.176 100.219 195.891 99.6562 196.477C99.1016 197.055 98.4297 197.492 97.6406 197.789C96.8594 198.086 95.9766 198.234 94.9922 198.234C94.0703 198.234 93.2227 198.086 92.4492 197.789C91.6836 197.492 91.0156 197.055 90.4453 196.477C89.8828 195.891 89.4453 195.176 89.1328 194.332C88.8281 193.488 88.6758 192.52 88.6758 191.426C88.6758 189.973 88.9336 188.742 89.4492 187.734C89.9648 186.727 90.6992 185.961 91.6523 185.438C92.6055 184.914 93.7422 184.652 95.0625 184.652C96.2891 184.652 97.375 184.914 98.3203 185.438C99.2734 185.961 100.02 186.727 100.559 187.734C101.105 188.742 101.379 189.973 101.379 191.426ZM92.3203 191.426C92.3203 192.285 92.4141 193.008 92.6016 193.594C92.7891 194.18 93.082 194.621 93.4805 194.918C93.8789 195.215 94.3984 195.363 95.0391 195.363C95.6719 195.363 96.1836 195.215 96.5742 194.918C96.9727 194.621 97.2617 194.18 97.4414 193.594C97.6289 193.008 97.7227 192.285 97.7227 191.426C97.7227 190.559 97.6289 189.84 97.4414 189.27C97.2617 188.691 96.9727 188.258 96.5742 187.969C96.1758 187.68 95.6562 187.535 95.0156 187.535C94.0703 187.535 93.3828 187.859 92.9531 188.508C92.5312 189.156 92.3203 190.129 92.3203 191.426ZM113.473 194.109C113.473 195 113.262 195.754 112.84 196.371C112.426 196.98 111.805 197.445 110.977 197.766C110.148 198.078 109.117 198.234 107.883 198.234C106.969 198.234 106.184 198.176 105.527 198.059C104.879 197.941 104.223 197.746 103.559 197.473V194.52C104.27 194.84 105.031 195.105 105.844 195.316C106.664 195.52 107.383 195.621 108 195.621C108.695 195.621 109.191 195.52 109.488 195.316C109.793 195.105 109.945 194.832 109.945 194.496C109.945 194.277 109.883 194.082 109.758 193.91C109.641 193.73 109.383 193.531 108.984 193.312C108.586 193.086 107.961 192.793 107.109 192.434C106.289 192.09 105.613 191.742 105.082 191.391C104.559 191.039 104.168 190.625 103.91 190.148C103.66 189.664 103.535 189.051 103.535 188.309C103.535 187.098 104.004 186.188 104.941 185.578C105.887 184.961 107.148 184.652 108.727 184.652C109.539 184.652 110.312 184.734 111.047 184.898C111.789 185.062 112.551 185.324 113.332 185.684L112.254 188.262C111.605 187.98 110.992 187.75 110.414 187.57C109.844 187.391 109.262 187.301 108.668 187.301C108.145 187.301 107.75 187.371 107.484 187.512C107.219 187.652 107.086 187.867 107.086 188.156C107.086 188.367 107.152 188.555 107.285 188.719C107.426 188.883 107.691 189.066 108.082 189.27C108.48 189.465 109.062 189.719 109.828 190.031C110.57 190.336 111.215 190.656 111.762 190.992C112.309 191.32 112.73 191.73 113.027 192.223C113.324 192.707 113.473 193.336 113.473 194.109ZM121.781 195.387C122.172 195.387 122.551 195.348 122.918 195.27C123.293 195.191 123.664 195.094 124.031 194.977V197.637C123.648 197.809 123.172 197.949 122.602 198.059C122.039 198.176 121.422 198.234 120.75 198.234C119.969 198.234 119.266 198.109 118.641 197.859C118.023 197.602 117.535 197.16 117.176 196.535C116.824 195.902 116.648 195.023 116.648 193.898V187.582H114.938V186.07L116.906 184.875L117.938 182.109H120.223V184.898H123.891V187.582H120.223V193.898C120.223 194.398 120.363 194.773 120.645 195.023C120.934 195.266 121.312 195.387 121.781 195.387ZM132.094 184.652C133.305 184.652 134.348 184.887 135.223 185.355C136.098 185.816 136.773 186.488 137.25 187.371C137.727 188.254 137.965 189.332 137.965 190.605V192.34H129.516C129.555 193.348 129.855 194.141 130.418 194.719C130.988 195.289 131.777 195.574 132.785 195.574C133.621 195.574 134.387 195.488 135.082 195.316C135.777 195.145 136.492 194.887 137.227 194.543V197.309C136.578 197.629 135.898 197.863 135.188 198.012C134.484 198.16 133.629 198.234 132.621 198.234C131.309 198.234 130.145 197.992 129.129 197.508C128.121 197.023 127.328 196.285 126.75 195.293C126.18 194.301 125.895 193.051 125.895 191.543C125.895 190.012 126.152 188.738 126.668 187.723C127.191 186.699 127.918 185.934 128.848 185.426C129.777 184.91 130.859 184.652 132.094 184.652ZM132.117 187.195C131.422 187.195 130.844 187.418 130.383 187.863C129.93 188.309 129.668 189.008 129.598 189.961H134.613C134.605 189.43 134.508 188.957 134.32 188.543C134.141 188.129 133.867 187.801 133.5 187.559C133.141 187.316 132.68 187.195 132.117 187.195ZM148.184 184.652C148.363 184.652 148.57 184.664 148.805 184.688C149.047 184.703 149.242 184.727 149.391 184.758L149.121 188.109C149.004 188.07 148.836 188.043 148.617 188.027C148.406 188.004 148.223 187.992 148.066 187.992C147.605 187.992 147.156 188.051 146.719 188.168C146.289 188.285 145.902 188.477 145.559 188.742C145.215 189 144.941 189.344 144.738 189.773C144.543 190.195 144.445 190.715 144.445 191.332V198H140.871V184.898H143.578L144.105 187.102H144.281C144.539 186.656 144.859 186.25 145.242 185.883C145.633 185.508 146.074 185.211 146.566 184.992C147.066 184.766 147.605 184.652 148.184 184.652ZM155.344 184.898V198H151.77V184.898H155.344ZM153.562 179.766C154.094 179.766 154.551 179.891 154.934 180.141C155.316 180.383 155.508 180.84 155.508 181.512C155.508 182.176 155.316 182.637 154.934 182.895C154.551 183.145 154.094 183.27 153.562 183.27C153.023 183.27 152.562 183.145 152.18 182.895C151.805 182.637 151.617 182.176 151.617 181.512C151.617 180.84 151.805 180.383 152.18 180.141C152.562 179.891 153.023 179.766 153.562 179.766ZM166.547 184.652C167.945 184.652 169.07 185.035 169.922 185.801C170.773 186.559 171.199 187.777 171.199 189.457V198H167.625V190.348C167.625 189.41 167.453 188.703 167.109 188.227C166.773 187.75 166.242 187.512 165.516 187.512C164.422 187.512 163.676 187.883 163.277 188.625C162.879 189.367 162.68 190.438 162.68 191.836V198H159.105V184.898H161.836L162.316 186.574H162.516C162.797 186.121 163.145 185.754 163.559 185.473C163.98 185.191 164.445 184.984 164.953 184.852C165.469 184.719 166 184.652 166.547 184.652ZM178.711 203.766C176.883 203.766 175.484 203.445 174.516 202.805C173.555 202.172 173.074 201.281 173.074 200.133C173.074 199.344 173.32 198.684 173.812 198.152C174.305 197.621 175.027 197.242 175.98 197.016C175.613 196.859 175.293 196.605 175.02 196.254C174.746 195.895 174.609 195.516 174.609 195.117C174.609 194.617 174.754 194.203 175.043 193.875C175.332 193.539 175.75 193.211 176.297 192.891C175.609 192.594 175.062 192.117 174.656 191.461C174.258 190.805 174.059 190.031 174.059 189.141C174.059 188.188 174.266 187.379 174.68 186.715C175.102 186.043 175.711 185.531 176.508 185.18C177.312 184.828 178.289 184.652 179.438 184.652C179.68 184.652 179.961 184.668 180.281 184.699C180.602 184.73 180.895 184.766 181.16 184.805C181.434 184.844 181.617 184.875 181.711 184.898H186.281V186.715L184.23 187.242C184.418 187.531 184.559 187.84 184.652 188.168C184.746 188.496 184.793 188.844 184.793 189.211C184.793 190.617 184.301 191.715 183.316 192.504C182.34 193.285 180.98 193.676 179.238 193.676C178.824 193.652 178.434 193.621 178.066 193.582C177.887 193.723 177.75 193.871 177.656 194.027C177.562 194.184 177.516 194.348 177.516 194.52C177.516 194.691 177.586 194.836 177.727 194.953C177.875 195.062 178.094 195.148 178.383 195.211C178.68 195.266 179.047 195.293 179.484 195.293H181.711C183.148 195.293 184.242 195.602 184.992 196.219C185.75 196.836 186.129 197.742 186.129 198.938C186.129 200.469 185.488 201.656 184.207 202.5C182.934 203.344 181.102 203.766 178.711 203.766ZM178.863 201.434C179.715 201.434 180.445 201.352 181.055 201.188C181.672 201.031 182.145 200.805 182.473 200.508C182.801 200.219 182.965 199.871 182.965 199.465C182.965 199.137 182.867 198.875 182.672 198.68C182.484 198.492 182.195 198.359 181.805 198.281C181.422 198.203 180.93 198.164 180.328 198.164H178.477C178.039 198.164 177.645 198.234 177.293 198.375C176.949 198.516 176.676 198.711 176.473 198.961C176.27 199.219 176.168 199.516 176.168 199.852C176.168 200.344 176.402 200.73 176.871 201.012C177.348 201.293 178.012 201.434 178.863 201.434ZM179.438 191.496C180.109 191.496 180.602 191.289 180.914 190.875C181.227 190.461 181.383 189.898 181.383 189.188C181.383 188.398 181.219 187.809 180.891 187.418C180.57 187.02 180.086 186.82 179.438 186.82C178.781 186.82 178.289 187.02 177.961 187.418C177.633 187.809 177.469 188.398 177.469 189.188C177.469 189.898 177.629 190.461 177.949 190.875C178.277 191.289 178.773 191.496 179.438 191.496ZM80.0156 230H70.1484V212.867H80.0156V215.844H73.7812V219.605H79.582V222.582H73.7812V227H80.0156V230ZM86.0039 223.309L81.7852 216.898H85.8398L88.3828 221.07L90.9492 216.898H95.0039L90.7383 223.309L95.2031 230H91.1367L88.3828 225.512L85.6172 230H81.5625L86.0039 223.309ZM102.516 230.234C101.219 230.234 100.113 230 99.1992 229.531C98.2852 229.055 97.5898 228.32 97.1133 227.328C96.6367 226.336 96.3984 225.066 96.3984 223.52C96.3984 221.918 96.668 220.613 97.207 219.605C97.7539 218.59 98.5078 217.844 99.4688 217.367C100.438 216.891 101.559 216.652 102.832 216.652C103.738 216.652 104.52 216.742 105.176 216.922C105.84 217.094 106.418 217.301 106.91 217.543L105.855 220.309C105.293 220.082 104.77 219.898 104.285 219.758C103.801 219.609 103.316 219.535 102.832 219.535C102.207 219.535 101.688 219.684 101.273 219.98C100.859 220.27 100.551 220.707 100.348 221.293C100.145 221.879 100.043 222.613 100.043 223.496C100.043 224.363 100.152 225.082 100.371 225.652C100.59 226.223 100.906 226.648 101.32 226.93C101.734 227.203 102.238 227.34 102.832 227.34C103.574 227.34 104.234 227.242 104.812 227.047C105.391 226.844 105.953 226.562 106.5 226.203V229.262C105.953 229.605 105.379 229.852 104.777 230C104.184 230.156 103.43 230.234 102.516 230.234ZM114.949 216.652C116.16 216.652 117.203 216.887 118.078 217.355C118.953 217.816 119.629 218.488 120.105 219.371C120.582 220.254 120.82 221.332 120.82 222.605V224.34H112.371C112.41 225.348 112.711 226.141 113.273 226.719C113.844 227.289 114.633 227.574 115.641 227.574C116.477 227.574 117.242 227.488 117.938 227.316C118.633 227.145 119.348 226.887 120.082 226.543V229.309C119.434 229.629 118.754 229.863 118.043 230.012C117.34 230.16 116.484 230.234 115.477 230.234C114.164 230.234 113 229.992 111.984 229.508C110.977 229.023 110.184 228.285 109.605 227.293C109.035 226.301 108.75 225.051 108.75 223.543C108.75 222.012 109.008 220.738 109.523 219.723C110.047 218.699 110.773 217.934 111.703 217.426C112.633 216.91 113.715 216.652 114.949 216.652ZM114.973 219.195C114.277 219.195 113.699 219.418 113.238 219.863C112.785 220.309 112.523 221.008 112.453 221.961H117.469C117.461 221.43 117.363 220.957 117.176 220.543C116.996 220.129 116.723 219.801 116.355 219.559C115.996 219.316 115.535 219.195 114.973 219.195ZM127.301 230H123.727V211.766H127.301V230ZM134.637 230H131.062V211.766H134.637V230ZM143.801 216.652C145.012 216.652 146.055 216.887 146.93 217.355C147.805 217.816 148.48 218.488 148.957 219.371C149.434 220.254 149.672 221.332 149.672 222.605V224.34H141.223C141.262 225.348 141.562 226.141 142.125 226.719C142.695 227.289 143.484 227.574 144.492 227.574C145.328 227.574 146.094 227.488 146.789 227.316C147.484 227.145 148.199 226.887 148.934 226.543V229.309C148.285 229.629 147.605 229.863 146.895 230.012C146.191 230.16 145.336 230.234 144.328 230.234C143.016 230.234 141.852 229.992 140.836 229.508C139.828 229.023 139.035 228.285 138.457 227.293C137.887 226.301 137.602 225.051 137.602 223.543C137.602 222.012 137.859 220.738 138.375 219.723C138.898 218.699 139.625 217.934 140.555 217.426C141.484 216.91 142.566 216.652 143.801 216.652ZM143.824 219.195C143.129 219.195 142.551 219.418 142.09 219.863C141.637 220.309 141.375 221.008 141.305 221.961H146.32C146.312 221.43 146.215 220.957 146.027 220.543C145.848 220.129 145.574 219.801 145.207 219.559C144.848 219.316 144.387 219.195 143.824 219.195ZM160.02 216.652C161.418 216.652 162.543 217.035 163.395 217.801C164.246 218.559 164.672 219.777 164.672 221.457V230H161.098V222.348C161.098 221.41 160.926 220.703 160.582 220.227C160.246 219.75 159.715 219.512 158.988 219.512C157.895 219.512 157.148 219.883 156.75 220.625C156.352 221.367 156.152 222.438 156.152 223.836V230H152.578V216.898H155.309L155.789 218.574H155.988C156.27 218.121 156.617 217.754 157.031 217.473C157.453 217.191 157.918 216.984 158.426 216.852C158.941 216.719 159.473 216.652 160.02 216.652ZM173.672 230.234C172.375 230.234 171.27 230 170.355 229.531C169.441 229.055 168.746 228.32 168.27 227.328C167.793 226.336 167.555 225.066 167.555 223.52C167.555 221.918 167.824 220.613 168.363 219.605C168.91 218.59 169.664 217.844 170.625 217.367C171.594 216.891 172.715 216.652 173.988 216.652C174.895 216.652 175.676 216.742 176.332 216.922C176.996 217.094 177.574 217.301 178.066 217.543L177.012 220.309C176.449 220.082 175.926 219.898 175.441 219.758C174.957 219.609 174.473 219.535 173.988 219.535C173.363 219.535 172.844 219.684 172.43 219.98C172.016 220.27 171.707 220.707 171.504 221.293C171.301 221.879 171.199 222.613 171.199 223.496C171.199 224.363 171.309 225.082 171.527 225.652C171.746 226.223 172.062 226.648 172.477 226.93C172.891 227.203 173.395 227.34 173.988 227.34C174.73 227.34 175.391 227.242 175.969 227.047C176.547 226.844 177.109 226.562 177.656 226.203V229.262C177.109 229.605 176.535 229.852 175.934 230C175.34 230.156 174.586 230.234 173.672 230.234ZM186.105 216.652C187.316 216.652 188.359 216.887 189.234 217.355C190.109 217.816 190.785 218.488 191.262 219.371C191.738 220.254 191.977 221.332 191.977 222.605V224.34H183.527C183.566 225.348 183.867 226.141 184.43 226.719C185 227.289 185.789 227.574 186.797 227.574C187.633 227.574 188.398 227.488 189.094 227.316C189.789 227.145 190.504 226.887 191.238 226.543V229.309C190.59 229.629 189.91 229.863 189.199 230.012C188.496 230.16 187.641 230.234 186.633 230.234C185.32 230.234 184.156 229.992 183.141 229.508C182.133 229.023 181.34 228.285 180.762 227.293C180.191 226.301 179.906 225.051 179.906 223.543C179.906 222.012 180.164 220.738 180.68 219.723C181.203 218.699 181.93 217.934 182.859 217.426C183.789 216.91 184.871 216.652 186.105 216.652ZM186.129 219.195C185.434 219.195 184.855 219.418 184.395 219.863C183.941 220.309 183.68 221.008 183.609 221.961H188.625C188.617 221.43 188.52 220.957 188.332 220.543C188.152 220.129 187.879 219.801 187.512 219.559C187.152 219.316 186.691 219.195 186.129 219.195Z" fill="#032D6C"/>
<path d="M131.543 27C78.9829 27.4935 58.1829 94.4015 101.053 124.671C100.441 125.127 100.043 125.853 100.043 126.675V152.5C100.043 153.881 101.163 155 102.543 155H115.191C116.572 155 117.691 153.881 117.691 152.5V151.059H121.052C121.832 151.059 122.582 151.312 123.153 151.763C124.893 153.152 127.823 154.808 131.898 154.808H143.109C148.147 154.808 152.281 151.039 152.749 146.031L154.532 132.893C154.537 132.853 154.542 132.813 154.545 132.773C154.652 131.542 154.528 130.333 154.188 129.185C205.704 104.254 188.844 27.8938 131.543 27ZM105.043 150V129.174H112.69L112.691 150H105.043ZM149.568 132.287L147.787 145.413C147.782 145.453 147.778 145.493 147.774 145.533C147.561 147.97 145.556 149.808 143.109 149.808H131.898C129.27 149.808 127.388 148.746 126.263 147.848C123.629 145.723 120.84 146.066 117.691 146.06V128.862C119.582 128.334 120.976 126.929 121.992 125.307C122.564 124.405 131.351 110.474 131.351 110.474L133.104 111.376C135.162 112.466 135.909 114.913 134.857 116.975L132.418 121.329C130.988 123.916 132.907 127.248 135.907 127.248H144.899C147.587 127.248 149.77 129.607 149.568 132.287ZM171.675 108.006C166.605 115.414 159.673 121.225 151.551 124.896C149.767 123.207 147.355 122.248 144.899 122.248H137.635L137.953 121.68C168.551 117.433 183.824 79.6803 164.598 55.3722C159.202 48.3117 151.551 43.0778 143.054 40.6348C141.726 40.253 140.342 41.0193 139.961 42.3465C139.579 43.6735 140.346 45.0585 141.673 45.44C149.146 47.589 155.876 52.1945 160.626 58.4085C176.748 78.729 165.312 110.455 140.305 116.12C140.758 112.423 138.789 108.722 135.491 106.982L131.608 104.976C130.405 104.354 128.94 104.838 128.267 105.991L122.003 115.917C86.4539 105.781 85.9562 56.3003 121.305 45.472C122.631 45.0863 123.393 43.699 123.007 42.373C122.621 41.0472 121.234 40.2847 119.908 40.671C80.4527 52.7055 80.0374 107.628 119.227 120.316L117.486 123.074C116.826 123.935 116.309 124.159 115.17 124.174H110.017C64.3504 100.822 80.1824 32.759 131.544 32C170.016 31.4975 193.8 76.5837 171.675 108.006Z" fill="#032D6C"/>
<path d="M131.543 53.6487C130.706 53.6487 129.924 54.0677 129.461 54.7649L121.747 66.3704L108.326 70.1202C106.637 70.5917 105.947 72.7024 107.039 74.0804L115.693 85.0027L115.112 98.9254C115.039 100.677 116.832 101.987 118.481 101.373L131.543 96.5179L144.605 101.373C146.252 101.986 148.047 100.678 147.974 98.9254L147.393 85.0027L156.046 74.0804C157.138 72.7022 156.448 70.5917 154.76 70.1202L141.339 66.3704L133.625 54.7649C133.161 54.0677 132.38 53.6487 131.543 53.6487ZM139.098 70.9357L149.791 73.9234L142.896 82.6259C142.524 83.0957 142.333 83.6837 142.358 84.2827L142.821 95.3759L132.414 91.5077C131.852 91.2987 131.234 91.2987 130.672 91.5077L120.265 95.3759L120.728 84.2827C120.753 83.6837 120.562 83.0957 120.19 82.6259L113.295 73.9234L123.988 70.9357C124.565 70.7744 125.065 70.4109 125.397 69.9117L131.543 60.6649L137.689 69.9117C138.021 70.4112 138.521 70.7747 139.098 70.9357Z" fill="#032D6C"/>
<path d="M129.236 42.4747C130.083 44.5097 133.07 44.4802 133.871 42.423C134.704 40.2825 132.311 38.2125 130.312 39.3447C129.23 39.9575 128.756 41.3245 129.236 42.4747Z" fill="#032D6C"/>
</svg>
