<svg width="261" height="260" viewBox="0 0 261 260" fill="none" xmlns="http://www.w3.org/2000/svg">
<rect width="261" height="260" fill="#E6EDF8"/>
<path d="M100.852 185.379H107.648V194.262C106.75 194.559 105.816 194.797 104.848 194.977C103.879 195.148 102.781 195.234 101.555 195.234C99.8516 195.234 98.4062 194.898 97.2188 194.227C96.0312 193.555 95.1289 192.562 94.5117 191.25C93.8945 189.938 93.5859 188.324 93.5859 186.41C93.5859 184.613 93.9297 183.059 94.6172 181.746C95.3125 180.434 96.3242 179.418 97.6523 178.699C98.9883 177.98 100.617 177.621 102.539 177.621C103.445 177.621 104.34 177.719 105.223 177.914C106.105 178.109 106.906 178.363 107.625 178.676L106.418 181.582C105.895 181.316 105.297 181.094 104.625 180.914C103.953 180.734 103.25 180.645 102.516 180.645C101.461 180.645 100.543 180.887 99.7617 181.371C98.9883 181.855 98.3867 182.535 97.957 183.41C97.5352 184.277 97.3242 185.301 97.3242 186.48C97.3242 187.598 97.4766 188.59 97.7812 189.457C98.0859 190.316 98.5664 190.992 99.2227 191.484C99.8789 191.969 100.734 192.211 101.789 192.211C102.305 192.211 102.738 192.188 103.09 192.141C103.449 192.086 103.785 192.031 104.098 191.977V188.402H100.852V185.379ZM115.031 195H111.457V176.766H115.031V195ZM130.699 188.426C130.699 189.52 130.551 190.488 130.254 191.332C129.965 192.176 129.539 192.891 128.977 193.477C128.422 194.055 127.75 194.492 126.961 194.789C126.18 195.086 125.297 195.234 124.312 195.234C123.391 195.234 122.543 195.086 121.77 194.789C121.004 194.492 120.336 194.055 119.766 193.477C119.203 192.891 118.766 192.176 118.453 191.332C118.148 190.488 117.996 189.52 117.996 188.426C117.996 186.973 118.254 185.742 118.77 184.734C119.285 183.727 120.02 182.961 120.973 182.438C121.926 181.914 123.062 181.652 124.383 181.652C125.609 181.652 126.695 181.914 127.641 182.438C128.594 182.961 129.34 183.727 129.879 184.734C130.426 185.742 130.699 186.973 130.699 188.426ZM121.641 188.426C121.641 189.285 121.734 190.008 121.922 190.594C122.109 191.18 122.402 191.621 122.801 191.918C123.199 192.215 123.719 192.363 124.359 192.363C124.992 192.363 125.504 192.215 125.895 191.918C126.293 191.621 126.582 191.18 126.762 190.594C126.949 190.008 127.043 189.285 127.043 188.426C127.043 187.559 126.949 186.84 126.762 186.27C126.582 185.691 126.293 185.258 125.895 184.969C125.496 184.68 124.977 184.535 124.336 184.535C123.391 184.535 122.703 184.859 122.273 185.508C121.852 186.156 121.641 187.129 121.641 188.426ZM137.227 176.766V181.008C137.227 181.5 137.211 181.988 137.18 182.473C137.156 182.957 137.125 183.332 137.086 183.598H137.227C137.57 183.059 138.039 182.602 138.633 182.227C139.227 181.844 139.996 181.652 140.941 181.652C142.41 181.652 143.602 182.227 144.516 183.375C145.43 184.523 145.887 186.207 145.887 188.426C145.887 189.918 145.676 191.172 145.254 192.188C144.832 193.195 144.242 193.957 143.484 194.473C142.727 194.98 141.848 195.234 140.848 195.234C139.887 195.234 139.129 195.062 138.574 194.719C138.02 194.375 137.57 193.988 137.227 193.559H136.98L136.383 195H133.652V176.766H137.227ZM139.793 184.512C139.168 184.512 138.672 184.641 138.305 184.898C137.938 185.156 137.668 185.543 137.496 186.059C137.332 186.574 137.242 187.227 137.227 188.016V188.402C137.227 189.676 137.414 190.652 137.789 191.332C138.164 192.004 138.848 192.34 139.84 192.34C140.574 192.34 141.156 192 141.586 191.32C142.023 190.641 142.242 189.66 142.242 188.379C142.242 187.098 142.023 186.133 141.586 185.484C141.148 184.836 140.551 184.512 139.793 184.512ZM154.207 181.629C155.965 181.629 157.312 182.012 158.25 182.777C159.188 183.543 159.656 184.707 159.656 186.27V195H157.16L156.469 193.219H156.375C156 193.688 155.617 194.07 155.227 194.367C154.836 194.664 154.387 194.883 153.879 195.023C153.371 195.164 152.754 195.234 152.027 195.234C151.254 195.234 150.559 195.086 149.941 194.789C149.332 194.492 148.852 194.039 148.5 193.43C148.148 192.812 147.973 192.031 147.973 191.086C147.973 189.695 148.461 188.672 149.438 188.016C150.414 187.352 151.879 186.984 153.832 186.914L156.105 186.844V186.27C156.105 185.582 155.926 185.078 155.566 184.758C155.207 184.438 154.707 184.277 154.066 184.277C153.434 184.277 152.812 184.367 152.203 184.547C151.594 184.727 150.984 184.953 150.375 185.227L149.191 182.812C149.887 182.445 150.664 182.156 151.523 181.945C152.391 181.734 153.285 181.629 154.207 181.629ZM156.105 188.93L154.723 188.977C153.566 189.008 152.762 189.215 152.309 189.598C151.863 189.98 151.641 190.484 151.641 191.109C151.641 191.656 151.801 192.047 152.121 192.281C152.441 192.508 152.859 192.621 153.375 192.621C154.141 192.621 154.785 192.395 155.309 191.941C155.84 191.488 156.105 190.844 156.105 190.008V188.93ZM166.922 195H163.348V176.766H166.922V195ZM90.6562 227V209.867H94.2891V227H90.6562ZM113.707 213.652C115.191 213.652 116.312 214.035 117.07 214.801C117.836 215.559 118.219 216.777 118.219 218.457V227H114.633V219.348C114.633 218.41 114.473 217.703 114.152 217.227C113.832 216.75 113.336 216.512 112.664 216.512C111.719 216.512 111.047 216.852 110.648 217.531C110.25 218.203 110.051 219.168 110.051 220.426V227H106.477V219.348C106.477 218.723 106.406 218.199 106.266 217.777C106.125 217.355 105.91 217.039 105.621 216.828C105.332 216.617 104.961 216.512 104.508 216.512C103.844 216.512 103.32 216.68 102.938 217.016C102.562 217.344 102.293 217.832 102.129 218.48C101.973 219.121 101.895 219.906 101.895 220.836V227H98.3203V213.898H101.051L101.531 215.574H101.73C101.996 215.121 102.328 214.754 102.727 214.473C103.133 214.191 103.578 213.984 104.062 213.852C104.547 213.719 105.039 213.652 105.539 213.652C106.5 213.652 107.312 213.809 107.977 214.121C108.648 214.434 109.164 214.918 109.523 215.574H109.84C110.23 214.902 110.781 214.414 111.492 214.109C112.211 213.805 112.949 213.652 113.707 213.652ZM129.188 213.652C130.664 213.652 131.855 214.227 132.762 215.375C133.676 216.523 134.133 218.207 134.133 220.426C134.133 221.91 133.918 223.16 133.488 224.176C133.059 225.184 132.465 225.945 131.707 226.461C130.949 226.977 130.078 227.234 129.094 227.234C128.461 227.234 127.918 227.156 127.465 227C127.012 226.836 126.625 226.629 126.305 226.379C125.984 226.121 125.707 225.848 125.473 225.559H125.285C125.348 225.871 125.395 226.191 125.426 226.52C125.457 226.848 125.473 227.168 125.473 227.48V232.766H121.898V213.898H124.805L125.309 215.598H125.473C125.707 215.246 125.992 214.922 126.328 214.625C126.664 214.328 127.066 214.094 127.535 213.922C128.012 213.742 128.562 213.652 129.188 213.652ZM128.039 216.512C127.414 216.512 126.918 216.641 126.551 216.898C126.184 217.156 125.914 217.543 125.742 218.059C125.578 218.574 125.488 219.227 125.473 220.016V220.402C125.473 221.246 125.551 221.961 125.707 222.547C125.871 223.133 126.141 223.578 126.516 223.883C126.898 224.188 127.422 224.34 128.086 224.34C128.633 224.34 129.082 224.188 129.434 223.883C129.785 223.578 130.047 223.133 130.219 222.547C130.398 221.953 130.488 221.23 130.488 220.379C130.488 219.098 130.289 218.133 129.891 217.484C129.492 216.836 128.875 216.512 128.039 216.512ZM142.453 213.629C144.211 213.629 145.559 214.012 146.496 214.777C147.434 215.543 147.902 216.707 147.902 218.27V227H145.406L144.715 225.219H144.621C144.246 225.688 143.863 226.07 143.473 226.367C143.082 226.664 142.633 226.883 142.125 227.023C141.617 227.164 141 227.234 140.273 227.234C139.5 227.234 138.805 227.086 138.188 226.789C137.578 226.492 137.098 226.039 136.746 225.43C136.395 224.812 136.219 224.031 136.219 223.086C136.219 221.695 136.707 220.672 137.684 220.016C138.66 219.352 140.125 218.984 142.078 218.914L144.352 218.844V218.27C144.352 217.582 144.172 217.078 143.812 216.758C143.453 216.438 142.953 216.277 142.312 216.277C141.68 216.277 141.059 216.367 140.449 216.547C139.84 216.727 139.23 216.953 138.621 217.227L137.438 214.812C138.133 214.445 138.91 214.156 139.77 213.945C140.637 213.734 141.531 213.629 142.453 213.629ZM144.352 220.93L142.969 220.977C141.812 221.008 141.008 221.215 140.555 221.598C140.109 221.98 139.887 222.484 139.887 223.109C139.887 223.656 140.047 224.047 140.367 224.281C140.688 224.508 141.105 224.621 141.621 224.621C142.387 224.621 143.031 224.395 143.555 223.941C144.086 223.488 144.352 222.844 144.352 222.008V220.93ZM156.914 227.234C155.617 227.234 154.512 227 153.598 226.531C152.684 226.055 151.988 225.32 151.512 224.328C151.035 223.336 150.797 222.066 150.797 220.52C150.797 218.918 151.066 217.613 151.605 216.605C152.152 215.59 152.906 214.844 153.867 214.367C154.836 213.891 155.957 213.652 157.23 213.652C158.137 213.652 158.918 213.742 159.574 213.922C160.238 214.094 160.816 214.301 161.309 214.543L160.254 217.309C159.691 217.082 159.168 216.898 158.684 216.758C158.199 216.609 157.715 216.535 157.23 216.535C156.605 216.535 156.086 216.684 155.672 216.98C155.258 217.27 154.949 217.707 154.746 218.293C154.543 218.879 154.441 219.613 154.441 220.496C154.441 221.363 154.551 222.082 154.77 222.652C154.988 223.223 155.305 223.648 155.719 223.93C156.133 224.203 156.637 224.34 157.23 224.34C157.973 224.34 158.633 224.242 159.211 224.047C159.789 223.844 160.352 223.562 160.898 223.203V226.262C160.352 226.605 159.777 226.852 159.176 227C158.582 227.156 157.828 227.234 156.914 227.234ZM169.465 224.387C169.855 224.387 170.234 224.348 170.602 224.27C170.977 224.191 171.348 224.094 171.715 223.977V226.637C171.332 226.809 170.855 226.949 170.285 227.059C169.723 227.176 169.105 227.234 168.434 227.234C167.652 227.234 166.949 227.109 166.324 226.859C165.707 226.602 165.219 226.16 164.859 225.535C164.508 224.902 164.332 224.023 164.332 222.898V216.582H162.621V215.07L164.59 213.875L165.621 211.109H167.906V213.898H171.574V216.582H167.906V222.898C167.906 223.398 168.047 223.773 168.328 224.023C168.617 224.266 168.996 224.387 169.465 224.387Z" fill="#032D6C"/>
<path d="M184.37 85.671C184.37 55.8995 160.149 31.6787 130.378 31.6787C123.023 31.6787 115.893 33.1317 109.185 35.9975C108.152 36.4384 107.673 37.6329 108.114 38.6654C108.555 39.6978 109.75 40.1773 110.782 39.7361C114.87 37.9899 119.129 36.8149 123.506 36.2144C110.187 47.2687 101.946 64.7621 101.388 83.6392H80.4971C81.143 67.6259 89.3901 52.9272 102.845 44.0155C103.781 43.3954 104.037 42.1344 103.417 41.1983C102.797 40.2622 101.536 40.0065 100.6 40.626C85.4378 50.6685 76.3857 67.5079 76.3857 85.6712C76.3857 115.442 100.606 139.663 130.378 139.663C160.15 139.663 184.37 115.442 184.37 85.671ZM180.26 83.6392H159.368C158.81 64.7653 150.571 47.2749 137.257 36.2204C160.886 39.4912 179.283 59.3595 180.26 83.6392ZM155.254 100.822C156.745 105.258 159.789 108.847 164.178 111.351C159.789 113.856 156.745 117.445 155.254 121.881C153.763 117.445 150.719 113.856 146.33 111.351C150.719 108.847 153.763 105.258 155.254 100.822ZM153.958 95.8144C153.959 95.8144 153.959 95.8144 153.958 95.8144V95.8144ZM149.663 87.7047H155.298C155.247 89.405 155.133 91.1015 154.951 92.7844C153.821 92.9093 152.876 93.7216 152.601 94.848L151.756 98.2996C150.316 104.183 145.863 107.254 142.382 108.794C140.604 109.578 140.088 112.808 142.382 113.909C145.863 115.45 150.316 118.521 151.756 124.404L152.601 127.856C152.796 128.65 153.323 129.287 154.013 129.639C148.91 132.393 143.276 134.282 137.307 135.115C140.33 132.601 143.118 129.735 145.638 126.544C146.333 125.663 146.183 124.385 145.302 123.689C144.421 122.994 143.143 123.144 142.447 124.025C139.477 127.787 136.11 131.059 132.411 133.789V87.7047H139.908C141.031 87.7047 141.941 86.7946 141.941 85.6721C141.941 84.5495 141.031 83.6395 139.908 83.6395H132.411V37.5944C146.124 47.718 154.713 64.9277 155.299 83.6392H149.663C148.541 83.6392 147.631 84.5492 147.631 85.6718C147.631 86.7944 148.541 87.7047 149.663 87.7047ZM128.345 133.782C114.624 123.652 106.033 106.429 105.455 87.7047H128.345V133.782ZM128.345 37.5944V83.6392H105.457C106.043 64.9277 114.631 47.718 128.345 37.5944ZM80.4957 87.7047H101.387C101.936 106.568 110.157 124.052 123.45 135.115C99.8447 131.824 81.4731 111.967 80.4957 87.7047ZM158.069 127.194L158.752 124.403C160.192 118.52 164.645 115.449 168.126 113.909C169.904 113.126 170.421 109.895 168.126 108.794C164.645 107.253 160.192 104.182 158.752 98.2993L158.459 97.1005C158.971 94.015 159.275 90.8658 159.365 87.7044H180.26C179.597 104.157 170.938 118.584 158.069 127.194Z" fill="#032D6C"/>
<path d="M198.765 34.1954C198.669 34.1311 198.567 34.0749 198.46 34.0279C194.979 32.4878 190.527 29.4167 189.086 23.5337L188.242 20.082C187.941 18.8563 186.85 18 185.588 18C184.326 18 183.235 18.856 182.935 20.082L182.09 23.5337C180.65 29.4167 176.198 32.4878 172.716 34.0279C171.118 34.6819 170.361 38.0706 172.716 39.1435C176.198 40.6836 180.65 43.7546 182.09 49.6377L182.935 53.0896C183.235 54.3154 184.326 55.1716 185.588 55.1716C186.85 55.1716 187.942 54.3156 188.242 53.0896L189.087 49.638C190.527 43.7549 194.979 40.6839 198.461 39.1437C200.133 38.3852 200.737 35.5126 198.765 34.1954ZM185.588 47.1148C184.097 42.6787 181.053 39.0903 176.664 36.5855C181.053 34.0808 184.098 30.4924 185.588 26.0563C187.079 30.4924 190.123 34.0808 194.512 36.5855C190.123 39.0905 187.079 42.679 185.588 47.1148Z" fill="#032D6C"/>
<path d="M186.154 132.076C186.058 132.012 185.956 131.956 185.85 131.909C183.023 130.658 181.266 128.703 180.628 126.098L180.117 124.008C179.847 122.906 178.866 122.136 177.732 122.136H177.731C176.597 122.136 175.616 122.905 175.346 124.008L174.834 126.098C174.197 128.703 172.44 130.658 169.613 131.909C168.075 132.564 167.48 135.442 169.613 136.473C172.44 137.724 174.197 139.679 174.834 142.284L175.346 144.375C175.616 145.477 176.597 146.247 177.732 146.247C178.866 146.247 179.847 145.476 180.117 144.375L180.629 142.285C181.267 139.679 183.023 137.724 185.85 136.473C187.273 135.836 187.968 133.341 186.154 132.076ZM176.168 124.974L176.168 124.976C176.168 124.975 176.168 124.975 176.168 124.974C176.168 124.974 176.168 124.974 176.168 124.974ZM177.731 138.532C176.829 136.823 175.517 135.362 173.832 134.191C175.517 133.019 176.829 131.558 177.731 129.849C178.634 131.558 179.946 133.019 181.63 134.191C179.946 135.362 178.634 136.823 177.731 138.532Z" fill="#032D6C"/>
<path d="M78.9277 58.6494C80.2181 57.8249 80.6161 55.2254 78.6229 54.2527C75.7959 53.002 74.0394 51.0467 73.4014 48.4413L72.8897 46.3514C72.6198 45.2492 71.6387 44.4792 70.5038 44.4792C69.3693 44.4795 68.3882 45.2494 68.1189 46.3514L67.6071 48.4413C66.9691 51.047 65.2123 53.0022 62.3857 54.2527C60.8474 54.908 60.2526 57.7855 62.3857 58.8169C65.2123 60.0673 66.9688 62.0226 67.6068 64.6283L68.1183 66.7179C68.3879 67.8201 69.3688 68.59 70.5033 68.59C71.6378 68.59 72.619 67.8204 72.8888 66.7182L73.4006 64.6283C74.0383 62.0226 75.7951 60.0676 78.6218 58.8169C78.7287 58.7696 78.8308 58.7137 78.9277 58.6494ZM70.5044 60.8761C69.602 59.1671 68.2899 57.7062 66.6051 56.5345C68.2899 55.3631 69.6022 53.9019 70.5044 52.1929C71.4065 53.9017 72.7189 55.3631 74.4037 56.5345C72.7186 57.7062 71.4065 59.1674 70.5044 60.8761Z" fill="#032D6C"/>
</svg>
