<svg width="261" height="260" viewBox="0 0 261 260" fill="none" xmlns="http://www.w3.org/2000/svg">
<rect width="261" height="260" fill="#E6EDF8"/>
<path d="M68.5898 195V177.867H72.2227V195H68.5898ZM83.6953 181.652C85.0938 181.652 86.2188 182.035 87.0703 182.801C87.9219 183.559 88.3477 184.777 88.3477 186.457V195H84.7734V187.348C84.7734 186.41 84.6016 185.703 84.2578 185.227C83.9219 184.75 83.3906 184.512 82.6641 184.512C81.5703 184.512 80.8242 184.883 80.4258 185.625C80.0273 186.367 79.8281 187.438 79.8281 188.836V195H76.2539V181.898H78.9844L79.4648 183.574H79.6641C79.9453 183.121 80.293 182.754 80.707 182.473C81.1289 182.191 81.5938 181.984 82.1016 181.852C82.6172 181.719 83.1484 181.652 83.6953 181.652ZM99.4688 181.652C100.867 181.652 101.992 182.035 102.844 182.801C103.695 183.559 104.121 184.777 104.121 186.457V195H100.547V187.348C100.547 186.41 100.375 185.703 100.031 185.227C99.6953 184.75 99.1641 184.512 98.4375 184.512C97.3438 184.512 96.5977 184.883 96.1992 185.625C95.8008 186.367 95.6016 187.438 95.6016 188.836V195H92.0273V181.898H94.7578L95.2383 183.574H95.4375C95.7188 183.121 96.0664 182.754 96.4805 182.473C96.9023 182.191 97.3672 181.984 97.875 181.852C98.3906 181.719 98.9219 181.652 99.4688 181.652ZM119.707 188.426C119.707 189.52 119.559 190.488 119.262 191.332C118.973 192.176 118.547 192.891 117.984 193.477C117.43 194.055 116.758 194.492 115.969 194.789C115.188 195.086 114.305 195.234 113.32 195.234C112.398 195.234 111.551 195.086 110.777 194.789C110.012 194.492 109.344 194.055 108.773 193.477C108.211 192.891 107.773 192.176 107.461 191.332C107.156 190.488 107.004 189.52 107.004 188.426C107.004 186.973 107.262 185.742 107.777 184.734C108.293 183.727 109.027 182.961 109.98 182.438C110.934 181.914 112.07 181.652 113.391 181.652C114.617 181.652 115.703 181.914 116.648 182.438C117.602 182.961 118.348 183.727 118.887 184.734C119.434 185.742 119.707 186.973 119.707 188.426ZM110.648 188.426C110.648 189.285 110.742 190.008 110.93 190.594C111.117 191.18 111.41 191.621 111.809 191.918C112.207 192.215 112.727 192.363 113.367 192.363C114 192.363 114.512 192.215 114.902 191.918C115.301 191.621 115.59 191.18 115.77 190.594C115.957 190.008 116.051 189.285 116.051 188.426C116.051 187.559 115.957 186.84 115.77 186.27C115.59 185.691 115.301 185.258 114.902 184.969C114.504 184.68 113.984 184.535 113.344 184.535C112.398 184.535 111.711 184.859 111.281 185.508C110.859 186.156 110.648 187.129 110.648 188.426ZM125.777 195L120.785 181.898H124.523L127.055 189.363C127.195 189.801 127.305 190.262 127.383 190.746C127.469 191.23 127.527 191.664 127.559 192.047H127.652C127.676 191.633 127.73 191.191 127.816 190.723C127.91 190.254 128.031 189.801 128.18 189.363L130.699 181.898H134.438L129.445 195H125.777ZM141.691 181.629C143.449 181.629 144.797 182.012 145.734 182.777C146.672 183.543 147.141 184.707 147.141 186.27V195H144.645L143.953 193.219H143.859C143.484 193.688 143.102 194.07 142.711 194.367C142.32 194.664 141.871 194.883 141.363 195.023C140.855 195.164 140.238 195.234 139.512 195.234C138.738 195.234 138.043 195.086 137.426 194.789C136.816 194.492 136.336 194.039 135.984 193.43C135.633 192.812 135.457 192.031 135.457 191.086C135.457 189.695 135.945 188.672 136.922 188.016C137.898 187.352 139.363 186.984 141.316 186.914L143.59 186.844V186.27C143.59 185.582 143.41 185.078 143.051 184.758C142.691 184.438 142.191 184.277 141.551 184.277C140.918 184.277 140.297 184.367 139.688 184.547C139.078 184.727 138.469 184.953 137.859 185.227L136.676 182.812C137.371 182.445 138.148 182.156 139.008 181.945C139.875 181.734 140.77 181.629 141.691 181.629ZM143.59 188.93L142.207 188.977C141.051 189.008 140.246 189.215 139.793 189.598C139.348 189.98 139.125 190.484 139.125 191.109C139.125 191.656 139.285 192.047 139.605 192.281C139.926 192.508 140.344 192.621 140.859 192.621C141.625 192.621 142.27 192.395 142.793 191.941C143.324 191.488 143.59 190.844 143.59 190.008V188.93ZM156.352 192.387C156.742 192.387 157.121 192.348 157.488 192.27C157.863 192.191 158.234 192.094 158.602 191.977V194.637C158.219 194.809 157.742 194.949 157.172 195.059C156.609 195.176 155.992 195.234 155.32 195.234C154.539 195.234 153.836 195.109 153.211 194.859C152.594 194.602 152.105 194.16 151.746 193.535C151.395 192.902 151.219 192.023 151.219 190.898V184.582H149.508V183.07L151.477 181.875L152.508 179.109H154.793V181.898H158.461V184.582H154.793V190.898C154.793 191.398 154.934 191.773 155.215 192.023C155.504 192.266 155.883 192.387 156.352 192.387ZM164.836 181.898V195H161.262V181.898H164.836ZM163.055 176.766C163.586 176.766 164.043 176.891 164.426 177.141C164.809 177.383 165 177.84 165 178.512C165 179.176 164.809 179.637 164.426 179.895C164.043 180.145 163.586 180.27 163.055 180.27C162.516 180.27 162.055 180.145 161.672 179.895C161.297 179.637 161.109 179.176 161.109 178.512C161.109 177.84 161.297 177.383 161.672 177.141C162.055 176.891 162.516 176.766 163.055 176.766ZM171.715 195L166.723 181.898H170.461L172.992 189.363C173.133 189.801 173.242 190.262 173.32 190.746C173.406 191.23 173.465 191.664 173.496 192.047H173.59C173.613 191.633 173.668 191.191 173.754 190.723C173.848 190.254 173.969 189.801 174.117 189.363L176.637 181.898H180.375L175.383 195H171.715ZM187.664 181.652C188.875 181.652 189.918 181.887 190.793 182.355C191.668 182.816 192.344 183.488 192.82 184.371C193.297 185.254 193.535 186.332 193.535 187.605V189.34H185.086C185.125 190.348 185.426 191.141 185.988 191.719C186.559 192.289 187.348 192.574 188.355 192.574C189.191 192.574 189.957 192.488 190.652 192.316C191.348 192.145 192.062 191.887 192.797 191.543V194.309C192.148 194.629 191.469 194.863 190.758 195.012C190.055 195.16 189.199 195.234 188.191 195.234C186.879 195.234 185.715 194.992 184.699 194.508C183.691 194.023 182.898 193.285 182.32 192.293C181.75 191.301 181.465 190.051 181.465 188.543C181.465 187.012 181.723 185.738 182.238 184.723C182.762 183.699 183.488 182.934 184.418 182.426C185.348 181.91 186.43 181.652 187.664 181.652ZM187.688 184.195C186.992 184.195 186.414 184.418 185.953 184.863C185.5 185.309 185.238 186.008 185.168 186.961H190.184C190.176 186.43 190.078 185.957 189.891 185.543C189.711 185.129 189.438 184.801 189.07 184.559C188.711 184.316 188.25 184.195 187.688 184.195ZM82.8164 209.867C84.3711 209.867 85.6523 210.055 86.6602 210.43C87.6758 210.805 88.4297 211.371 88.9219 212.129C89.4141 212.887 89.6602 213.844 89.6602 215C89.6602 215.781 89.5117 216.465 89.2148 217.051C88.918 217.637 88.5273 218.133 88.043 218.539C87.5586 218.945 87.0352 219.277 86.4727 219.535L91.5117 227H87.4805L83.3906 220.426H81.457V227H77.8242V209.867H82.8164ZM82.5586 212.844H81.457V217.473H82.6289C83.832 217.473 84.6914 217.273 85.207 216.875C85.7305 216.469 85.9922 215.875 85.9922 215.094C85.9922 214.281 85.7109 213.703 85.1484 213.359C84.5938 213.016 83.7305 212.844 82.5586 212.844ZM98.7891 213.652C100 213.652 101.043 213.887 101.918 214.355C102.793 214.816 103.469 215.488 103.945 216.371C104.422 217.254 104.66 218.332 104.66 219.605V221.34H96.2109C96.25 222.348 96.5508 223.141 97.1133 223.719C97.6836 224.289 98.4727 224.574 99.4805 224.574C100.316 224.574 101.082 224.488 101.777 224.316C102.473 224.145 103.188 223.887 103.922 223.543V226.309C103.273 226.629 102.594 226.863 101.883 227.012C101.18 227.16 100.324 227.234 99.3164 227.234C98.0039 227.234 96.8398 226.992 95.8242 226.508C94.8164 226.023 94.0234 225.285 93.4453 224.293C92.875 223.301 92.5898 222.051 92.5898 220.543C92.5898 219.012 92.8477 217.738 93.3633 216.723C93.8867 215.699 94.6133 214.934 95.543 214.426C96.4727 213.91 97.5547 213.652 98.7891 213.652ZM98.8125 216.195C98.1172 216.195 97.5391 216.418 97.0781 216.863C96.625 217.309 96.3633 218.008 96.293 218.961H101.309C101.301 218.43 101.203 217.957 101.016 217.543C100.836 217.129 100.562 216.801 100.195 216.559C99.8359 216.316 99.375 216.195 98.8125 216.195ZM116.707 223.109C116.707 224 116.496 224.754 116.074 225.371C115.66 225.98 115.039 226.445 114.211 226.766C113.383 227.078 112.352 227.234 111.117 227.234C110.203 227.234 109.418 227.176 108.762 227.059C108.113 226.941 107.457 226.746 106.793 226.473V223.52C107.504 223.84 108.266 224.105 109.078 224.316C109.898 224.52 110.617 224.621 111.234 224.621C111.93 224.621 112.426 224.52 112.723 224.316C113.027 224.105 113.18 223.832 113.18 223.496C113.18 223.277 113.117 223.082 112.992 222.91C112.875 222.73 112.617 222.531 112.219 222.312C111.82 222.086 111.195 221.793 110.344 221.434C109.523 221.09 108.848 220.742 108.316 220.391C107.793 220.039 107.402 219.625 107.145 219.148C106.895 218.664 106.77 218.051 106.77 217.309C106.77 216.098 107.238 215.188 108.176 214.578C109.121 213.961 110.383 213.652 111.961 213.652C112.773 213.652 113.547 213.734 114.281 213.898C115.023 214.062 115.785 214.324 116.566 214.684L115.488 217.262C114.84 216.98 114.227 216.75 113.648 216.57C113.078 216.391 112.496 216.301 111.902 216.301C111.379 216.301 110.984 216.371 110.719 216.512C110.453 216.652 110.32 216.867 110.32 217.156C110.32 217.367 110.387 217.555 110.52 217.719C110.66 217.883 110.926 218.066 111.316 218.27C111.715 218.465 112.297 218.719 113.062 219.031C113.805 219.336 114.449 219.656 114.996 219.992C115.543 220.32 115.965 220.73 116.262 221.223C116.559 221.707 116.707 222.336 116.707 223.109ZM124.898 213.652C126.109 213.652 127.152 213.887 128.027 214.355C128.902 214.816 129.578 215.488 130.055 216.371C130.531 217.254 130.77 218.332 130.77 219.605V221.34H122.32C122.359 222.348 122.66 223.141 123.223 223.719C123.793 224.289 124.582 224.574 125.59 224.574C126.426 224.574 127.191 224.488 127.887 224.316C128.582 224.145 129.297 223.887 130.031 223.543V226.309C129.383 226.629 128.703 226.863 127.992 227.012C127.289 227.16 126.434 227.234 125.426 227.234C124.113 227.234 122.949 226.992 121.934 226.508C120.926 226.023 120.133 225.285 119.555 224.293C118.984 223.301 118.699 222.051 118.699 220.543C118.699 219.012 118.957 217.738 119.473 216.723C119.996 215.699 120.723 214.934 121.652 214.426C122.582 213.91 123.664 213.652 124.898 213.652ZM124.922 216.195C124.227 216.195 123.648 216.418 123.188 216.863C122.734 217.309 122.473 218.008 122.402 218.961H127.418C127.41 218.43 127.312 217.957 127.125 217.543C126.945 217.129 126.672 216.801 126.305 216.559C125.945 216.316 125.484 216.195 124.922 216.195ZM139.043 213.629C140.801 213.629 142.148 214.012 143.086 214.777C144.023 215.543 144.492 216.707 144.492 218.27V227H141.996L141.305 225.219H141.211C140.836 225.688 140.453 226.07 140.062 226.367C139.672 226.664 139.223 226.883 138.715 227.023C138.207 227.164 137.59 227.234 136.863 227.234C136.09 227.234 135.395 227.086 134.777 226.789C134.168 226.492 133.688 226.039 133.336 225.43C132.984 224.812 132.809 224.031 132.809 223.086C132.809 221.695 133.297 220.672 134.273 220.016C135.25 219.352 136.715 218.984 138.668 218.914L140.941 218.844V218.27C140.941 217.582 140.762 217.078 140.402 216.758C140.043 216.438 139.543 216.277 138.902 216.277C138.27 216.277 137.648 216.367 137.039 216.547C136.43 216.727 135.82 216.953 135.211 217.227L134.027 214.812C134.723 214.445 135.5 214.156 136.359 213.945C137.227 213.734 138.121 213.629 139.043 213.629ZM140.941 220.93L139.559 220.977C138.402 221.008 137.598 221.215 137.145 221.598C136.699 221.98 136.477 222.484 136.477 223.109C136.477 223.656 136.637 224.047 136.957 224.281C137.277 224.508 137.695 224.621 138.211 224.621C138.977 224.621 139.621 224.395 140.145 223.941C140.676 223.488 140.941 222.844 140.941 222.008V220.93ZM155.496 213.652C155.676 213.652 155.883 213.664 156.117 213.688C156.359 213.703 156.555 213.727 156.703 213.758L156.434 217.109C156.316 217.07 156.148 217.043 155.93 217.027C155.719 217.004 155.535 216.992 155.379 216.992C154.918 216.992 154.469 217.051 154.031 217.168C153.602 217.285 153.215 217.477 152.871 217.742C152.527 218 152.254 218.344 152.051 218.773C151.855 219.195 151.758 219.715 151.758 220.332V227H148.184V213.898H150.891L151.418 216.102H151.594C151.852 215.656 152.172 215.25 152.555 214.883C152.945 214.508 153.387 214.211 153.879 213.992C154.379 213.766 154.918 213.652 155.496 213.652ZM164.402 227.234C163.105 227.234 162 227 161.086 226.531C160.172 226.055 159.477 225.32 159 224.328C158.523 223.336 158.285 222.066 158.285 220.52C158.285 218.918 158.555 217.613 159.094 216.605C159.641 215.59 160.395 214.844 161.355 214.367C162.324 213.891 163.445 213.652 164.719 213.652C165.625 213.652 166.406 213.742 167.062 213.922C167.727 214.094 168.305 214.301 168.797 214.543L167.742 217.309C167.18 217.082 166.656 216.898 166.172 216.758C165.688 216.609 165.203 216.535 164.719 216.535C164.094 216.535 163.574 216.684 163.16 216.98C162.746 217.27 162.438 217.707 162.234 218.293C162.031 218.879 161.93 219.613 161.93 220.496C161.93 221.363 162.039 222.082 162.258 222.652C162.477 223.223 162.793 223.648 163.207 223.93C163.621 224.203 164.125 224.34 164.719 224.34C165.461 224.34 166.121 224.242 166.699 224.047C167.277 223.844 167.84 223.562 168.387 223.203V226.262C167.84 226.605 167.266 226.852 166.664 227C166.07 227.156 165.316 227.234 164.402 227.234ZM175.008 208.766V212.48C175.008 213.129 174.984 213.746 174.938 214.332C174.898 214.918 174.867 215.332 174.844 215.574H175.031C175.312 215.121 175.645 214.754 176.027 214.473C176.418 214.191 176.848 213.984 177.316 213.852C177.785 213.719 178.289 213.652 178.828 213.652C179.773 213.652 180.598 213.82 181.301 214.156C182.004 214.484 182.551 215.004 182.941 215.715C183.332 216.418 183.527 217.332 183.527 218.457V227H179.953V219.348C179.953 218.41 179.781 217.703 179.438 217.227C179.094 216.75 178.562 216.512 177.844 216.512C177.125 216.512 176.559 216.68 176.145 217.016C175.73 217.344 175.438 217.832 175.266 218.48C175.094 219.121 175.008 219.906 175.008 220.836V227H171.434V208.766H175.008Z" fill="#032D6C"/>
<path fill-rule="evenodd" clip-rule="evenodd" d="M128.986 25.0361C128.986 23.9116 129.887 23 131 23C132.113 23 133.014 23.9116 133.014 25.0361V31.7912C133.014 32.9157 132.113 33.8273 131 33.8273C129.887 33.8273 128.986 32.9157 128.986 31.7912V25.0361ZM169.891 39.2857C169.104 38.4905 167.829 38.4905 167.042 39.2857L162.317 44.0622C161.531 44.8574 161.531 46.1467 162.317 46.9418C163.104 47.737 164.379 47.7367 165.166 46.9418L169.891 42.1654C170.677 41.3699 170.677 40.0806 169.891 39.2857ZM157.498 72.0881H151.399C151.026 70.893 150.553 69.7359 149.981 68.6258L154.294 64.2655C154.833 63.7207 155.129 62.9961 155.129 62.2253C155.129 61.4543 154.833 60.7297 154.294 60.1849L149.218 55.0533C148.105 53.9291 146.295 53.9285 145.181 55.0535L140.868 59.4138C139.77 58.8359 138.626 58.3567 137.444 57.9804V51.8137C137.443 50.2228 136.163 48.9281 134.589 48.9281H127.411C125.837 48.9281 124.557 50.2225 124.557 51.8137V57.9804C123.374 58.357 122.23 58.8359 121.132 59.4138L116.818 55.0533C115.705 53.9288 113.895 53.9291 112.782 55.0535L107.707 60.1846C107.167 60.7295 106.87 61.454 106.87 62.2251C106.87 62.9958 107.167 63.7204 107.706 64.2653L112.019 68.6256C111.448 69.7356 110.974 70.893 110.601 72.0878H104.502C102.928 72.0878 101.647 73.3822 101.647 74.9734V82.2304C101.647 83.8213 102.928 85.1157 104.502 85.1157H110.601C110.974 86.3105 111.448 87.4681 112.019 88.578L107.706 92.9383C106.593 94.0633 106.593 95.8939 107.706 97.0189L112.782 102.15C113.895 103.276 115.706 103.275 116.819 102.15L121.132 97.7899C122.23 98.3679 123.375 98.8471 124.557 99.2234V105.39C124.557 106.981 125.837 108.275 127.411 108.275H134.589C136.163 108.275 137.443 106.981 137.443 105.39V99.2234C138.625 98.8471 139.77 98.3679 140.868 97.7899L145.181 102.15C146.294 103.276 148.105 103.275 149.218 102.15L154.293 97.0189C154.832 96.4741 155.129 95.7495 155.129 94.9787C155.129 94.208 154.832 93.4834 154.293 92.9383L149.98 88.578C150.552 87.4679 151.026 86.3105 151.398 85.1157H157.498C159.072 85.1157 160.353 83.8213 160.353 82.2304V74.9734C160.353 73.3825 159.072 72.0881 157.498 72.0881ZM156.325 81.0435H149.864C148.928 81.0435 148.116 81.6948 147.903 82.6159C147.474 84.4715 146.753 86.2315 145.76 87.8466C145.267 88.6502 145.386 89.6916 146.047 90.3608L150.615 94.979L147.2 98.4317L142.632 93.8135C141.97 93.1446 140.94 93.024 140.144 93.5236C138.547 94.5267 136.806 95.2554 134.971 95.6898C134.06 95.905 133.415 96.7263 133.415 97.6724V104.204H128.586V97.6724C128.586 96.7265 127.941 95.9053 127.03 95.6898C125.195 95.2559 123.454 94.5273 121.856 93.5236C121.062 93.0251 120.031 93.1446 119.369 93.8135L114.801 98.4317L111.386 94.979L115.954 90.3608C116.616 89.6919 116.734 88.6505 116.241 87.8466C115.248 86.2313 114.528 84.4712 114.098 82.6159C113.885 81.6948 113.073 81.0435 112.137 81.0435H105.676V76.1609H112.137C113.073 76.1609 113.885 75.5096 114.098 74.5884C114.528 72.7331 115.248 70.9731 116.241 69.3577C116.734 68.5542 116.616 67.5127 115.954 66.8435L111.386 62.2253L114.801 58.7726L119.369 63.3908C120.03 64.0597 121.061 64.18 121.856 63.6807C123.454 62.6776 125.195 61.949 127.03 61.5149C127.941 61.2996 128.586 60.4783 128.586 59.5322V53.0003H133.415V59.5322C133.415 60.4781 134.06 61.2993 134.971 61.5149C136.806 61.949 138.547 62.6776 140.145 63.6807C140.939 64.1795 141.97 64.0592 142.632 63.3908L147.2 58.7726L150.615 62.2253L146.047 66.8435C145.385 67.5125 145.267 68.5539 145.76 69.3577C146.752 70.9725 147.473 72.7326 147.903 74.5884C148.116 75.5096 148.928 76.1609 149.864 76.1609H156.325V81.0435ZM131 67.6939C125.05 67.6939 120.21 72.5874 120.21 78.6021C120.21 84.6168 125.05 89.5103 131 89.5103C136.95 89.5103 141.79 84.6168 141.79 78.6021C141.79 72.5874 136.95 67.6939 131 67.6939ZM131 85.438C127.272 85.438 124.238 82.3714 124.238 78.6021C124.238 74.8328 127.272 71.7661 131 71.7661C134.729 71.7661 137.762 74.8328 137.762 78.6021C137.762 82.3714 134.729 85.438 131 85.438ZM78.0141 76.5659H84.696C85.8083 76.5659 86.71 77.4775 86.71 78.602C86.71 79.7265 85.8083 80.6381 84.696 80.6381H78.0141C76.9018 80.6381 76 79.7265 76 78.602C76 77.4775 76.9018 76.5659 78.0141 76.5659ZM183.986 76.5659H177.304C176.191 76.5659 175.29 77.4775 175.29 78.602C175.29 79.7265 176.191 80.6381 177.304 80.6381H183.986C185.098 80.6381 186 79.7265 186 78.602C186 77.4775 185.098 76.5659 183.986 76.5659ZM96.8335 110.263C97.6204 109.467 98.8957 109.467 99.682 110.263C100.469 111.058 100.469 112.347 99.682 113.142L94.9572 117.919C94.1707 118.714 92.8954 118.714 92.1088 117.919C91.3222 117.124 91.3222 115.834 92.1088 115.039L96.8335 110.263ZM169.891 115.039L165.166 110.263C164.379 109.467 163.104 109.467 162.317 110.263C161.531 111.058 161.531 112.347 162.317 113.142L167.042 117.919C167.829 118.714 169.104 118.714 169.891 117.919C170.677 117.124 170.677 115.834 169.891 115.039ZM94.9572 39.2857L99.682 44.0622C100.469 44.8571 100.469 46.1464 99.682 46.9418C98.8954 47.737 97.6201 47.737 96.8335 46.9418L92.1088 42.1654C91.3222 41.3702 91.3222 40.0809 92.1088 39.2857C92.8954 38.4905 94.1707 38.4905 94.9572 39.2857ZM171.182 73.6141C169.014 54.9156 154.352 40.0921 135.943 37.8236C134.841 37.6865 133.835 38.4822 133.7 39.5983C133.565 40.7146 134.351 41.73 135.456 41.8662C152.174 43.9263 165.22 57.1766 167.18 74.0881C167.3 75.1243 168.171 75.8872 169.178 75.8872C169.256 75.8872 169.335 75.8826 169.415 75.8734C170.52 75.7428 171.311 74.7312 171.182 73.6141ZM167.14 83.0976C167.28 81.9818 168.286 81.1909 169.392 81.3332C170.495 81.4744 171.276 82.4933 171.135 83.6091C169.61 95.7894 162.812 106.535 152.486 113.089C149.657 114.885 147.969 117.951 147.969 121.292V129.968C150.017 130.688 151.494 132.653 151.494 134.966V137.869C151.494 139.098 151.074 140.227 150.376 141.127C151.074 142.026 151.494 143.156 151.494 144.385V147.287C151.494 150.206 149.144 152.581 146.257 152.581H139.924V157.184C139.924 159.84 137.788 162 135.161 162H126.837C124.211 162 122.074 159.84 122.074 157.184V152.581H115.742C112.855 152.581 110.505 150.206 110.505 147.287V144.385C110.505 143.155 110.925 142.026 111.622 141.127C110.925 140.227 110.505 139.098 110.505 137.869V134.966C110.505 132.654 111.982 130.688 114.03 129.968V121.106C114.03 117.905 112.383 114.886 109.732 113.228C103.977 109.626 99.165 104.581 95.8171 98.6384C92.3633 92.5083 90.5381 85.5181 90.5381 78.4234C90.5378 57.8634 105.908 40.35 126.053 37.8271C127.157 37.6871 128.163 38.4817 128.299 39.5975C128.436 40.7136 127.652 41.7305 126.548 41.8687C108.316 44.1519 94.567 59.867 94.567 78.4234C94.5673 91.2752 101.029 102.992 111.853 109.765C115.681 112.16 118.059 116.506 118.059 121.106V129.672H143.942V121.292C143.942 116.541 146.335 112.186 150.345 109.641C159.646 103.737 165.767 94.0623 167.14 83.0976ZM135.162 157.927C135.56 157.927 135.897 157.587 135.897 157.184V152.581H126.103V157.184C126.103 157.587 126.44 157.927 126.838 157.927H135.162ZM146.258 148.509C146.913 148.509 147.466 147.949 147.466 147.287V144.384C147.466 143.722 146.913 143.163 146.258 143.163H115.743C115.088 143.163 114.534 143.722 114.534 144.384V147.287C114.534 147.949 115.088 148.509 115.743 148.509H146.258ZM146.258 139.09C146.913 139.09 147.466 138.53 147.466 137.868V134.966C147.466 134.303 146.913 133.744 146.258 133.744H115.743C115.088 133.744 114.534 134.303 114.534 134.966V137.868C114.534 138.53 115.088 139.09 115.743 139.09H146.258Z" fill="#032D6C"/>
</svg>
